<svg viewBox="0 0 70 70" xmlns="http://www.w3.org/2000/svg"><path fill-rule="evenodd" clip-rule="evenodd" d="M.845 69.25a.844.844 0 0 0 .844-.85v-3.987a2.534 2.534 0 0 1 1.73-2.412l17.566-5.884 9.79 6.56a.838.838 0 0 0 1.067-.108l1.939-1.946v4.73a.845.845 0 0 0 1.689 0v-4.73l1.939 1.952a.844.844 0 0 0 1.067.108l9.79-6.56 17.566 5.885a2.533 2.533 0 0 1 1.73 2.405v3.993a.845.845 0 0 0 1.689 0v-3.993a4.23 4.23 0 0 0-2.885-4.054l-17.384-5.796V52.63h4.29a2.513 2.513 0 0 0 2.534-2.547V33.105a2.514 2.514 0 0 0-2.534-2.547h-.912V10.965C52.368 4.927 47.487.022 41.45 0H27.802c-6.038.022-10.92 4.927-10.912 10.965v19.593h-.777a2.514 2.514 0 0 0-2.533 2.547v16.978a2.514 2.514 0 0 0 2.533 2.547h4.155v1.933L2.885 60.386A4.23 4.23 0 0 0 0 64.44v3.993a.845.845 0 0 0 .845.817zM33.78 58.225l-2.642 2.649-9.181-6.148V52.63h.912a2.48 2.48 0 0 0 2.067-1.074 3.817 3.817 0 0 0 2.702 1.074l6.08 3.068.062 2.526zM25.403 35.26v13.965c0 .92 1.23 1.703 2.196 1.703h14.188c1.094 0 2.196-.892 2.196-1.696V35.26c-1.304-.925-2.588-2.702-3.94-4.574l-.007-.01c-1.761-2.443-3.758-5.212-5.343-5.212-1.588 0-3.615 2.777-5.351 5.222-1.351 1.872-2.635 3.649-3.939 4.574zm9.222 18.965L31.45 52.63h6.384l-3.209 1.595zm3.493 6.648l9.175-6.148v-2.101h-.804a2.506 2.506 0 0 1-2.074-1.068 3.892 3.892 0 0 1-2.865 1.068l-6.08 3.074v2.52l2.648 2.655zM53.272 32.26a.83.83 0 0 1 .845.844v16.978a.83.83 0 0 1-.845.852h-6.756a.831.831 0 0 1-.844-.852V33.105a.831.831 0 0 1 .844-.851l6.756.007zM27.802 1.696a9.256 9.256 0 0 0-9.223 9.27v.864c2.507-1.723 7.905-4.25 13.263 1.155 5.587 5.615 16.471 1.129 18.83.061v-2.08a9.256 9.256 0 0 0-9.223-9.27H27.802zM18.578 13.95c1.223-1.114 6.56-5.168 12.074.237 6.506 6.411 17.924 1.621 20.018.716v15.654h-4.155a2.507 2.507 0 0 0-2.527 2.446 35.272 35.272 0 0 1-2.58-3.31l-.015-.02c-2.096-2.906-4.261-5.906-6.708-5.906s-4.611 3-6.708 5.905l-.014.02a35.708 35.708 0 0 1-2.581 3.317 2.506 2.506 0 0 0-2.527-2.452h-4.277V13.951zm-3.07 36.731c.16.16.378.25.604.246h6.756a.817.817 0 0 0 .845-.845V33.105a.831.831 0 0 0-.845-.851h-6.756a.831.831 0 0 0-.844.851v16.972a.83.83 0 0 0 .24.605z"/><path d="M32.092 21.221a.845.845 0 0 0-.845-.851H21.113a.851.851 0 0 0 0 1.696h10.134a.845.845 0 0 0 .845-.845zM38.003 22.072h10.135a.851.851 0 0 0 0-1.695H38.003a.851.851 0 0 0 0 1.695zM27.87 23.768H24.49a.851.851 0 0 0 0 1.696h3.378a.851.851 0 0 0 0-1.696zM44.76 23.768H41.38a.851.851 0 0 0 0 1.696h3.378a.851.851 0 0 0 0-1.696z"/><path fill-rule="evenodd" clip-rule="evenodd" d="M40.199 45.247a5.939 5.939 0 0 1-5.506 3.647 5.932 5.932 0 0 1-5.912-5.938A5.939 5.939 0 1 1 40.2 45.247zm-1.572-3.936a4.243 4.243 0 0 0-3.934-2.605 4.236 4.236 0 0 0-4.223 4.243 4.243 4.243 0 1 0 8.157-1.638z"/></svg>