<svg width="70" height="70" xmlns="http://www.w3.org/2000/svg"><path d="M67.56 26.02a.86.86 0 0 0-.54 1.04c.64 2.54.96 5.16.96 7.78 0 1.1-.06 2.2-.2 3.3a.85.85 0 1 0 1.7.2 32.12 32.12 0 0 0-.8-11.49c-.1-.34-.37-1.08-1.12-.83z"/><path fill-rule="evenodd" clip-rule="evenodd" d="M46.26 17a21.24 21.24 0 1 0-11.42 39.12c5.93.05 11.6-2.42 15.59-6.8a.85.85 0 0 0-1.2-1.2c-1.3 1.4-2.8 2.59-4.45 3.55a5.04 5.04 0 0 1-1.45-3.14.85.85 0 1 0-1.69.13 6.74 6.74 0 0 0 1.58 3.84 19.35 19.35 0 0 1-6.84 1.81c1.24-8.08-9.82-10.84-12.59-3.32-2-1.37-3.72-3.1-5.1-5.1 7.48-2.76 4.76-13.84-3.4-12.56.19-2.38.8-4.7 1.84-6.86 5.72 4.95 14.46-2.3 9.2-9.24a19.42 19.42 0 0 1 6.98-1.87c-1.07 8.77 11.62 11 12.95 1.64zM34.67 54.39a19.6 19.6 0 0 1-9.4-2.5c1.8-5.95 10.76-4.08 9.4 2.5zm-16.86-9.96a19.42 19.42 0 0 1-2.51-9.4c6.24-1.34 8.74 7.5 2.51 9.4zm.19-19.5a19.71 19.71 0 0 1 6.89-6.9c4.34 5.17-2.52 11.26-6.9 6.9zm17-9.63v.08h-.02c-1.04 6.7 7.73 8.01 9.41 2.43A19.35 19.35 0 0 0 35 15.3z"/><path fill-rule="evenodd" clip-rule="evenodd" d="M56.94 34.81c3.3 0 6.21-2.1 7.26-5.21l5.4-16.11a.85.85 0 0 0-.53-1.08L52.96 6.97a.86.86 0 0 0-1.08.54l-5.4 16.11a7.66 7.66 0 0 0 3.83 9.3l-1.54 4.63h-8.66a.85.85 0 1 0 0 1.7h2.55v5.1h-2.55a.85.85 0 1 0 0 1.7h13.94l-4.48 8.97a.85.85 0 0 0 1.52.73l4.84-9.66c.31.1.54.36.6.68l1.58 9.52a7.2 7.2 0 0 1-4.4 1.65.85.85 0 0 0 0 1.7 9.14 9.14 0 0 0 4.7-1.48l1.02 6.12a2.56 2.56 0 0 0 2.53 2.14h1.11v2.39a.85.85 0 1 0 1.7 0v-2.37h.51a2.56 2.56 0 0 0 2.53-2.98l-2.9-17.41h2.4a.85.85 0 0 0 0-1.7h-2.54v-1.7h2.53a.85.85 0 1 0 0-1.7h-9.32V38.4a.85.85 0 0 0-.87-.85h-2.95l1-2.95a7.6 7.6 0 0 0 1.78.21zm-7.48 9.52h-5.1v-5.1h1.7v2.55a.85.85 0 0 0 1.7 0v-2.53h1.7v5.08zm13.6-1.7h-5.44l-.92 1.95c.8.34 1.36 1.06 1.5 1.91l2.93 17.55c.07.42.43.72.85.72h3.3a.86.86 0 0 0 .85-1l-3.07-18.4v-2.73zM53.22 8.88l14.5 4.87-.53 1.6-14.51-4.85.54-1.62zm3.06 32.71v-2.34l-5.1-.04v5.1h3.74l1.36-2.72zm-5.73-4.04l1.36-4.02 1.65.55-1.21 3.47h-1.8zm-2.15-8.82a5.95 5.95 0 0 0 3.44 3l3.23 1.07a5.95 5.95 0 0 0 7.47-3.72L66.62 17l-14.45-4.9-4.08 12.09c-.5 1.5-.39 3.13.31 4.54z"/><path d="M50.99 4.94a.85.85 0 0 0-.37-1.14 34.84 34.84 0 1 0 5.02 58.98.9.9 0 0 0 .15-1.32.85.85 0 0 0-1.21-.04A33.14 33.14 0 1 1 34.86 1.66c5.22 0 10.36 1.25 15 3.65.4.2.91.04 1.13-.37z"/><path d="M47.67 14.78a.85.85 0 0 0-.3-1.18 24.65 24.65 0 1 0 .69 42.03.85.85 0 1 0-.91-1.43 22.94 22.94 0 1 1-.63-39.14c.4.22.9.1 1.15-.28z"/><path d="M34.84 28.9A6 6 0 0 1 40.8 35a.78.78 0 0 0 .85.76.92.92 0 0 0 .85-.93 7.66 7.66 0 1 0-3.82 6.63.85.85 0 1 0-.86-1.47 5.95 5.95 0 1 1-2.97-11.1z"/></svg>