<svg viewBox="0 0 64 64" xmlns="http://www.w3.org/2000/svg"><path fill-rule="evenodd" clip-rule="evenodd" d="M26.096 15.597h4.317a2.346 2.346 0 0 1 2.34 2.34v43.67a2.346 2.346 0 0 1-2.34 2.34H2.34A2.346 2.346 0 0 1 0 61.606v-43.67a2.346 2.346 0 0 1 2.34-2.34h4.317l3.949-4.742a.78.78 0 0 1-.468-.717V3.899c0-.43.349-.78.78-.78h10.917a.78.78 0 0 1 .774.78v6.239a.78.78 0 0 1-.474.717l3.961 4.742zm-5.04-10.918h-9.359v4.68h9.358v-4.68zm-8.466 6.239h7.573l1.298 1.56H11.292l1.298-1.56zm10.175 3.12H9.982l-1.298 1.559H24.07l-1.304-1.56zM1.56 45.23h8.578a.78.78 0 0 0 0-1.56H1.56v-7.798h8.578a.78.78 0 0 0 0-1.56H1.56v-4.678h17.156v20.275H1.56V45.23zm28.854 17.157c.43 0 .78-.35.78-.78v-.78H1.56v.78c0 .43.349.78.78.78h28.073zm.78-3.12H1.56V51.47h17.936c.43 0 .78-.35.78-.78V28.854a.78.78 0 0 0-.78-.78H1.56v-7.798h29.633v38.991zM1.56 18.717h29.633v-.78a.78.78 0 0 0-.78-.78H2.34a.78.78 0 0 0-.78.78v.78z"/><path fill-rule="evenodd" clip-rule="evenodd" d="M61.607 0H27.294a2.346 2.346 0 0 0-2.34 2.34v9.201a.78.78 0 1 0 1.56 0V4.68h35.873v4.679H38.212a.78.78 0 0 0-.78.78v43.67c0 .431.35.78.78.78h24.175v4.68H35.093a.78.78 0 0 0 0 1.559h27.294v.78c0 .43-.35.78-.78.78H35.093a.78.78 0 1 0 0 1.56h26.514a2.346 2.346 0 0 0 2.34-2.34V2.34A2.346 2.346 0 0 0 61.606 0zm.78 21.835h-8.578a.78.78 0 0 0 0 1.56h8.578v7.798H44.45a.78.78 0 0 0 0 1.56h17.937v7.798H47.57a.78.78 0 0 0 0 1.56h14.817v10.918H38.992V10.918h23.395v10.917zM26.514 3.12h35.873v-.78a.78.78 0 0 0-.78-.78H27.294a.78.78 0 0 0-.78.78v.78z"/></svg>