<svg viewBox="0 0 132 120" xmlns="http://www.w3.org/2000/svg"><path fill-rule="evenodd" clip-rule="evenodd" d="M.1 58.1L0 59.72h9.94l-.36.34-.48.44c-4.43 3.9-7.12 8.73-7.46 14.66-.18 3.08-.17 6.17-.16 9.25l.01 2.48c-.02 8.52-.02 17.05 0 25.58.02 4.44 2.85 7.24 7.25 7.24h10c4.53-.01 7.27-2.71 7.33-7.27.02-1.3.01-2.61 0-3.91v-6.5h79.1V106.73c-.03 2.27-.04 4.55.1 6.81.22 3.65 3.1 6.15 6.75 6.17h8l.7-.01c.48-.02.95-.03 1.42.01 4.58.43 7.7-3.2 7.66-7.68-.07-7.57-.06-15.14-.05-22.7.01-3.94.02-7.87.01-11.8 0-6.77-2.5-12.45-7.56-16.96-.28-.2-.57-.37-.87-.51l.27-.45h9.5l.02-1.14v-.01c.01-.7.03-1.33-.02-1.96-.25-3.7-2.72-6.95-6.3-7.46-1.92-.29-3.9-.22-5.95-.15-.93.03-1.87.06-2.84.06v6.82l-1.8-2.43c-2.5-3.4-4.86-6.6-7.21-9.82-.21-.29-.39-.8-.27-1.07.93-2.13 1.98-4.2 4.2-5.3 1.67-.84 3.34-1.65 5.03-2.45 1.1-.52 1.74-1.36 1.74-2.6-.01-1.17-.61-2-1.68-2.5l-1.62-.8c-.85-.43-1.7-.85-2.56-1.23a9.1 9.1 0 0 1-4.84-4.9 62.46 62.46 0 0 0-1.94-4.07c-1.1-2.04-3.67-2.03-4.83-.03a9 9 0 0 0-.76 1.55 13.62 13.62 0 0 1-9.06 9c-.7.24-1.46.6-1.93 1.13-.55.61-1.09.74-1.83.74H71.84c-9.5 0-19 .02-28.49-.04-6.64-.03-11.83 2.53-15.72 7.9-2.85 3.93-5.74 7.84-8.62 11.74l-2.74 3.71-.6.74-.27.33-.29-.1V48.8l-2.44-.02a77.67 77.67 0 0 0-5.17.05 7.87 7.87 0 0 0-7.14 6.34c-.17.93-.22 1.88-.27 2.93zm126.8 41.03H4.3l.01-6.68.48-.02c.34-.02.66-.04.98-.04H9.19c5.04 0 10.07-.01 15.1.04.73.04 1.41.33 1.95.81 1.04.94 2.02 1.95 3 2.95l1.14 1.17 1.82-1.99-1.28-1.3c-1.37-1.4-2.8-2.84-4.26-4.25-.2-.2-.64-.19-1.03-.18H4.31v-6.76H5.8c5.6.02 11.19.04 16.78.04 3.29 0 4.73-1.4 4.8-4.68.02-.92.01-1.85 0-2.77 0-1.03 0-2.06.02-3.1.03-.9-.29-1.42-1.09-1.87-3.53-1.96-7.03-3.96-10.53-5.95v-.01h-.02v-.01l-2.77-1.58-.94-.55-.57-.34c2.5-2.02 5.2-3.44 8.24-3.86l1.43-.2c7.83-1.1 15.66-2.2 23.52-2.95 10.4-.98 20.84-1.08 31.28-.63 11.84.47 23.64 1.73 35.32 3.76a18.7 18.7 0 0 1 8.47 3.9l-.61.36a174 174 0 0 1-1.66.95l-3.08 1.76h-.01c-3.17 1.81-6.34 3.62-9.52 5.4-.7.38-1.05.8-1.02 1.64.02 1 .02 2.01.02 3.01 0 1.18 0 2.35.03 3.52.1 2.75 1.66 4.2 4.44 4.2l16.92-.04h1.66v6.75h-5.85c-5.1 0-10.2-.01-15.29.03-.71.05-1.4.34-1.93.82a110.74 110.74 0 0 0-3.69 3.55l-1.4 1.39 2.09 1.88 1.09-1.1c1.01-1.03 2.06-2.1 3.15-3.11.4-.4.92-.63 1.48-.69 4.92-.03 9.86-.03 14.79-.02h4.92c.21.02.42.05.62.09v6.66zM18.75 55.53a272.02 272.02 0 0 1 93.7.04l-7.22-9.8c-2.13 2.22-4.05 1.92-5.31-.7l-.39-.78c-.32-.66-.65-1.31-.91-1.99-1-2.7-3.11-4.84-5.8-5.89-.91-.38-1.79-.85-2.67-1.32-.52-.28-1.05-.56-1.59-.82l-.06-.03-.07-.04c-.45-.22-.94-.47-1.41-.47-14.78-.03-29.56-.03-44.35-.02-5.29 0-9.5 2.16-12.62 6.46-1.9 2.62-3.81 5.21-5.73 7.81V48l-2.55 3.44-3.02 4.1zm96.2-23.38c-6.28 1.94-10.28 5.94-12.26 12.27-1.92-6.42-6.14-10.2-12.35-12.26 6.33-1.88 10.28-5.98 12.31-12.27 1.9 6.41 6.1 10.22 12.3 12.26zm-94.31 72.6l2.54-.16v-2.58H4.34v2.6l2.6.14v2.62l-2.62.11v2.7h2.63v2.6l-2.6.12c.06 3 2.29 4.58 5.36 3.84v-9.22h2.73v9.34h2.75v-9.33h2.76v9.33c3.34.39 5.47-1.28 5.18-3.96l-2.42-.13v-2.66h2.52v-2.72h-2.58v-2.63zm92.76 2.77v9.31c-3.42.44-5.54-1.2-5.3-3.96h2.48v-2.7H108v-2.67h2.57v-2.75l-2.55-.14V102h18.9v2.61l-2.57.15v2.6h2.56v2.7l-2.53.13v2.58l2.4.12c.4 2.65-1.72 4.32-5.17 3.98v-9.39h-2.7v9.37h-2.76v-9.33h-2.75zm13.5-27.5c.51-6.08-.8-11.47-5.1-15.95l-3.41 1.96c3.1 3.05 3.9 5.74 2.6 8.58a6.83 6.83 0 0 1-6.83 4.1 5.64 5.64 0 0 1-4.3-2.1 17.31 17.31 0 0 1-1.66-2.93c-.23-.48-.47-.97-.73-1.45-.65.1-.93.65-.9 1.54a50 50 0 0 1 .03 2.48v1.79c.03 1.92.24 2.13 2.15 2.13l16.65-.07c.33 0 .65-.02.99-.04l.5-.03zm-103.66.14H4.35c-.52-6.2.77-11.58 5.09-16.09l3.38 1.92c-3.38 3.83-3.95 6.23-2.25 9.25a6.86 6.86 0 0 0 7.09 3.43c3.02-.47 5.08-2.81 5.73-6.5.97.12 1.31.66 1.27 1.63a75.8 75.8 0 0 0-.04 3.65v1.28c0 .93-.46 1.43-1.37 1.43zm-2.66-8.14c.03-1.05-.27-1.89-1.32-2.38-.38-.17-.74-.4-1.1-.61-.44-.27-.88-.54-1.34-.72a2.93 2.93 0 0 0-1.87-.1 3.93 3.93 0 0 0-2.4 4.76 4.07 4.07 0 0 0 8.02-.95zm98.24-.04a4.09 4.09 0 1 1-8.13.63c-.19-1.3 0-2.48 1.45-3.06a7.5 7.5 0 0 0 1.4-.78c1.04-.7 2.06-1.16 3.29-.34 1.3.86 2 2.03 2 3.55zM12.31 51.56c-6.4-.45-9.43 1.27-9.3 5.26h9.3v-5.26zm111.76.06c2.45.35 4.2 2.65 4.2 5.22h-9.32v-5.26c.53 0 1.06-.02 1.59-.04 1.19-.04 2.37-.08 3.53.08zM120.64 7.17c-.41-1.08-1.36-1.59-2.54-1.57-1.34 0-2.15.8-2.6 1.92a6.96 6.96 0 0 1-4.26 4.26c-.41.17-.78.42-1.08.74-1.28 1.37-.9 3.47.92 4.32 2.01.97 3.76 2.1 4.53 4.37a2.61 2.61 0 0 0 2.63 1.86c1.31.02 2.17-.7 2.63-1.86a7.12 7.12 0 0 1 4.35-4.36 2.52 2.52 0 0 0 1.73-2.44c.03-1.26-.55-2.17-1.67-2.62a7.71 7.71 0 0 1-4.64-4.62zm-2.38 13.47c-1.1-3.26-3.16-5.1-6.34-6.3 3.25-1.03 5.04-3.06 6.25-6.2 1.1 3.2 3.13 4.98 6.25 6.17-3.23 1.11-5.07 3.13-6.16 6.33z"/><path fill-rule="evenodd" clip-rule="evenodd" d="M85.11 11.49c-.4-1.1-1.35-1.6-2.54-1.58-1.34 0-2.14.79-2.59 1.93a6.96 6.96 0 0 1-4.26 4.26c-.42.16-.79.42-1.09.74-1.28 1.35-.89 3.44.92 4.32 2.02.97 3.76 2.1 4.53 4.36a2.61 2.61 0 0 0 2.63 1.86c1.32.02 2.17-.7 2.63-1.86a7.13 7.13 0 0 1 4.35-4.35 2.52 2.52 0 0 0 1.73-2.45c.04-1.25-.55-2.17-1.67-2.62a7.7 7.7 0 0 1-4.64-4.61zm-2.37 13.46c-1.1-3.26-3.16-5.1-6.34-6.3 3.25-1.03 5.04-3.06 6.25-6.2 1.1 3.2 3.13 4.99 6.25 6.17-3.23 1.11-5.07 3.13-6.16 6.33zM99.98 1.01C99.72.31 99.1 0 98.35 0c-.86 0-1.37.5-1.66 1.24a4.45 4.45 0 0 1-2.73 2.73c-.27.1-.5.26-.7.47-.82.87-.57 2.2.6 2.76 1.3.62 2.4 1.35 2.9 2.8.21.74.9 1.23 1.68 1.2.84 0 1.39-.46 1.68-1.2a4.56 4.56 0 0 1 2.79-2.8 1.6 1.6 0 0 0 1.1-1.56 1.64 1.64 0 0 0-1.06-1.68 4.91 4.91 0 0 1-2.97-2.95zm-1.52 8.62c-.7-2.09-2.02-3.26-4.06-4.03 2.07-.66 3.22-1.97 4-3.98.7 2.05 2 3.2 4 3.96a5.9 5.9 0 0 0-3.94 4.05zM96.86 70.66H34.01c.1.65.17 1.3.24 1.92.15 1.31.29 2.56.63 3.75 1.72 5.94 6.05 9.42 11.77 10.79a112.18 112.18 0 0 0 16 2.42c5.95.54 11.87-.33 17.73-1.4 3.25-.58 6.42-1.33 9.29-3.04 5.1-3.03 8.16-9.13 7.2-14.44zM37.23 74.5l-.27-1.12h57.17a11.01 11.01 0 0 1-2.94 7.07c-2.4 2.6-5.5 3.85-8.86 4.53-5.87 1.2-11.8 2.08-17.81 1.95a75.54 75.54 0 0 1-16.45-2.18c-4.69-1.16-8.44-3.66-10.31-8.37-.22-.59-.37-1.2-.53-1.88z"/></svg>