<svg viewBox="0 0 47 60" xmlns="http://www.w3.org/2000/svg">
<path d="M44.9576 51.7082L33.0809 38.0567V23.0402L34.446 21.675V17.5796H22.1597V21.675L23.5249 23.0402V38.0567L11.6481 51.7082C10.5656 52.9182 10.3002 54.6534 10.9713 56.1317C11.6425 57.6101 13.1235 58.5524 14.747 58.5339H41.8587C43.4822 58.5524 44.9632 57.6101 45.6344 56.1317C46.3056 54.6534 46.0401 52.9182 44.9576 51.7082Z"/>
<path d="M23.5249 22H24.89" />
<path d="M33.0809 22H28.9854" />
<path d="M18.0506 20.0776C15.4776 19.4065 13.762 16.9795 13.9879 14.33C14.2138 11.6804 16.3154 9.5788 18.9649 9.35294C21.6144 9.12707 24.0415 10.8426 24.7125 13.4157"/>
<path d="M38.5551 20.4326C41.2097 21.1264 42.9372 23.6822 42.5914 26.4041C42.2455 29.1259 39.9337 31.1685 37.1899 31.1763"/>
<path d="M11.9212 33.9066C14.56 33.9066 16.6992 31.7674 16.6992 29.1286C16.6992 26.4898 14.56 24.3506 11.9212 24.3506C9.28234 24.3506 7.14316 26.4898 7.14316 29.1286C7.14316 31.7674 9.28234 33.9066 11.9212 33.9066Z"/>
<path d="M5.77802 9.33393C8.03986 9.33393 9.87345 7.50034 9.87345 5.2385C9.87345 2.97665 8.03986 1.14307 5.77802 1.14307C3.51617 1.14307 1.68259 2.97665 1.68259 5.2385C1.68259 7.50034 3.51617 9.33393 5.77802 9.33393Z"/>
<path d="M16.6992 2H19.4294"/>
<path d="M7.14316 18H9.87345"/>
<path d="M26.2552 47H41.2717"/>
<path d="M20.7946 47H15.334"/>
</svg>
