<svg viewBox="0 0 40 48" xmlns="http://www.w3.org/2000/svg"><path d="M39.27 15.7h-4.11a.7.7 0 0 0-.71.7c0 .39.32.7.7.7h4.12c.4 0 .71-.31.71-.7a.7.7 0 0 0-.7-.7zM35.16 11.4h1.87c.39 0 .7-.31.7-.7a.7.7 0 0 0-.7-.7h-1.87a.7.7 0 0 0-.71.7c0 .39.32.7.7.7zM35.16 5.7h2.53c.39 0 .7-.3.7-.7a.7.7 0 0 0-.7-.7h-2.53a.7.7 0 0 0-.71.7c0 .4.32.7.7.7zM37.69 27.1h-2.53a.7.7 0 0 0-.71.7c0 .39.32.7.7.7h2.54c.39 0 .7-.31.7-.7a.7.7 0 0 0-.7-.7zM35.16 22.8h1.87c.39 0 .7-.31.7-.7a.7.7 0 0 0-.7-.7h-1.87a.7.7 0 0 0-.71.7c0 .39.32.7.7.7z"/><path d="M32.08 6.36v22.68a10.53 10.53 0 0 1 4.22 8.42A10.6 10.6 0 0 1 25.66 48a10.6 10.6 0 0 1-10.63-10.54c0-3.3 1.57-6.43 4.22-8.42V6.36A6.4 6.4 0 0 1 25.66 0a6.4 6.4 0 0 1 6.42 6.36zm-15.63 31.1a9.19 9.19 0 0 0 9.21 9.13c5.09 0 9.22-4.1 9.22-9.13a9.13 9.13 0 0 0-3.92-7.48.7.7 0 0 1-.3-.58V6.36a4.98 4.98 0 0 0-5-4.95c-2.75 0-5 2.22-5 4.95V29.4a.7.7 0 0 1-.3.58 9.13 9.13 0 0 0-3.91 7.48z"/><path d="M28.77 6.36v24.08a7.53 7.53 0 0 1 4.46 6.84c0 4.13-3.4 7.5-7.57 7.5a7.54 7.54 0 0 1-7.56-7.5 7.53 7.53 0 0 1 4.46-6.84v-3.2a.7.7 0 0 1 1.42 0v3.67a.7.7 0 0 1-.46.66c-2.4.88-4 3.18-4 5.7 0 3.37 2.75 6.1 6.14 6.1a6.13 6.13 0 0 0 6.15-6.1c0-2.52-1.6-4.82-4-5.7a.7.7 0 0 1-.46-.66V11.4h-3.37v13a.7.7 0 0 1-.71.71.7.7 0 0 1-.71-.7V6.36a3.1 3.1 0 0 1 3.1-3.08 3.1 3.1 0 0 1 3.1 3.08zm-4.8 0V10h3.38V6.36c0-.92-.76-1.67-1.69-1.67-.93 0-1.68.75-1.68 1.67zM15.81 13.18c.91.54.46 1.93-.6 1.84a1.7 1.7 0 0 0-1.72 2.34c.42.97-.78 1.84-1.58 1.14a1.7 1.7 0 0 0-2.79.9c-.23 1.02-1.71 1.03-1.94 0a1.7 1.7 0 0 0-2.79-.9c-.8.7-2-.17-1.58-1.14a1.7 1.7 0 0 0-1.72-2.34c-1.06.1-1.51-1.3-.6-1.84a1.68 1.68 0 0 0 0-2.9c-.91-.54-.46-1.94.6-1.84a1.7 1.7 0 0 0 1.72-2.35c-.42-.97.78-1.83 1.58-1.14.97.85 2.5.35 2.79-.9.23-1.02 1.71-1.02 1.94 0a1.7 1.7 0 0 0 2.79.9c.8-.7 2 .17 1.58 1.14a1.7 1.7 0 0 0 1.72 2.35c1.06-.1 1.51 1.3.6 1.83a1.68 1.68 0 0 0 0 2.9zm-3.88 3.7c-.1-1.47.91-2.82 2.34-3.18a3.09 3.09 0 0 1 0-3.95 3.11 3.11 0 0 1-2.34-3.19 3.15 3.15 0 0 1-3.78-1.21 3.15 3.15 0 0 1-3.78 1.21c.1 1.48-.9 2.83-2.34 3.2a3.09 3.09 0 0 1 0 3.94 3.11 3.11 0 0 1 2.34 3.19c1.38-.55 2.99-.02 3.78 1.22a3.15 3.15 0 0 1 3.78-1.22z"/><path d="M4.24 11.73a3.9 3.9 0 0 1 3.91-3.88 3.9 3.9 0 0 1 3.91 3.88 3.9 3.9 0 0 1-3.91 3.87 3.9 3.9 0 0 1-3.91-3.87zm1.42 0a2.48 2.48 0 0 0 2.49 2.47c1.37 0 2.5-1.11 2.5-2.47a2.48 2.48 0 0 0-2.5-2.47c-1.37 0-2.5 1.1-2.5 2.47z"/></svg>