<svg viewBox="0 0 207 208" xmlns="http://www.w3.org/2000/svg"><path d="M115.513 15.01a2.515 2.515 0 0 0-1.55-4.31L3.197.63A2.598 2.598 0 0 0 .458 2.926a2.517 2.517 0 0 0 2.296 2.739l105.409 9.566-2.739 2.76a7.552 7.552 0 0 0 0 10.592L133.719 56.9a2.52 2.52 0 0 0 3.565-3.565L108.988 25.04a2.518 2.518 0 0 1 0-3.484l6.525-6.546zm19.676 48.555a2.517 2.517 0 0 0-2.517-2.517h-18.931a2.518 2.518 0 0 0-1.772 4.29l15.809 15.849a2.536 2.536 0 0 0 4.241-1.136 2.537 2.537 0 0 0-.656-2.449l-11.54-11.52h12.849a2.517 2.517 0 0 0 2.517-2.517z"/><path fill-rule="evenodd" clip-rule="evenodd" d="M.458 63.565a2.517 2.517 0 0 1 2.518-2.517h50.348a35.067 35.067 0 0 0 10.774-1.853L51.451 25.482 2.472 15.694a2.517 2.517 0 0 1-2.014-2.98 2.578 2.578 0 0 1 3.021-1.692l50.348 10.07c.217.044.427.119.624.221l40.279 20.14a2.518 2.518 0 0 1 .644 4.027 89.396 89.396 0 0 1-24.811 16.917l12.869 34.237a7.491 7.491 0 0 1-6.304 10.069c-28.873 2.215-38.643 20.293-47.261 36.241l-.006.01-.143.266c-6.572 12.146-12.747 23.558-26.742 23.558a2.517 2.517 0 1 1 0-5.034c11.016 0 16.07-9.345 22.455-21.267l.055-.103c8.772-16.215 19.687-36.395 51.24-38.867a2.454 2.454 0 0 0 2.013-3.363L65.87 63.907a40.4 40.4 0 0 1-12.546 2.175H2.976a2.517 2.517 0 0 1-2.518-2.517zM89.212 44.05L57.935 28.402l10.876 28.98a84.703 84.703 0 0 0 20.4-13.332zm115.941-6.646l-47.73-16.111a2.537 2.537 0 0 0-3.182 1.591l-16.011 47.83c-3.563 10.67 1.227 22.34 11.258 27.43l-4.551 13.755h-25.496a2.518 2.518 0 1 0 0 5.035h7.552v15.104h-3.847a2.517 2.517 0 0 0 0 5.035h37.519l-13.191 26.544a2.518 2.518 0 0 0 4.411 2.155l14.359-28.598a2.475 2.475 0 0 1 1.752 2.014l4.693 28.195a21.305 21.305 0 0 1-12.97 5.034 2.518 2.518 0 0 0 0 5.035 27.062 27.062 0 0 0 13.936-4.511l3.041 18.125a7.572 7.572 0 0 0 7.492 6.344h3.303v7.069a2.517 2.517 0 0 0 5.035 0v-7.008h1.51a7.576 7.576 0 0 0 5.804-2.677 7.576 7.576 0 0 0 1.688-6.164l-8.66-51.577h7.129a2.517 2.517 0 1 0 0-5.035h-7.552v-5.035h7.552a2.517 2.517 0 1 0 0-5.034h-27.691v-7.553a2.517 2.517 0 0 0-2.517-2.517h-8.781l2.94-8.74c1.734.425 3.512.641 5.297.644a22.717 22.717 0 0 0 21.508-15.447l16.011-47.73a2.516 2.516 0 0 0-1.611-3.202zm-58.041 94.655h-15.105v-15.105h5.035v7.552a2.518 2.518 0 1 0 5.035 0v-7.592h5.035v15.145zm40.278-5.035h-16.111l-2.699 5.639a7.51 7.51 0 0 1 4.471 5.679l8.66 51.959a2.558 2.558 0 0 0 2.437 2.256h9.808a2.558 2.558 0 0 0 2.517-2.981l-9.083-54.497v-8.055zm-20.139-10.07v6.928l-4.028 8.056h-11.056v-15.105l15.084.121zm-12.929-16.937l-4.028 11.902h5.458l3.443-10.271-4.873-1.631zm31.638-13.292a17.622 17.622 0 0 1-22.374 11.097l-9.546-3.202a17.62 17.62 0 0 1-11.097-22.315l12.084-35.807 42.956 14.48-12.023 35.747zm-29.342-54.98l42.956 14.4 1.612-4.753-42.957-14.42-1.611 4.773zM50.806 164.261c0-18.074 14.652-32.726 32.726-32.726 18.065.022 32.704 14.661 32.727 32.726 0 18.074-14.652 32.726-32.727 32.726-18.074 0-32.726-14.652-32.726-32.726zm5.035 0c0 15.294 12.398 27.691 27.691 27.691 15.29-.011 27.681-12.402 27.692-27.691 0-15.293-12.398-27.691-27.692-27.691-15.293 0-27.691 12.398-27.691 27.691z"/><path fill-rule="evenodd" clip-rule="evenodd" d="M99.543 151.815l-5.518 5.518a12.506 12.506 0 0 1 1.833 4.411h7.814a2.517 2.517 0 0 1 0 5.034h-7.814a12.506 12.506 0 0 1-1.833 4.411l5.518 5.518a2.522 2.522 0 0 1-3.565 3.565l-5.518-5.518a12.518 12.518 0 0 1-4.41 1.832v7.834a2.517 2.517 0 1 1-5.035 0v-7.814a12.498 12.498 0 0 1-4.41-1.832l-5.519 5.518a2.521 2.521 0 0 1-3.564-3.565l5.437-5.538a12.506 12.506 0 0 1-1.752-4.411h-7.814a2.517 2.517 0 1 1 0-5.034h7.814a12.506 12.506 0 0 1 1.752-4.411l-5.457-5.518a2.52 2.52 0 0 1 3.564-3.565l5.538 5.519a12.5 12.5 0 0 1 4.411-1.833v-7.814a2.517 2.517 0 1 1 5.035 0v7.733c1.574.322 3.072.944 4.41 1.833l5.518-5.438a2.521 2.521 0 0 1 3.565 3.565zM75.98 164.261a7.552 7.552 0 0 0 7.552 7.552 7.572 7.572 0 0 0 7.553-7.552 7.552 7.552 0 0 0-15.105 0zm32.726-57.9c-6.951 0-12.587-5.636-12.587-12.587.011-6.947 5.64-12.576 12.587-12.587 6.952 0 12.587 5.635 12.587 12.587 0 6.951-5.635 12.587-12.587 12.587zm0-5.035a7.553 7.553 0 0 0 7.553-7.552 7.573 7.573 0 0 0-7.553-7.552 7.552 7.552 0 1 0 0 15.104z"/><path d="M53.324 76.152a2.517 2.517 0 0 0 0-5.035h-20.14a2.517 2.517 0 0 0 0 5.035h20.14z"/><path fill-rule="evenodd" clip-rule="evenodd" d="M136.337 161.744h2.578a2.738 2.738 0 0 1 2.779 2.517 2.317 2.317 0 0 1-2.275 2.517h-13.232c-1.3 22.612-20.016 40.282-42.665 40.282s-41.364-17.67-42.665-40.282H35.48a12.587 12.587 0 0 1-12.466 10.07H2.874a2.517 2.517 0 1 1 0-5.035h20.14a7.552 7.552 0 0 0 7.653-7.25 55.745 55.745 0 0 1 4.21-21.428 52.14 52.14 0 0 1 35.464-30.209 53.45 53.45 0 0 1 45.535 9.526 2.536 2.536 0 0 1-3.081 4.028 48.52 48.52 0 0 0-41.266-8.6 47.67 47.67 0 0 0-32 27.329 50.774 50.774 0 0 0-3.747 16.535h5.096c1.3-22.612 20.015-40.282 42.664-40.282s41.365 17.67 42.665 40.282h5.156a48.324 48.324 0 0 0-3.706-16.112 2.535 2.535 0 0 1 4.652-2.014 53.327 53.327 0 0 1 4.028 18.126zm-90.566 2.517c0 20.855 16.907 37.761 37.761 37.761 20.846-.022 37.739-16.915 37.761-37.761 0-20.855-16.906-37.761-37.76-37.761-20.855 0-37.762 16.906-37.762 37.761z"/></svg>