<svg viewBox="0 0 38 54" xmlns="http://www.w3.org/2000/svg"><path fill-rule="evenodd" clip-rule="evenodd" d="M13.82 6.97h18.13a6.08 6.08 0 0 1 6.05 6.1V47.9c0 3.36-2.71 6.1-6.05 6.1H6.05A6.08 6.08 0 0 1 0 47.9V13.06a6.1 6.1 0 0 1 3.45-5.5V5.23H2.6a.87.87 0 0 1-.86-.88V.87c0-.48.38-.87.86-.87h12.1c.47 0 .86.39.86.87v3.48c0 .49-.39.88-.87.88h-.86v1.74zm22.45 19.67V13.06c0-2.4-1.93-4.35-4.32-4.35H18.5l3.46 3.48h8.28a2.6 2.6 0 0 1 2.59 2.62v8.35l3.45 3.48zM31.1 21.4l-7.41-7.47h6.55c.47 0 .86.39.86.87v6.6zM13.82 1.74H3.45v1.74h10.37V1.74zM5.18 5.23h6.91v1.74H6.05c-.3 0-.58.03-.87.07V5.23zm.87 47.03h25.9a4.34 4.34 0 0 0 4.32-4.36V29.1L16.05 8.71h-10a4.34 4.34 0 0 0-4.32 4.35V47.9c0 2.4 1.93 4.36 4.32 4.36z"/><path fill-rule="evenodd" clip-rule="evenodd" d="M14.68 10.45c.23 0 .45.1.61.26l19 19.16c.16.16.26.38.26.61v16.55a3.47 3.47 0 0 1-3.46 3.49H6.91a3.47 3.47 0 0 1-3.46-3.49v-33.1a3.47 3.47 0 0 1 3.46-3.48h7.77zM31.1 48.77c.95 0 1.73-.78 1.73-1.74V30.84L14.32 12.2H6.91c-.95 0-1.73.78-1.73 1.75v33.1c0 .95.78 1.73 1.73 1.73h24.18z"/><path fill-rule="evenodd" clip-rule="evenodd" d="M17.4 45.25a6.2 6.2 0 0 1-5.3-6.28c0-1.7.42-3.4 1.23-4.9l4.05-7.49c.3-.56 1.21-.56 1.51 0l4.05 7.48c.81 1.5 1.24 3.2 1.24 4.91v.22a6.03 6.03 0 0 1-6.78 6.05zm.74-16.43l-3.3 6.08a8.6 8.6 0 0 0-1.02 4.07c0 2.3 1.66 4.3 3.79 4.55a4.27 4.27 0 0 0 3.4-1.07 4.37 4.37 0 0 0 1.44-3.26v-.22a8.6 8.6 0 0 0-1.03-4.07l-3.28-6.08z"/><path d="M21.6 39.2h-1.74c0 .95-.77 1.74-1.72 1.74v1.74c1.9 0 3.45-1.57 3.45-3.49z"/></svg>