<svg viewBox="0 0 57 58" xmlns="http://www.w3.org/2000/svg"><path fill-rule="evenodd" clip-rule="evenodd" d="M2.28 23c-.21 1.57.54 2.61 2.45 3.3l-.08.26-.07.27A41.55 41.55 0 0 0 2.3 38.86a199.6 199.6 0 0 0-.08 6.79v2.33a386.3 386.3 0 0 0 0 6.74c.01 2.01 1.15 3.13 3.15 3.13h5.72c1.93 0 3.07-1.13 3.09-3.04v-2.36-2.96h28.05v5.26c.01 1.97 1.13 3.1 3.1 3.1h5.43c2.39 0 3.44-1.04 3.44-3.43V40.95c0-3.57-.45-7.13-1.32-10.6-.24-.91-.5-1.82-.77-2.74l-.39-1.35.38-.11a2.77 2.77 0 0 0 2.04-3.08 2.76 2.76 0 0 0-2.76-2.45 8.4 8.4 0 0 0-1.23 0c-.53.06-.77-.18-.97-.63a25.05 25.05 0 0 0-2.73-4.74l-.62-.92-1.13 1.01c2.3 2.84 3.66 6.08 4.9 9.52H37.52v1.41h2.86l9.12.01c.25 0 .65.1.7.27.31.82.58 1.65.84 2.49l.24.77a25.99 25.99 0 0 0-7.55 5.2 1.5 1.5 0 0 1-.96.32l-9.9.01c-5.94 0-11.88 0-17.82.03-1.36.01-2.39-.25-3.39-1.25a21.08 21.08 0 0 0-6.52-4.31l.28-.86c.21-.64.42-1.28.6-1.92.15-.58.41-.78 1.03-.78 2.72.03 5.44.03 8.16.02h3.68V24.8H6.92l-.01-.08c-.01-.05-.02-.08 0-.1 1.14-3.16 2.43-6.25 4.53-8.92a7.55 7.55 0 0 1 4-2.83c1.2-.32 2.4-.58 3.6-.76 1.08-.16 2.17-.27 3.24-.37l1.4-.15V10.2c-2.78.16-5.46.43-8.1 1.1a9.38 9.38 0 0 0-5.47 3.78l-.14.2c-.76 1.07-1.54 2.16-2.04 3.36-.62 1.5-1.4 2.22-3.11 2.04-1.28-.14-2.36 1.04-2.54 2.32zm1.4 18.07h49.1v2.89a169.37 169.37 0 0 0 0 2.24c-.02 1.33-.48 1.79-1.8 1.79H5.74c-1.7 0-2.07-.37-2.07-2.1v-4.82zm40.04 8.41v1.65a141 141 0 0 0 .01 4.1c.02.72.64 1.17 1.48 1.17h6c1 0 1.52-.5 1.56-1.5.02-.67.02-1.33.01-2v-3.66c-1.8.25-3.56.22-5.33.2-1.24-.02-2.48-.04-3.73.04zm-34.74-.04c1.24-.02 2.5-.04 3.75.04h.01v1.31c0 1.48 0 2.93-.02 4.38-.02.69-.6 1.24-1.29 1.22-2.15.02-4.3.02-6.44 0a1.27 1.27 0 0 1-1.3-1.3c-.02-1.4-.01-2.8 0-4.19v-1.67c1.76.26 3.52.23 5.3.2zM4.7 31.16L3.6 39.5H14.4c-2.4-3.76-5.65-6.33-9.72-8.35zm47.06 0l1.12 8.38H42.03c2.4-3.8 5.67-6.36 9.72-8.38zm-22.77 8.35h6.87v-2.67h-6.87v2.67zm-1.54 0h-6.87v-2.68h6.87v2.68zm14.6-2.67h-4.62v2.72H40.06a.65.65 0 0 0 .46-.26 186.8 186.8 0 0 1 1.51-2.46zm-23 0v2.72h-2.7a.5.5 0 0 1-.36-.17c-.4-.61-.77-1.23-1.16-1.88l-.4-.67h4.61zM6.3 22.07h-.52c-.33-.01-.61-.02-.9.01a1.36 1.36 0 0 0-.09 2.68c.18.02.49-.1.55-.25.25-.56.47-1.14.7-1.77l.26-.67zm44.08.65l-.25-.65h.52c.34 0 .64-.02.94.01a1.3 1.3 0 0 1 1.16 1.34c0 .67-.5 1.28-1.15 1.35-.17.01-.45-.1-.5-.23-.26-.58-.48-1.18-.72-1.82z"/><path fill-rule="evenodd" clip-rule="evenodd" d="M28.82 28.57v.04l-.02-.02.02-.02zm0 0c.2-.14.37-.3.54-.48l14.67-17.34L46 8.44h-8L41.79.8h-2.25L33.27.8c-.53 0-.8.14-1.04.64-1.57 3.18-3.16 6.35-4.75 9.52l-1.67 3.34-.2.44-.11.29h7.73l-.08.25-.11.38c-1.25 3.72-2.49 7.44-3.72 11.17-.13.4-.24.8-.35 1.22l-.15.53zm3.74-6.5l-.1-.06 2.8-8.5h-7.41c.05-.1.1-.2.13-.3l.2-.42 1.77-3.56c1.07-2.13 2.14-4.26 3.18-6.4.23-.46.5-.6 1-.6 1.24.03 2.48.02 3.78.02h1.54l-3.8 7.62h7.23l-10.32 12.2z"/><path d="M28.8 28.59c.6.69 1.2 1.39 1.84 2.06.05.06.35-.06.5-.14 1.2-.58 2.38-1.19 3.57-1.76.22-.1.54-.18.73-.09 1.56.75 3.1 1.54 4.69 2.33l-.65 1.29c-1.2-.6-2.4-1.16-3.54-1.8-.56-.3-1-.28-1.54 0-1.14.63-2.32 1.17-3.47 1.77-.37.2-.66.26-.92-.13a.67.67 0 0 0-.1-.1c-.64-.6-1.2-1.56-1.95-1.74-.75-.17-1.67.45-2.52.73-1.26.41-2.51.84-3.77 1.23-.25.09-.5.09-.75 0-1.52-.72-3.02-1.49-4.6-2.27l.65-1.3c1.29.65 2.52 1.3 3.78 1.87.38.16.8.18 1.2.08 1.62-.49 3.2-1.05 4.72-1.55-.7-1.02-1.42-1.98-2.03-3.02-.6-1.04-1.1-2.19-1.68-3.34l1.28-.66c.68 1.37 1.25 2.76 2.05 4 .61.96 1.52 1.72 2.32 2.55.03.04.14 0 .2 0l-.01-.01zM49.47 8.83l-.82-.77L55.6 1.1l.79.83-6.92 6.9zM7.72 8.1l-.77.8L0 1.94l.84-.78L7.72 8.1zM15.63 45.18v-1.34H40.8v1.34H15.63zM9.22 45.42c-.53-.08-.87-.38-.86-.95 0-.56.37-.87.91-.92.5-.04.98.49.92.99-.06.54-.39.84-.97.88zM48.1 44.53c-.04.48-.3.83-.88.87a.92.92 0 0 1-.97-.93c.04-.55.37-.88.92-.92.47-.03.91.42.93.98z"/></svg>