<svg viewBox="0 0 79 26" xmlns="http://www.w3.org/2000/svg"><path clip-rule="evenodd" d="M20.79 1.13H5.23c-2.41 0-4 1.97-3.84 4.9.2 3.83.7 7.6 1.73 11.23.64 2.26 1.48 4.41 2.9 6.13 1 1.19 2.12 1.86 3.6 1.85 8.93-.05 17.86-.02 26.8-.02 1.72 0 2.76-1.26 2.76-3.37V4.59c0-2.24-1.02-3.47-2.85-3.47H20.8zM58.9 1.13H43.4c-1.93 0-2.9 1.17-2.9 3.51V19c0 1.07.04 2.14 0 3.21-.08 1.74 1.43 3.04 2.67 3.03 8.92-.04 17.84-.06 26.76 0 1.7.02 2.95-.82 4.02-2.25a17.74 17.74 0 0 0 2.68-6.02A55.1 55.1 0 0 0 78.3 6.2c.2-2.87-1.4-5.07-3.78-5.07h-15.6z"/><path d="M18.31 12.56V4.82c0-.88.1-1 .8-1h.25c.75 0 .85.12.85 1.01v15.73c0 .44-.18.68-.55.69-1.38.03-1.36.05-1.35-1.5v-7.19zM13.26 12.53v-7.8c0-.8.11-.91.76-.92h.26c.77 0 .86.1.87 1.04v15.48c0 .77-.14.91-.78.91h-.35c-.66 0-.76-.12-.76-.91v-7.81zM10.08 12.6v7.67c0 .88-.09.98-.82.98-1.08 0-1.08 0-1.08-1.3V4.77c0-.81.13-.96.79-.96h.4c.57 0 .7.17.7.87v7.91zM23.36 12.79V5.4c0-1.05.25-1.22 1.04-.77.17.1.37.14.5.29.15.17.33.43.33.65.02 5 .02 10 .02 15 0 .43-.17.64-.51.67h-.05c-1.27.11-1.33.04-1.33-1.52v-6.95zM30.32 14.7v5.6c0 .84-.11.95-.8.95-1.08 0-1.08 0-1.08-1.3V8.37c0-.94.25-1.08.97-.68.69.4.97.93.93 1.89-.07 1.7-.02 3.4-.02 5.11zM33.49 16.28c0-1.26-.02-2.52 0-3.77.01-.25.15-.63.29-.68.18-.07.45.09.64.24.43.36.56.87.55 1.52-.04 1.73-.01 3.45 0 5.17 0 .72-.12 1.4-.6 1.87-.14.15-.43.29-.56.2-.16-.1-.3-.42-.31-.66-.03-1.3-.02-2.6-.01-3.9zM4.8 15.55l-.2-.61c-.61-3.01-.83-6.08-1-9.16 0-.27-.01-.53-.03-.8-.04-.93.14-1.13.9-1.17.45-.02.56.15.56.68-.02 3.48 0 6.96-.01 10.43l-.05.6-.16.03zM33.16 4.18c0-.35.12-.68.32-.92s.48-.37.76-.37c.58.04 1.03.6 1.05 1.3 0 .46-.2.89-.53 1.12a.9.9 0 0 1-1.07 0 1.36 1.36 0 0 1-.53-1.12v-.01zM70.49 12.54v7.8c0 .8-.1.9-.75.9-1.15 0-1.15 0-1.15-1.36V4.84c0-.9.1-1.02.83-1.02h.3c.64 0 .77.15.77.92v7.8zM63.54 12.55V4.74c0-.8.11-.92.76-.93 1.12 0 1.13.01 1.13 1.4v15.06c0 .84-.1.97-.82.97h-.25c-.75 0-.82-.08-.82-1.02v-7.68zM60.36 12.53v7.81c0 .78-.12.92-.76.92-1.12 0-1.13-.01-1.13-1.35l.01-14.99c0-.34.13-.95.28-.98.45-.11.94-.05 1.4.05.11.02.19.49.19.75v7.8zM55.3 12.83v7.5c0 .78-.11.92-.76.92h-.3c-.72 0-.83-.13-.83-.98.01-3.58.03-7.15.03-10.73 0-1.24 0-2.48-.04-3.72-.01-.52.13-.85.54-1.02.23-.1.45-.27.69-.37.4-.15.67.1.67.6v7.8zM50.26 16.49v3.84c0 .75-.14.91-.77.92-1.12 0-1.13 0-1.12-1.33 0-2.58.03-5.16.03-7.73 0-1.06 0-2.11-.04-3.17-.01-.5.1-.82.48-1.02.38-.19.72-.76 1.17-.45.46.3.24.92.24 1.4.02 2.52 0 5.03 0 7.54zM73.69 15.5c-.01-.28-.04-.55-.04-.82V4.57c0-.38-.1-.79.44-.76.74.03 1.02.18 1.02.8 0 .73-.03 1.46-.1 2.19l-.9 7.95c-.04.27-.15.53-.23.8l-.2-.05zM45.18 13.88c0 2.05 0 4.1-.02 6.14 0 .29-.2.57-.32.86-.23-.15-.52-.24-.7-.45-.49-.57-.39-1.35-.4-2.06-.03-1.77-.01-3.53 0-5.3 0-.4.54-1.23.84-1.3.35-.09.57.1.58.53.02.53 0 1.06 0 1.59h.02zM44.42 5.47c-.6-.03-1.05-.64-1.03-1.36.01-.35.14-.68.36-.9.22-.24.5-.35.79-.32.57.07 1 .66.99 1.36-.04.69-.57 1.27-1.11 1.22z"/></svg>