<svg viewBox="0 0 70 70" xmlns="http://www.w3.org/2000/svg"><path fill-rule="evenodd" clip-rule="evenodd" d="M.67 55.17c0-.46.38-.83.84-.83 3.67 0 5.35-3.12 7.48-7.06 2.93-5.41 6.56-12.14 17.08-13a.83.83 0 0 0 .68-1.13l-4.3-11.4c-1.34.46-2.75.7-4.17.72H1.5a.84.84 0 1 1 0-1.67h16.77c1.22-.02 2.43-.23 3.59-.62l-4.2-11.23L1.34 5.69a.84.84 0 0 1-.67-1 .82.82 0 0 1 1-.56L18.44 7.5c.07.01.14.04.2.07l13.42 6.7a.83.83 0 0 1 .23 1.35 29.64 29.64 0 0 1-8.26 5.63l4.28 11.4a2.52 2.52 0 0 1-2.1 3.36c-9.64.77-12.83 6.68-15.68 11.96l-.07.12-.04.09C8.22 52.2 6.17 56 1.5 56a.84.84 0 0 1-.84-.84zm29.56-40.04l-10.41-5.2 3.62 9.64a28.22 28.22 0 0 0 6.8-4.44z"/><path d="M.67 1.44a.84.84 0 0 0 .77.9l35.1 3.2-.91.91a2.54 2.54 0 0 0 0 3.54l10.81 10.8h-8.05a.84.84 0 0 0-.59 1.43l6.7 6.71c.16.16.38.25.6.25h1.12a.84.84 0 1 0 0-1.68h-.76l-5.03-5.03h7.69l2.19 2.2c.34.33.87.33 1.2 0a.95.95 0 0 0-.09-1.26L36.8 8.8a.85.85 0 0 1 0-1.16l2.19-2.18a.84.84 0 0 0-.5-1.43L1.58.67a.8.8 0 0 0-.92.77zm.83 57.93h6.72A4.2 4.2 0 0 0 12.36 56h1.8a14.26 14.26 0 0 0 14.21 13.42c3.56 0 7-1.35 9.6-3.78a.85.85 0 1 0-1.14-1.25 12.42 12.42 0 0 1-8.49 3.35 12.58 12.58 0 1 1 1.6-25.03c.45.07.88-.23.97-.67a.84.84 0 0 0-.67-.98c-.63-.1-1.26-.16-1.9-.15a14.26 14.26 0 0 0-14.21 13.42h-1.7c.1-1.9.52-3.76 1.25-5.51a15.86 15.86 0 0 1 10.66-9.1c2.88-.71 5.89-.63 8.72.22a.85.85 0 0 0 1.06-.56.84.84 0 0 0-.56-1.05 18.24 18.24 0 0 0-9.64-.25 17.35 17.35 0 0 0-13.19 17.18 2.52 2.52 0 0 1-2.55 2.42h-6.7a.84.84 0 0 0 0 1.68h.03z"/><path d="M26.68 45.25a.85.85 0 0 0-1.02-.62 10.89 10.89 0 0 0 2.69 21.46c2.31 0 4.56-.74 6.43-2.1a.84.84 0 1 0-1-1.34 9.21 9.21 0 1 1-7.72-16.36.84.84 0 0 0 .62-1.04z"/><path d="M26.26 52.44a.85.85 0 0 0-1.19.12c-.41.51-.7 1.12-.83 1.78h-2.6a.84.84 0 1 0 0 1.67h2.6c.1.53.3 1.03.58 1.48l-1.81 1.84a.84.84 0 1 0 1.19 1.18l1.83-1.83c.45.3.95.5 1.48.6v2.6a.84.84 0 1 0 1.68 0v-2.6c.4-.08.8-.22 1.15-.42a.84.84 0 0 0-.2-1.54.83.83 0 0 0-.63.09 2.5 2.5 0 0 1-3.13-3.77.84.84 0 0 0-.12-1.2z"/><path fill-rule="evenodd" clip-rule="evenodd" d="M40.92 31.7a4.2 4.2 0 1 1-8.39 0 4.2 4.2 0 0 1 8.39 0zm-1.68 0a2.52 2.52 0 1 0-5.03 0 2.52 2.52 0 0 0 5.03 0z"/><path d="M18.28 25.83a.84.84 0 1 0 0-1.68h-6.7a.84.84 0 1 0 0 1.68h6.7z"/><path fill-rule="evenodd" clip-rule="evenodd" d="M68.59 20.8H55.17a.84.84 0 0 0-.83.83V68.6c0 .46.37.84.83.84H68.6c.46 0 .84-.38.84-.84V21.63a.84.84 0 0 0-.84-.84zm-.84 46.95H56.01v-8.38h11.74v8.38zM56.01 57.7h11.74v-8.4H56.01v8.39zm11.74-10.06H56.01v-8.39h11.74v8.39zM56.01 37.56h11.74V22.47H56.01v15.1z"/><path fill-rule="evenodd" clip-rule="evenodd" d="M66.07 28.34a4.2 4.2 0 1 1-8.38 0 4.2 4.2 0 0 1 8.38 0zm-1.67 0a2.52 2.52 0 1 0-5.03 0 2.52 2.52 0 0 0 5.03 0z"/><path d="M40 50.55a.84.84 0 1 0 1.29-1.08l-5.66-6.77 6.43-5.36 2.64 3.17a.84.84 0 0 0 1.3-1.07l-2.64-3.22 9-7.54a.84.84 0 1 0-1.07-1.28L26.16 48.43a.83.83 0 0 0-.07 1.21L34.7 59.9a.83.83 0 0 0 1.17.11l1.58-1.3a.84.84 0 1 0-1.07-1.3l-.93.78-7.55-9.01 6.44-5.37L40 50.55zm12.78-18.57a.84.84 0 0 0-1.11.4L38.05 61.64a.84.84 0 0 0 .4 1.12l12.14 5.67a.84.84 0 0 0 1.12-.4l.87-1.89a.84.84 0 1 0-1.53-.7l-.51 1.11-10.62-4.96L43.45 54l7.85 3.64a.86.86 0 0 0 1.24-.27.83.83 0 0 0-.38-1.18l-8-3.71 3.55-7.62 3.76 1.75a.84.84 0 1 0 .7-1.52l-3.76-1.76 4.77-10.24a.84.84 0 0 0-.4-1.11z"/></svg>