<svg viewBox="0 0 60 70" xmlns="http://www.w3.org/2000/svg"><path d="M13 66.66c-.22.87-.43 1.7-1.46 2.01v.62l.44.16c.33.14.67.27 1 .27 2.28 0 4.56 0 6.83-.02 4.48-.02 8.95-.05 13.42.1 3.97.11 7.68-.37 11.09-2.45 1.38-.84 2.48-.7 3.67.34.55.49 1.2.88 1.83 1.27l.64.39.08.05.03.01c.23.15.5.3.74.3 2.45.04 4.9.05 7.35 0 .33-.05.61-.27.76-.56.07-.15-.09-.4-.23-.62l-.11-.18c-.07-.13-.17-.26-.26-.38a1.62 1.62 0 0 1-.36-.66l-.39-2.25c-.6-3.48-1.2-6.95-1.64-10.45-.2-1.58-.83-2.38-2.32-2.59-2.39-.34-3.79-1.59-3.84-4.11 0-.17-.05-.33-.1-.5-.05-.14-.1-.29-.1-.43-.13-1.98-1.26-3.19-2.93-4.07-.68-.35-1.16-.38-1.74.09-.47.38-.96.74-1.49 1.12l-.72.53c-.56-2.17-1.28-4.1-3.4-4.94-.54-.22-1.24-.37-1.76-.22-2.1.62-4.18 1.32-6.24 2.09-.57.23-1.05.63-1.37 1.15-.77 1.32-1.48 2.66-2.21 4.05l-.78 1.46-.84-1.07c-.62-.8-1.23-1.57-1.81-2.36-.48-.64-.93-.76-1.6-.28-1.28.9-2.57 1.78-3.9 2.6a2.84 2.84 0 0 0-1.34 1.8l-2.34 8.4c-.85 3.02-1.7 6.06-2.53 9.1l-.07.23zm39.14-10.99l-.68-2.92.83.27c.75.25 1.43.47 2.1.72.2.1.35.3.4.52.6 3.68 1.2 7.36 1.78 11.07v.03l.45 2.83H55.2l-.11-.51c-.09-.41-.17-.83-.35-1.2-.1-.2-.35-.35-.6-.5-.1-.06-.21-.12-.3-.2l-.2.32c-.14.23-.29.46-.3.7-.03.3.05.62.13.94l.1.44c-1.17.15-2.2.13-3.15-.64a21.88 21.88 0 0 0-3-2c-.41-.23-.87-.34-1.34-.46l-.61-.16-.17.33-.83-1.24c-.75-1.1-1.5-2.22-2.22-3.35a1.63 1.63 0 0 1-.17-1.01c.34-2.6-.5-4.95-1.35-7.3l-.27-.74c-.08-.21-.35-.36-.61-.52-.13-.07-.25-.14-.36-.22-.05.13-.11.25-.18.38-.15.29-.3.58-.24.83.1.5.27.97.44 1.45.16.46.33.92.43 1.39.24 1.05.42 2.12.62 3.31l.29 1.7c-3.07-.84-5.74-1.04-8.47.69l.43-2.01a1301.7 1301.7 0 0 1 .9-4c.07-.55.14-1.2-.58-1.22-.3-.01-.8.53-.9.91-.19.75-.34 1.5-.5 2.27a27.84 27.84 0 0 1-.83 3.41c-.69 2.03-1.44 4.13-2.65 5.85-.83 1.18-2.1 2.5-3.9 2.39a2.93 2.93 0 0 1-1.57-.66 20.46 20.46 0 0 1-2.13-2.08c-.53-.57-1.04-.62-1.7-.23-1 .6-2.03 1.17-3.12 1.77l-1.6.9.24-.88.67-2.41 1-3.55c1.07-3.83 2.14-7.66 3.25-11.48.17-.52.5-.97.93-1.3a46.3 46.3 0 0 1 2.4-1.63l1.01-.66.42.53c.77.96 1.5 1.9 2.2 2.86.15.2.07.66-.06.92-.23.48-.49.94-.74 1.4-.38.7-.75 1.38-1.06 2.1-.43 1.08-.76 2.2-1 3.33-.03.19.15.42.33.66l.22.31.34-.2c.26-.15.51-.3.54-.49.24-1.81 1.1-3.37 1.95-4.92l.66-1.2c1.3-2.48 2.6-4.96 3.98-7.4.31-.48.77-.86 1.3-1.07 1.19-.45 2.4-.85 3.61-1.25l1.22-.4a2.77 2.77 0 0 1 3.3 1.62l.94 2.49c.34.93.68 1.86 1.04 2.78l.04.11c.19.5.4 1.07 1.12.77.67-.28.5-.8.32-1.3l-.05-.16-.1-.3c-.17-.45-.35-.97-.2-1.14a9.1 9.1 0 0 1 2.3-1.68c.4-.22 1.79 1.16 1.95 1.82l.6 2.5c.62 2.57 1.24 5.15 1.9 7.71.06.25.32.44.59.63l.35.27.14-.33c.13-.3.26-.59.37-.9.02-.07-.02-.16-.05-.26l-.06-.15zM28.1 68.02l.11.23c.86 0 1.73-.01 2.59-.03 1.97-.02 3.94-.05 5.9.06 1.84.1 3.34-.61 4.88-1.33.75-.36 1.52-.72 2.33-1l-.62-.94a97.45 97.45 0 0 0-2.15-3.18 1.69 1.69 0 0 0-.96-.54l-.2-.04c-.86-.2-1.75-.4-2.63-.4-.65 0-1.29.12-1.92.26l-.85.16c-1.99.32-3.21 1.43-3.91 3.34-.5 1.34-1.07 2.74-2.57 3.4zm-7 .2c-1.41-1.8-2.07-1.79-3.84 0h3.83z"/><path d="M37.2 46.6c.2-.23.38-.62.63-.66.33-.02.65.14.84.4.29.57.48 1.18.58 1.8 0 .33-.18.64-.46.81-.21.08-.73-.12-.85-.34-.31-.59-.48-1.25-.75-2zM24.25 60.63c-.18.78-.25 1.39-.47 1.94-.1.25-.6.57-.77.5a1.1 1.1 0 0 1-.6-.81c.01-.6.14-1.2.36-1.75.1-.25.55-.55.78-.51.28.05.5.44.7.63zM51.97 61.48c.2-.21.39-.6.64-.64.25-.04.74.19.83.42.26.61.41 1.27.47 1.93.02.24-.34.62-.61.72-.2.07-.67-.17-.75-.38-.25-.6-.37-1.27-.58-2.05z"/><path d="M16.47 21.94a1 1 0 0 1 1.02-.57m-1.02.57l1.02-.57m-1.02.57l-.9-.44 1.92-.13m-1.02.57l-4.2 8.77a1 1 0 0 0 .18 1.11l5.46 5.83a1 1 0 0 0 1.13.23l6.53-2.9a1 1 0 0 0 .58-.78l1.52-10.62a1 1 0 0 0-.87-1.13l-9.31-1.08M40.49 19.63l3.44-3.88a.96.96 0 0 1 1.38-.06l4.52 4.23c.24.23.35.56.28.89l-.76 3.92c-.08.4-.4.7-.81.77l-4.42.63a.96.96 0 0 1-.98-.48l-2.77-4.9a.96.96 0 0 1 .12-1.12zM29.3 2.4a.96.96 0 0 1 1.23-.62l5 1.73c.3.11.55.37.62.7l.75 3.28c.1.4-.07.81-.42 1.03l-3.2 2a.96.96 0 0 1-1.08-.03L28.32 7.6a.96.96 0 0 1-.34-1.06l1.31-4.15zM3.08 60.39a.66.66 0 0 1 .83-.43h.02l4.23 1.47c.22.08.38.26.43.48l.97-.22-.97.22.64 2.78a.66.66 0 0 1-.3.7l-2.7 1.7a.66.66 0 0 1-.75-.02L2.2 64.63a.66.66 0 0 1-.23-.73l1.1-3.51z"/></svg>