<svg viewBox="0 0 781 445" fill="none" xmlns="http://www.w3.org/2000/svg"><path opacity=".6" fill-rule="evenodd" clip-rule="evenodd" d="M665.6 405.34a46.43 46.43 0 0 0 14.84 2.48l3.13 19.78c2.63 16.57 6.15 15.77 23.49 15.55l40.03-.55c16.94-.23 23.21-.54 25-19.06 3.46-36.16 2.09-73.36 1.61-109.56.35-24.3 4.17-104.36-4.17-116.34-4.81-6.9-10.04-13.53-14.94-20.38-.67-4.71 0-6.5-3.77-9.23-7.84-5.65-14.59-9.36-21.68-16.05l3.28-7.2c1.66-3.64 2.46-4.47 6.5-4.8 9.94-.84 25.86-1.94 33.11-5.05 4.17-1.75 8.34-4.63 7.55-8.46l-1.32-5.69c-1.12-4.92-2.08-6.94-6.41-9.73-10.93-7.17-24.01-12.7-37.18-13.09-8.17-.25-13.11 1.94-15.13 13.15a49.85 49.85 0 0 0 0 21.57 44.07 44.07 0 0 1-2.48 7.09l-7.75-7.26c-14.9-33.34-36.53-87.81-66.48-111.7a24.3 24.3 0 0 0-15.78-5.87c-94.57-17.78-224.52-17.78-319.11 0a24.3 24.3 0 0 0-15.65 5.85c-29.93 23.89-51.54 78.32-66.46 111.68l-7.73 7.28a43.99 43.99 0 0 1-2.48-7.09 49.82 49.82 0 0 0 0-21.57c-2.08-11.21-6.96-13.4-15.13-13.15-13.15.36-26.25 5.88-37.18 13.05-4.16 2.79-5.29 4.81-6.41 9.73l-1.32 5.69c-.87 3.83 3.42 6.69 7.55 8.46 7.25 3.08 23.15 4.17 33.11 5.04 4.04.34 4.84 1.17 6.5 4.82l3.27 7.19c-7.08 6.69-13.83 10.42-21.67 16.04-3.8 2.73-3.1 4.54-3.77 9.23-4.9 6.86-10.13 13.5-14.94 20.38-8.34 11.99-4.6 92.05-4.17 116.35-.48 36.2-1.85 73.4 1.6 109.55 1.78 18.53 8.07 18.76 25.01 19.07l40.03.54c17.34.23 20.84 1.02 23.5-15.54l3.12-19.78a46.4 46.4 0 0 0 14.83-2.48l396.06.06z" fill="#363745" stroke="#fff" stroke-width="1.42"/><path opacity=".8" fill-rule="evenodd" clip-rule="evenodd" d="M667 397c23-1 52-.5 89.5-2.5 10.45-.56 17.21-43.93 16.73-80.12.36-24.3 4.17-104.37-4.17-116.35-4.81-6.9-10.04-13.52-14.94-20.38-.67-4.71 0-6.5-3.77-9.23-7.84-5.65-14.59-9.36-21.67-16.05l3.27-7.19c1.66-3.65 2.46-4.48 6.5-4.81 9.94-.84 25.86-1.94 33.11-5.05 4.17-1.75 8.34-4.62 7.55-8.46l-1.32-5.69c-1.12-4.91-2.08-6.93-6.41-9.73-10.92-7.17-24.01-12.69-37.18-13.08-8.17-.25-13.1 1.93-15.13 13.15a49.82 49.82 0 0 0 0 21.56 43.99 43.99 0 0 1-2.48 7.09l-7.75-7.25c-14.9-33.35-36.53-87.82-66.48-111.7a24.3 24.3 0 0 0-15.78-5.88c-94.57-17.77-224.52-17.77-319.1 0a24.3 24.3 0 0 0-15.66 5.86C261.9 45.07 240.3 99.5 225.36 132.87l-7.73 7.27a43.95 43.95 0 0 1-2.48-7.09 49.82 49.82 0 0 0 0-21.57c-2.08-11.2-6.96-13.4-15.13-13.14-13.15.35-26.25 5.87-37.17 13.04-4.17 2.8-5.3 4.81-6.42 9.73l-1.31 5.7c-.88 3.83 3.41 6.68 7.54 8.45 7.25 3.09 23.15 4.17 33.11 5.05 4.04.33 4.84 1.16 6.5 4.8l3.28 7.2c-7.09 6.69-13.84 10.42-21.68 16.04-3.79 2.74-3.1 4.55-3.77 9.24-4.9 6.85-10.13 13.5-14.94 20.38-8.34 11.98-4.6 92.05-4.17 116.34-.48 36.2 3.51 28.19 6.51 66.19 1.46 18.54 22.06 14.19 39 14.5l460.5 2z" fill="#516EE4" stroke="#fff" stroke-width="1.42"/><path fill-rule="evenodd" clip-rule="evenodd" d="M187 194.5l62.5 7 57.5 25-30.5 23.5-51.5-3-45.5-8.5 7.5-44zM749 195.12l-62.5 7-57.5 25 30.5 23.5 51.5-3 45.5-8.5-7.5-44z" fill="#363745"/><path clip-rule="evenodd" d="M204.01 215.93h19.57a3.75 3.75 0 0 1 3.73 3.73V228a3.75 3.75 0 0 1-3.73 3.73h-19.57a3.75 3.75 0 0 1-3.73-3.73v-8.34a3.75 3.75 0 0 1 3.73-3.73z" stroke="#fff" stroke-width=".71"/><path clip-rule="evenodd" d="M223.52 213.45h-19.5a6.25 6.25 0 0 0-6.23 6.23v8.34a6.25 6.25 0 0 0 6.23 6.23h19.56c3.45 0 6.25-2.8 6.25-6.25v-8.34c0-3.45-2.8-6.25-6.25-6.25l-.06.04zM691.55 222.46h-19.57a3.75 3.75 0 0 0-3.73 3.73v8.33a3.75 3.75 0 0 0 3.73 3.73h19.57a3.75 3.75 0 0 0 3.73-3.73v-8.33a3.75 3.75 0 0 0-3.73-3.73z" stroke="#fff" stroke-width=".71"/><path clip-rule="evenodd" d="M671.98 219.96h19.57a6.25 6.25 0 0 1 6.23 6.23v8.33a6.25 6.25 0 0 1-6.23 6.23h-19.57a6.25 6.25 0 0 1-6.25-6.25v-8.33c0-3.46 2.8-6.25 6.25-6.25v.04z" stroke="#fff" stroke-width=".71"/><path clip-rule="evenodd" d="M743.34 224.52l-2.63 1.15-1.64-16.8c-33.08 4.81-65.86 10.42-98.83 15.92l-4.33 2.5c7.15 5.15 12.07 9.57 19.28 13.46a16.49 16.49 0 0 0 11.19 2.71l73.16-6.04c3.26.05 6.48-.67 9.4-2.08l3.5 1.9c-4.33 2.33-6.25 2.39-11.17 2.8l-74.85 6.05c-4.4.72-8.9-.34-12.5-2.96-8.07-4.55-15.59-10-22.43-16.23l10.63-5.94c31.26-5.73 64.98-11.9 96.74-16.68 2.81-.41 3.93.6 4 2.53l.48 17.71z" stroke="#fff" stroke-width=".71"/><path clip-rule="evenodd" d="M731.08 215.93h-19.57a3.75 3.75 0 0 0-3.73 3.73V228a3.75 3.75 0 0 0 3.74 3.73h19.56a3.75 3.75 0 0 0 3.73-3.73v-8.34a3.75 3.75 0 0 0-3.73-3.73z" stroke="#fff" stroke-width=".71"/><path clip-rule="evenodd" d="M711.51 213.45h19.57a6.25 6.25 0 0 1 6.23 6.23v8.34a6.25 6.25 0 0 1-6.23 6.23h-19.57a6.25 6.25 0 0 1-6.25-6.25v-8.34c0-3.45 2.8-6.25 6.25-6.25v.04zM572.5 318.74l-.6 9.83-2.49-.14.6-9.84 2.49.15z" stroke="#fff" stroke-width=".71"/><path d="M575.87 263.84l-.58 9.55M572.8 273.24l.6-9.54" stroke="#fff" stroke-width=".71"/><path clip-rule="evenodd" d="M576.87 247.82l-.52 8.31-2.48-.14.52-8.32 2.48.15zM577.87 231.52l-.52 8.67-2.48-.15.52-8.66 2.48.14zM530.38 318.55l-.25 9.9-2.48-.07.25-9.9 2.48.07z" stroke="#fff" stroke-width=".71"/><path d="M531.82 263.51l-.25 9.7M529.09 273.24l.25-9.8" stroke="#fff" stroke-width=".71"/><path clip-rule="evenodd" d="M532.23 247.61l-.2 8.09-2.48-.02.2-8.13 2.48.06zM532.7 230.33l-.26 9.28-2.48-.02.25-9.32 2.48.06zM488.62 318.38l-.09 9.7-2.48-.03.09-9.69 2.48.02z" stroke="#fff" stroke-width=".71"/><path d="M486.62 273.2l.08-9.83M489.18 263.38l-.08 9.84M486.78 255.36l.09-7.94M489.35 247.44l-.09 7.94M486.95 239.25l.1-9.62h2.48l-.1 9.66" stroke="#fff" stroke-width=".71"/><path fill-rule="evenodd" clip-rule="evenodd" d="M225.92 257.13l-9.28-.68a3.9 3.9 0 0 0-4.16 5.08l1.9 8.86a7.9 7.9 0 0 0 6.56 5.96l9.27.75a3.9 3.9 0 0 0 4.17-5.09l-1.9-8.85a7.9 7.9 0 0 0-6.56-6.03z" fill="#363745" stroke="#fff" stroke-width=".71"/><path clip-rule="evenodd" d="M488.5 366.48v.16l-.05 14.43H485.97l.04-14.45v-.14h2.48z" stroke="#fff" stroke-width=".71"/><path fill-rule="evenodd" clip-rule="evenodd" d="M709.14 257.13l9.27-.75a3.9 3.9 0 0 1 4.17 5.09l-1.9 8.85a7.9 7.9 0 0 1-6.56 5.97l-9.27.75a3.9 3.9 0 0 1-4.17-5.09l1.9-8.86a7.9 7.9 0 0 1 6.56-5.96z" fill="#363745" stroke="#fff" stroke-width=".71"/><path clip-rule="evenodd" d="M243.48 222.46h19.57a3.75 3.75 0 0 1 3.73 3.73v8.33a3.75 3.75 0 0 1-3.73 3.73h-19.57a3.75 3.75 0 0 1-3.73-3.73v-8.33a3.75 3.75 0 0 1 3.73-3.73z" stroke="#fff" stroke-width=".71"/><path clip-rule="evenodd" d="M263.05 219.96h-19.57a6.25 6.25 0 0 0-6.23 6.23v8.33a6.25 6.25 0 0 0 6.23 6.23h19.57c3.45 0 6.25-2.8 6.25-6.25v-8.33c0-3.46-2.8-6.25-6.25-6.25v.04zM446.42 318.38l.1 9.7 2.48-.03-.1-9.69-2.48.02z" stroke="#fff" stroke-width=".71"/><path d="M448.44 273.2l-.1-9.83M445.86 263.38l.1 9.84M445.69 247.44l.08 7.94M448.25 255.36l-.08-7.94" stroke="#fff" stroke-width=".71"/><path clip-rule="evenodd" d="M445.5 229.63l.1 9.66 2.48-.04-.1-9.62h-2.48zM404.66 318.55l.27 9.9 2.46-.07-.25-9.9-2.48.07zM403.22 263.51l.25 9.7 2.48.03-.25-9.8-2.48.07zM402.8 247.61l.2 8.09 2.49-.02-.2-8.13-2.49.06zM402.34 230.33l.25 9.28 2.48-.02-.25-9.32-2.48.06zM362.54 318.74l.63 9.83 2.47-.14-.6-9.84-2.5.15zM359.16 263.84l.59 9.55 2.48-.15-.59-9.54-2.48.14zM358.16 247.82l.52 8.31 2.48-.14-.52-8.32-2.48.15zM357.16 231.52l.54 8.67 2.49-.15-.55-8.66-2.48.14zM446.54 366.48l.02.16.02 14.43h2.48l-.02-14.45v-.14h-2.5zM191.7 224.52l2.65 1.15 1.64-16.8c33.07 4.81 65.85 10.42 98.82 15.92l4.34 2.5c-7.15 5.15-12.07 9.57-19.28 13.46a16.49 16.49 0 0 1-11.2 2.71l-73.16-6.04c-3.25.05-6.47-.67-9.4-2.08l-3.5 1.9c4.34 2.33 6.25 2.39 11.17 2.8l74.84 6.11c4.4.72 8.9-.34 12.5-2.96 8.06-4.55 15.58-10 22.42-16.23l-10.63-5.94c-31.25-5.73-64.97-11.9-96.73-16.67-2.81-.42-3.94.6-4 2.52l-.48 17.65z" stroke="#fff" stroke-width=".71"/><path fill-rule="evenodd" clip-rule="evenodd" d="M291 30.12s71.9-11.86 165.5-12c93.6-.13 188 11.5 188 11.5s20.1 32.4 29 49c8.9 16.6 23 48 23 48s-155.65-5.93-256.5-5.5c-100.85.44-201 7.5-201 7.5l23-49 29-49.5z" fill="#363745"/><path d="M655.48 308.02a517.99 517.99 0 0 1 91.7-13.65c12.08-.79 14.06 3.15 14.27 10.42.68 22.93.7 46.12 1.16 69.06" stroke="#fff" stroke-width=".71"/><path d="M736.19 278.85c-39.74 9.42-68.04 14.59-89.07 26.55-14.19 25-28.09 47.37-38.05 74.46l28.6.25c37.5-3.13 73.68-7.03 111.02-11.61l11.53 5.1-2.52-65.06c-.34-8.56-1-11.87-10.32-11.42-27.1 1.32-79.19 8.55-98.36 16.11 16.98-18.27 82.58-30.65 108.2-36.99" stroke="#fff" stroke-width=".71"/><path d="M743.4 369.17l-2.08-7.26c-1.15-4.16-2.38-4.33-6.26-3.96-38.47 3.55-79.62 7.42-120.34 8.13-42.08.73-84.17.54-126.25.44M618.72 359.93c35.8-2.18 70.98-5.81 106.6-9.19 16.52-1.56 16.8-2.27 15.9-20.84l-1.4-27.84" stroke="#fff" stroke-width=".71"/><path d="M616.99 362.37l1.64-2.46 19.28-7.42 15.98-24.88c24.6-16.96 57.02-19.96 85.84-25.53l1.44-1.83 7.42-.42c7.04 3.84 7.5 13.49 9.6 20.84" stroke="#fff" stroke-width=".71"/><path d="M743 394.78l14.67-.84 5.76-4.6 3.14-9.88 3.3-22.09 3.98-32.61" stroke="#fff" stroke-width="1.42"/><path fill-rule="evenodd" clip-rule="evenodd" d="M217.96 320.78a13.5 13.5 0 0 0-3.86-.57 11.88 11.88 0 1 0 0 23.72 12.3 12.3 0 0 0 12.7-11.86c-.13-5.3-3.72-9.9-8.84-11.3z" fill="#363745"/><path d="M217.96 320.78a13.5 13.5 0 0 0-3.86-.57 11.88 11.88 0 1 0 0 23.72 12.3 12.3 0 0 0 12.7-11.86c-.13-5.3-3.72-9.9-8.84-11.3M703.37 317.03l-10.28 20.69c-3.9 7.81-7.44 9.84-16.1 10.75l-39.08 4.17" stroke="#fff" stroke-width=".71"/><path d="M198.85 278.85c39.74 9.42 68.04 14.59 89.06 26.55 14.2 25 28.1 47.37 38.06 74.46l-28.6.25a2829.29 2829.29 0 0 1-111.03-11.61l-11.5 5.1 2.5-65.06c.33-8.56 1-11.87 10.32-11.42 27.09 1.32 79.19 8.55 98.36 16.11-16.99-18.27-82.59-30.65-108.2-36.99" stroke="#fff" stroke-width=".71"/><path d="M279.56 308.02a517.99 517.99 0 0 0-91.7-13.65c-12.08-.79-14.06 3.15-14.27 10.42-.69 22.93-.71 46.12-1.17 69.06" stroke="#fff" stroke-width=".71"/><path d="M316.42 359.93c-35.8-2.18-70.98-5.81-106.6-9.19-16.52-1.56-16.8-2.27-15.9-20.84l1.4-27.84M281.12 327.63a3672.88 3672.88 0 0 0-86.21-17.8" stroke="#fff" stroke-width=".71"/><path d="M318.05 362.37l-1.65-2.46-19.27-7.42-16.01-24.86c-24.59-16.96-57.02-19.96-85.84-25.52l-1.44-1.84-7.41-.42c-7.05 3.84-7.5 13.49-9.61 20.84M330.99 221.81c-34.93-32.63-66.9-65.19-112.39-82.63" stroke="#fff" stroke-width=".71"/><path d="M220.69 137.33c47.93 17 78.02 45.66 110.3 84.48" stroke="#516EE4" stroke-width="4"/><path d="M230.85 194.04a316.04 316.04 0 0 0-44.51-4.92 490.59 490.59 0 0 0-7.34 49.52c26.97 4.98 74.38 9.23 100.99 10.04l31.8-23.71 18.75 4.43 1.8-1.64" stroke="#fff" stroke-width=".71"/><path d="M331.13 230.54l-20.42-5.02a266 266 0 0 0-81.15-28.76" stroke="#fff" stroke-width=".71"/><path d="M222.17 197.87a211.87 211.87 0 0 0-34.58-3.03 369.01 369.01 0 0 0-7.6 43.5l7.35 3.04c31.07 2.7 60.02 7.06 91.47 7.42l29-21.82c-9.1-6-22.8-11.7-34.7-15.53a291.77 291.77 0 0 0-51.05-13.56M720.25 196.76a204.1 204.1 0 0 1 27.09-1.91 369.46 369.46 0 0 1 7.6 43.49l-7.46 3.04c-31.07 2.7-60.01 7.06-91.46 7.42l-28.97-21.84c9.11-6 22.8-11.7 34.7-15.53a286.53 286.53 0 0 1 58.35-14.59M757.53 244.44l-6.25 3.98-115.66 12.86-.5 10.55c14.23 13.81 28.59 15.75 50.01 13.17l74.73-8.96" stroke="#fff" stroke-width=".71"/><path d="M737.67 192.62c4.06-.31 8.17-.57 12.34-.78a490.3 490.3 0 0 1 7.33 49.52c-26.97 4.98-74.38 9.23-100.99 10.04l-31.8-23.71-18.75 4.44-1.8-1.65" stroke="#fff" stroke-width=".71"/><path d="M603.88 230.54l20.42-5.02c35.56-19.59 73.27-29.84 113.37-32.9M567.95 352.01l.96-15.69 2.48.15-.96 15.44M527 352.87l.44-16.73 2.48.06-.44 16.6M485.78 352.95l.17-16.92 2.5.02-.19 16.8" stroke="#fff" stroke-width=".71"/><path d="M579.85 122.45c-26.94 29.17-41.68 57.62-53.14 95.67 20.57-43.63 24.05-58.78 56.27-95.57" stroke="#516EE4" stroke-width="4"/><path d="M630.95 15.27a70.28 70.28 0 0 1 14.1 15.8M627.05 14.94a67.3 67.3 0 0 1 15.28 15.32M716.93 139.72l9.42 12.03 2.84-.15M718.75 129.64c20.2-.17 40.37-1.46 60.43-3.88M718.54 135.7l16.23 5.42M604.13 221.81c34.93-32.63 66.9-65.19 112.28-82.63" stroke="#fff" stroke-width=".71"/><path d="M714.4 137.33c-48.06 17-78.07 45.66-110.27 84.48" stroke="#516EE4" stroke-width="4"/><path d="M750 191.84a31.59 31.59 0 0 0 6.05-12.5M754.44 176.82a74.04 74.04 0 0 1-4.44 15.02M607.28 240.36l-140.38-1.17-139.12 1.17M757.3 241.42l3.02 39.28c2.08 10.71 7.44 33 13.44 28.99" stroke="#fff" stroke-width=".71"/><path d="M759.26 267.01l3.48 2.4 11.98-.94M488.45 381.06l120.62-1.18M653.87 327.63c28.76-6.25 57.31-12.23 86.22-17.8M526.27 380.65l.42-14.11M529.17 366.62l-.42 14.1M566.64 380.23l.58-13.75M569.7 366.58l-.58 13.76M629.85 261.57l-19.26 2.3-143.46-.84-142.69.84-19.25-2.3" stroke="#fff" stroke-width=".71"/><path d="M354.98 122.47c26.94 29.18 41.88 57.62 53.34 95.67-20.56-43.63-24.34-58.78-56.64-95.57" stroke="#516EE4" stroke-width="4"/><path clip-rule="evenodd" d="M238.96 128.76c16.07-38.72 29.32-62.66 51.33-98.2 110.61-15.33 243.82-15.33 354.48 0C666.75 66 680 90.05 696.09 128.77c-138.93-10.87-318.23-10.85-457.13 0z" stroke="#fff" stroke-width=".71"/><path d="M304.04 15.27a70.32 70.32 0 0 0-14.1 15.8M307.96 14.94a67.29 67.29 0 0 0-15.27 15.32M218.1 139.72l-9.42 12.03-2.83-.15M216.23 129.64a542.14 542.14 0 0 1-60.44-3.88M216.5 135.7l-16.24 5.42M185.07 191.84c-2.92-3.66-5-7.93-6.06-12.5M180.6 176.82a74.16 74.16 0 0 0 4.47 15.02" stroke="#fff" stroke-width=".71"/><path clip-rule="evenodd" d="M467.3 353.01h-25.88c-35.2 0-77.75 0-101.14-2.58-2.7-.06-5.35-.85-7.64-2.3a15.84 15.84 0 0 1-4.17-6.93c-4.17-10.23-9.11-25.38-13.49-40.22a355.63 355.63 0 0 1-9.06-36.34 9.29 9.29 0 0 1-.23-3.44 5.97 5.97 0 0 1 1.92-2.38l27.09-24.67a12.5 12.5 0 0 1 3.25-1.86c1.3-.3 2.63-.43 3.96-.4l16.88-.45c36.4-.98 72.14-1.96 108.57-1.88 36.43.09 72.73.9 109.14 1.88l16.88.46c1.33-.04 2.66.09 3.96.4a12.5 12.5 0 0 1 3.25 1.85l27.09 24.67c.83.61 1.5 1.43 1.92 2.38a9.29 9.29 0 0 1-.23 3.44 355.63 355.63 0 0 1-9.07 36.34c-4.38 14.84-9.42 29.99-13.48 40.22a15.83 15.83 0 0 1-4.17 6.94 15.09 15.09 0 0 1-7.65 2.23c-23.38 2.58-65.93 2.58-101.13 2.58-9.73.02-18.67.02-26.57.06z" stroke="#fff" stroke-width=".71"/><path clip-rule="evenodd" d="M467.32 357.98h-25.9c-35.43 0-78.13 0-101.68-2.61a19.15 19.15 0 0 1-10.15-3.25 19.9 19.9 0 0 1-5.8-9.05c-4.16-10.42-9.22-25.71-13.62-40.63a360.56 360.56 0 0 1-9.21-36.93 12.5 12.5 0 0 1-.1-5.58 9.96 9.96 0 0 1 3.35-4.74l27.1-24.77h.22a16.94 16.94 0 0 1 4.77-2.63c1.74-.45 3.53-.65 5.32-.6l16.88-.46c36.4-.98 72.73-1.96 109.26-1.88 36.53.09 72.27.9 108.7 1.88l16.88.46c1.79-.05 3.57.15 5.3.6a16.9 16.9 0 0 1 4.78 2.63h.23l27.1 24.78a9.96 9.96 0 0 1 3.35 4.73 12.5 12.5 0 0 1-.1 5.58 360.22 360.22 0 0 1-9.03 36.78c-4.4 14.92-9.5 30.22-13.63 40.64a19.88 19.88 0 0 1-5.8 9.04c-3 2.02-6.52 3.15-10.14 3.25-23.55 2.6-66.31 2.6-101.68 2.6-9.56.11-18.5.11-26.4.16z" stroke="#516EE4" stroke-width="5.71"/><path d="M322.09 245.55l18.15 2.16 127.68-.62 126.9.62 18.13-2.16M307.25 273.37l160.55-.17 159.98.17M318.55 314.8l29.65 3.79 119.77-.33 118.86.33 29.66-3.8M449.25 352.95l-.17-16.92-2.47.02.16 16.8M408.03 352.87l-.44-16.73-2.48.06.44 16.6M367.1 352.01l-.98-15.69-2.48.15.96 15.44M177.5 244.44l6.26 3.98 115.66 12.86.5 10.55c-14.24 13.81-28.6 15.75-50.02 13.17l-74.73-8.96" stroke="#fff" stroke-width=".71"/><path d="M177.74 241.42l-3.03 39.28c-2.08 10.71-7.44 33-13.44 28.99" stroke="#fff" stroke-width=".71"/><path d="M175.78 267.01l-3.46 2.4-12-.94M446.58 381.06l-120.61-1.18M447.8 381.06h39.44M447.71 366.48h39.6M191.64 369.17l2.08-7.26c1.15-4.16 2.38-4.33 6.25-3.96 38.47 3.55 79.63 7.42 120.35 8.13 42.07.73 84.17.54 126.24.44" stroke="#fff" stroke-width=".71"/><path d="M186.34 368.5l-1.23-18.28a917.39 917.39 0 0 0 134.44 12.28h295.92A917.4 917.4 0 0 0 750 350.22l-1.22 18.38M167.3 371.52l12.54 5.96 121.83 9.54 20.42-1.95h290.86l20.42 1.95 121.82-9.54 12.57-5.96" stroke="#fff" stroke-width=".71"/><path d="M254.6 407.8l-46.81.88c-12.03.23-12.09-3.17-15.76-13.9l66.17 1.29h418.58l66.22-1.31c-3.66 10.75-3.73 14.13-15.75 13.9l-46.8-.88M192.03 394.78l-14.67-.84-5.75-4.6-3.15-9.88-3.29-22.09-3.96-32.61" stroke="#fff" stroke-width="1.42"/><path d="M231.67 317.03l10.3 20.69c3.89 7.81 7.43 9.84 16.08 10.75l39.07 4.17M408.76 380.65l-.42-14.11M405.86 366.62l.42 14.1M368.4 380.23l-.59-13.75M365.33 366.58l.59 13.76M310.02 256.57l157.68-1.46L625 256.57M323.84 328.8l148.86-.81 138.52.81M325.5 334.03l19.26 2.31 127.69-.45 117.82.45 19.26-2.3" stroke="#fff" stroke-width=".71"/><path fill-rule="evenodd" clip-rule="evenodd" d="M717.25 320.74c1.2-.34 2.44-.5 3.68-.5a11.88 11.88 0 1 1-12.6 11.85 12 12 0 0 1 8.98-11.35" fill="#363745"/><path d="M717.25 320.74c1.2-.34 2.44-.5 3.68-.5a11.88 11.88 0 1 1-12.6 11.85 12 12 0 0 1 8.98-11.35" stroke="#fff" stroke-width=".71"/><path fill-rule="evenodd" clip-rule="evenodd" d="M703.28 317.3l-10.27 20.6c-3.9 7.82-7.44 9.84-16.1 10.76l-39.08 4.17 15.98-24.88c28.76-6.36 20.55-5.09 49.47-10.65zM231.67 317.03l10.3 20.69c3.89 7.81 7.43 9.84 16.1 10.75l39.08 4.17-16.03-25c-28.74-6.32-20.53-5.05-49.45-10.61z" fill="#363745" stroke="#fff" stroke-width=".71"/><path d="M117 184.9c-.8.74-4.03 1.21-4.92.67a1.13 1.13 0 0 1-.51-.78c.03-.33.2-.63.47-.82.75-.5 4.15-.07 4.97.59v.35z" fill="#fff"/><path fill-rule="evenodd" clip-rule="evenodd" d="M47.27 171.7a5.63 5.63 0 0 0-1.27-1.56c-1.57-1.2-3.17-2.34-4.78-3.5-1.43-1.02-2.86-2.04-4.27-3.1a3.37 3.37 0 0 1-1.2-1.9c-.93-5.13-1.84-10.26-2.74-15.4-.73-4.18-1.46-8.36-2.21-12.54-.24-1.35.16-1.9 1.47-2.13 8.33-1.46 16.64-2.97 24.95-4.5 1.28-.24 1.9.14 2.12 1.48l1.8 10.47c1 5.78 2 11.55 2.97 17.33.1.84-.08 1.68-.5 2.4-1.88 2.91-3.8 5.8-5.84 8.6a5.03 5.03 0 0 0-.9 4.35l.05.22c.4 1.91.6 2.87 1.18 3.35.59.48 1.56.5 3.5.52h.08c1.12.02 2.23.24 3.29.65 1.75.68 3.48 1.4 5.22 2.12 1.8.75 3.6 1.5 5.43 2.2 1.24.5 1.85 1.13 1.71 2.55-.06.63-.02 1.3.02 1.98.07 1.25.14 2.47-.4 3.26-.57.8-1.75 1.13-2.96 1.48-.61.17-1.23.35-1.78.59a36.5 36.5 0 0 1-18.01 3.06c-1.42-.12-2.86-.09-4.37-.06-.71.01-1.44.03-2.2.03l1.05 4.26.9 3.66c.11.5.24.98.36 1.46.2.75.4 1.5.57 2.26.56 2.48-.35 4.05-2.82 4.66l-.48.12c-3.16.8-6.33 1.59-9.52 2.26-1.21.26-1.85.78-2.27 1.98-.84 2.41-1.71 4.82-2.59 7.22-1.57 4.36-3.15 8.71-4.58 13.1-.53 1.63-.54 3.45-.54 5.23l-.01 1.3c-.08 3.78-1.24 4.83-4.84 4.22-4.57-.76-9.14-1.5-13.7-2.23-4.64-.74-6.43-3.14-5.63-7.88 2.22-13.23 4.45-26.45 6.79-39.65.34-1.94-.03-2.9-1.79-3.74a53.32 53.32 0 0 1-4.24-2.31 85.57 85.57 0 0 0-2.67-1.52c-.93-.5-1.32-1.14-1.28-2.21.03-.73.02-1.46.01-2.2-.01-1-.03-2.02.07-3.03a2.5 2.5 0 0 1 1.19-1.75c1.04-.47 2.11-.87 3.19-1.27 1.01-.38 2.03-.76 3.02-1.2.58-.34.99-.93 1.1-1.6.22-3.49.86-4.28 4.21-4.6l4.95-.49c4.95-.5 9.89-1 14.85-1.25 2.19-.13 4.5.55 6.63 1.27 1.87.63 3.66 1.47 5.46 2.31.74.35 1.49.7 2.24 1.03l.54-.57c-.19-.25-.36-.52-.53-.79zm-21.42 54.8c-2.68-.37-5.32-.75-7.94-1.18-.2-.03-.42-.03-.66-.04-.85-.03-1.81-.05-1.62-1.27.19-1.18 1.15-.93 1.98-.72.22.06.43.11.62.14 3 .37 6 .82 9.05 1.28h.01l2.18.33.3-.72.5-1.29 9.28-25.85c1.37-3.8 3.87-5.53 7.8-5.5h13.03a11.84 11.84 0 0 0 1.66-.13v-13.86h-1.62a77.76 77.76 0 0 0-3.06 0c-2.76.1-5.39-.18-7.95-1.47-2.23-1.13-4.53-2.12-6.83-3.1-1.28-.56-2.56-1.1-3.83-1.68a13.02 13.02 0 0 0-6.85-1.05c-5.85.59-11.71 1.1-17.57 1.61l-.1.01c-3.33.29-3.38.3-3.37 3.7 0 1.25-.37 1.94-1.57 2.29-.89.25-1.75.6-2.6.96-.37.14-.73.3-1.1.43-3.26 1.25-3.26 1.28-3.37 4.74v.22c-.05 1.4.45 2.1 1.6 2.7 1.5.79 2.99 1.64 4.46 2.49 1.11.63 2.22 1.27 3.34 1.88.9.5 1.16 1.07.98 2.1-.94 5.35-1.85 10.7-2.76 16.06l-1.35 7.97-.9 5.26c-.77 4.49-1.54 8.97-2.28 13.46-.45 2.72.78 4.37 3.43 4.8l1.35.22 13.7 2.24c1 .17 1.94.14 1.97-1.19.03-1.53.02-3.06 0-4.61v-2.37l-1.2-.18h-.01l-2.52-.37-2.19-.31c-1.99-.28-3.97-.56-5.95-.91-.3-.06-.55-.4-.8-.74-.11-.15-.23-.3-.35-.43.44-.27.89-.5 1.35-.72.23-.04.46-.02.68.05l2.94.43 7.06 1.03c1.95.3 2.11.17 2.27-2.09l-2.9-.41h-.02c-2.8-.4-5.62-.8-8.41-1.26-.4-.07-.74-.4-1.09-.73-.16-.15-.32-.3-.49-.43.19-.08.38-.19.57-.3.42-.22.84-.46 1.22-.4l.17.02c3.4.4 6.82.8 10.17 1.47 1.8.32 2.22-.45 2.41-2.16l-2.82-.41zm36.39-69.85l-24.69 4.46-4.8-27.6 24.7-4.45.68 3.95-3 .55c-2.69.48-5.3.95-7.92 1.5-.42.08-.78.43-1.13.79a6.4 6.4 0 0 1-.51.46l.6.24c.49.2.98.4 1.43.33 3.03-.47 6.05-1.03 9.22-1.61l1.65-.3 3.77 21.68zm-20.9 7.61c1.42.98 2.73 1.88 3.9 2.92 2 1.74 4.05 2.36 6.56 1.47.4-.14.87-.2 1.33-.27.77-.1 1.5-.2 1.87-.65a88.56 88.56 0 0 0 4.39-6.17l1.84-2.72-21.99 3.96c.73.52 1.43 1 2.1 1.46zm.26 32.97c.66-1.8 1.78-3.07 4.02-3.42l.74 2.9c.8 3.14 1.6 6.24 2.28 9.37.11.51-.53 1.66-1.02 1.8-2.62.73-5.26 1.36-8.05 2.02-.89.21-1.79.42-2.7.65l.4-1.19a133.75 133.75 0 0 1 1.66-4.77c.89-2.46 1.77-4.92 2.67-7.36zm22.6-5.96l4.27-1.45h.01l4.28-1.46h.02c2.66-.92 2.7-.93 2.6-3.82-.01-.67-.23-1.72-.66-1.91a239.6 239.6 0 0 0-7.94-3.36l-2.58-1.05v13.05zm-8.63-15.83c-3.31.93-6.04-.92-6.2-4.35l5.26-.96.94 5.3zM14.35 253.48l1.45.2c1.09.32 1.56-.34 1.7-1.53.18-1.55.42-3.1.67-4.63.15-1-.23-1.54-1.22-1.68-1.97-.28-3.93-.57-5.9-.88-1.03-.16-1.45.38-1.6 1.32l-.73 4.97c-.15 1.03.36 1.5 1.3 1.63l4.33.6zm-3.03-6.47l4.8.75-.55 3.87-1.09-.13c-1.02-.12-2-.23-2.98-.42-.26-.05-.57-.64-.57-.99.04-.7.14-1.4.26-2.18l.13-.9z" fill="#fff"/><path d="M16.64 168.5l-1.07-.94c.43-.35.82-.94 1.3-1.04 1.28-.26 2.57-.38 3.87-.37.5 0 .98.5 1.47.78-.46.39-.87 1.01-1.37 1.13-1.22.27-2.47.28-4.2.43zM102.16 176.38c-.24-.17-.94-.45-.93-.68.05-.5.33-.96.75-1.24.95-.39 1.94-.66 2.95-.8.38-.05.83.35 1.24.56-.26.43-.44 1.08-.81 1.24-.91.4-1.94.58-3.2.92zM87.48 191.28a30.72 30.72 0 0 1-3.33-.97c-.34-.14-.47-.77-.69-1.17.41-.22.85-.67 1.22-.6 1.06.16 2.1.45 3.08.85.4.25.64.68.65 1.14-.07.34-.67.56-.93.75zM102.19 193.16c1.13.26 2.24.58 3.34.97.34.13.45.77.68 1.18-.41.21-.86.65-1.24.6-1-.15-2-.42-2.94-.82a1.68 1.68 0 0 1-.77-1.22c-.03-.24.67-.52.93-.7zM93.3 190.8c1.26.34 2.28.5 3.2.9.39.16.56.82.84 1.25-.42.2-.87.63-1.25.57-1-.13-2-.4-2.93-.79a1.7 1.7 0 0 1-.75-1.26c-.03-.23.67-.52.9-.67zM84.34 181.16c-.26-.24-.76-.5-.85-.88-.08-.28.3-.9.61-1.02 1.06-.4 2.15-.7 3.26-.88.35-.05.9.4 1.08.77.1.19-.31.9-.62 1.01-1.05.4-2.16.64-3.48 1zM110.88 174.06c-.2-.18-.75-.43-.77-.72-.03-.4.25-1.07.56-1.19 1.06-.4 2.16-.68 3.27-.85.33-.05.72.35 1.09.55-.22.41-.35 1.05-.66 1.18-1.15.4-2.31.75-3.49 1.03zM109.44 211.33c-.54.12-1.16.48-1.53.3-.96-.5-1.86-1.12-2.7-1.83a1.16 1.16 0 0 1-.27-1.05c.12-.28.74-.68.88-.59 1.16.7 2.27 1.5 3.37 2.3.11.09.1.33.25.87zM88.14 173.05c-.34.6-.43.92-.63 1.07-.86.68-1.75 1.3-2.7 1.85-.28.16-1.09 0-1.15-.2-.13-.4-.08-1.1.19-1.34.81-.72 1.72-1.33 2.69-1.82.34-.17.95.24 1.6.44zM102.48 163.2c-.38.62-.49.98-.73 1.17-.8.64-1.64 1.22-2.53 1.72-.34.18-.87-.08-1.32-.14.08-.46 0-1.11.26-1.35.8-.72 1.7-1.33 2.66-1.8.36-.18 1 .21 1.67.4zM111.03 195.54c1.25.35 2.2.5 3.09.89.4.17.63.76.94 1.16-.44.23-.91.68-1.33.63a9.89 9.89 0 0 1-2.77-.74c-.4-.17-.64-.76-.96-1.16l1.03-.78zM91.65 198.14c1.11.85 2.22 1.65 3.26 2.53.12.3.09.65-.1.92-.34.21-.9.4-1.19.25a16.08 16.08 0 0 1-2.68-1.85c-.25-.21-.28-.83-.2-1.22.04-.23.5-.36.91-.63zM91.4 171.65c-.35-.7-.84-1.47-.76-1.52 1.12-.91 2.32-1.75 3.5-2.57.28.41.84 1.15.8 1.2-1.06.93-2.17 1.79-3.54 2.9zM86.76 197.27c-1.1-.85-2.2-1.65-3.24-2.53-.14-.12-.08-.77.1-.93.24-.23.8-.43 1.03-.3 1.03.61 2.02 1.3 2.96 2.06.2.16.2.76.08 1.08-.09.24-.5.35-.93.62zM93.2 178.8c-.26-.23-.77-.46-.83-.77-.05-.31.22-.99.5-1.1 1.1-.41 2.25-.73 3.42-.95.43.03.8.28 1 .66.04.42-.14.83-.48 1.08-1.11.42-2.27.69-3.6 1.07zM109.48 158.93c-.64.5-1.24 1.11-1.95 1.49-.78.41-1.64 1.92-2.51.48-.74-1.21.8-1.49 1.44-2.1.42-.37.9-.8 1.42-.9.52-.1 1.03.23 1.55.38l.05.65zM98.7 202.98c1.16.9 2.3 1.73 3.38 2.65.12.1.03.74-.16.9-.26.21-.8.4-1.04.26-1-.57-1.94-1.22-2.83-1.94-.22-.18-.29-.74-.2-1.08.05-.26.45-.44.86-.79zM95.65 183.45c.8.44 2.31.9 2.3 1.29-.1 1.57-1.53.83-2.43.99-.5.1-1.03.1-1.53-.03-.46-.16-.83-.6-1.24-.9.4-.33.74-.78 1.2-.94.44-.16 1.02-.04 1.52-.04l.18-.37zM104.78 186.16c-.98-.49-2.5-.93-2.5-1.3.07-1.75 1.6-1 2.52-1 .9 0 2.44-.76 2.5 1 0 .4-1.53.81-2.52 1.3zM86.1 185.73c-.52 0-1.08.13-1.53-.04-.45-.17-.77-.63-1.15-.96.4-.3.79-.8 1.23-.87.9-.15 1.82-.15 2.71 0 .48.08.88.62 1.32.95-.41.3-.78.7-1.24.89-.4.15-.9.03-1.35.03zM35.23 193.57c-2.24-.98-3.82.48-5.41 2.37-2.53 3-5.3 5.76-7.86 8.72a8.22 8.22 0 0 0-1.62 3.14c-1 3.74-1.81 7.55-2.8 11.3-.17.6-.9 1.04-1.38 1.59-.15-.7-.54-1.47-.4-2.1.92-4.18 1.93-8.37 2.97-12.51.19-.72.54-1.39 1.03-1.94 3.55-3.94 7.1-7.87 10.75-11.72a3.85 3.85 0 0 1 2.33-.94 14.4 14.4 0 0 1 3.75.2c.59.11 1.1.7 1.64 1.07-.58.3-1.14.62-1.74.86-.26.1-.58-.01-1.26-.04zM40 135.8l1.22 1.5c-.9.4-1.78.94-2.74 1.16-.37.09-.9-.52-1.37-.81L40 135.8z" fill="#fff"/></svg>