<svg viewBox="0 0 52 52" stroke="#363745" stroke-width="1" fill="none" xmlns="http://www.w3.org/2000/svg"><path fill-rule="evenodd" clip-rule="evenodd" d="M35.97 6.44c-9.9-2.99-20.4-3.33-30.44-1.02l.04.17.41 1.78c.08.34.08.66-.2.86-.3.2-.53.19-.83.01a53.42 53.42 0 0 0-4.43-2.3.8.8 0 0 1-.37-1.15C1 3.3 1.95 1.85 2.97.42c.22-.31.46-.45.86-.4.4.04.54.33.62.66l.57 2.51a61.55 61.55 0 0 1 31.6 1.06c.62.19 1.05.93.87 1.47-.18.55-.94.9-1.52.72zM43.53 20c1.55 0 2.91.87 3.39 2.17.2.55 4.85 13.4 4.4 17.36-.48 4.12-1.51 8.35-8.3 10.82-2.38.87-4.56 1.3-6.65 1.3-3.57 0-6.93-1.26-10.57-3.95-5.1-3.76-6.48-10.52-4.53-14.23a10.85 10.85 0 0 1 1.41-2.14l-6.63-17.06c-.84-2.32.15-4.64 2.3-5.42.45-.16.9-.25 1.37-.25 1.7 0 3.2 1.14 3.85 2.91l3.99 9.85c.42-.97 1.2-1.7 2.2-2.07a3.68 3.68 0 0 1 4.18 1.24 3.98 3.98 0 0 1 3.42-1.92c1.58 0 3 .93 3.65 2.35.5-.38 1.03-.66 1.25-.74.4-.15.83-.22 1.27-.22z" fill="#fff"/></svg>