<svg xmlns="http://www.w3.org/2000/svg" xmlns:xlink="http://www.w3.org/1999/xlink" width="202.754" height="59.623" viewBox="0 0 202.754 59.623"><defs><clipPath id="a"><path d="M202.754,0H0V59.622H202.754V0Z" fill="none"/></clipPath></defs><path d="M202.754,0H0V59.622H202.754V0Z" fill="none"/><g clip-path="url(#a)"><path d="M172.54,59.622c-2.411,0-3.968-1.7-3.968-4.337a3.8,3.8,0,0,1,3.956-4.154,3.853,3.853,0,0,1,2.955,1.184,4.363,4.363,0,0,1,1.025,2.994,4.63,4.63,0,0,1-1,3.049A3.75,3.75,0,0,1,172.54,59.622Zm-.013-7.558c-2.111,0-2.86,1.778-2.86,3.3,0,2.027,1.133,3.336,2.885,3.336s2.861-1.31,2.861-3.336C175.414,53.36,174.281,52.064,172.527,52.064Zm-45.719,7.558c-2.409,0-3.966-1.7-3.966-4.337a3.8,3.8,0,0,1,3.956-4.154,3.851,3.851,0,0,1,2.954,1.184,4.364,4.364,0,0,1,1.025,2.994,4.629,4.629,0,0,1-1,3.049A3.751,3.751,0,0,1,126.808,59.622Zm-.011-7.558c-2.112,0-2.862,1.778-2.862,3.3,0,2.027,1.133,3.336,2.885,3.336s2.861-1.31,2.861-3.336C129.682,53.36,128.55,52.064,126.8,52.064Zm32.984,7.547c-2.18,0-3.431-1.041-3.431-2.857h1.058c.051,1.638,1.369,1.982,2.466,1.982.619,0,2.06-.144,2.06-1.48,0-1.018-1.014-1.246-2.3-1.534l-.112-.025-.251-.054-.009,0c-1.291-.278-2.626-.565-2.626-2.163,0-1.7,1.55-2.312,3-2.312,1.894,0,2.973.9,3.038,2.54h-1.058c-.124-1.127-.778-1.652-2.059-1.652-1.191,0-1.875.49-1.875,1.344,0,.908.938,1.1,2.236,1.364l.011,0c1.553.315,3.07.759,3.07,2.39C163,58.965,161.34,59.611,159.782,59.611Zm-8.373,0c-2.182,0-3.434-1.041-3.434-2.857h1.059c.052,1.638,1.371,1.982,2.468,1.982.619,0,2.057-.144,2.057-1.48,0-1.018-1.013-1.246-2.3-1.535l-.111-.025-.26-.056c-1.291-.278-2.626-.565-2.626-2.163,0-1.7,1.55-2.312,3-2.312,1.892,0,2.971.9,3.037,2.54h-1.059c-.124-1.127-.778-1.652-2.059-1.652-1.19,0-1.873.49-1.873,1.344,0,.908.985,1.109,2.232,1.364l.013,0c1.555.315,3.074.759,3.074,2.39C154.632,58.965,152.967,59.611,151.409,59.611Zm28.308-.18h-1.048v-8.1h1.2l4.372,6.58v-6.58H185.3v8.1h-1.233l-4.351-6.5v6.5Zm-64.121,0H114.5v-8.1h3.64c1.872,0,2.782.733,2.782,2.242a2,2,0,0,1-1.42,1.969c1.176.24,1.213,1.052,1.256,1.992q0,.077.007.156v.006a2.622,2.622,0,0,0,.467,1.737l-1.254,0a3.65,3.65,0,0,1-.272-1.567c0-.08-.005-.154-.008-.22-.071-1.38-.45-1.717-1.932-1.717H115.6v3.5Zm0-7.2v2.834h2.059c1.1,0,2.174-.111,2.174-1.434,0-1.234-.953-1.4-1.885-1.4Zm72.506,7.2H186.94l3.255-8.1h1.234l3.234,8.1h-1.222l-.919-2.481h-3.479L188.1,59.43Zm2.686-7.082-1.428,3.746H192.2Zm11.039,7.081h-5.49v-8.1h1.093V58.5h4.4v.932Zm-35.5,0h-1.093v-8.1h1.093v8.1Zm-20.039,0H140.5v-8.1h5.736v.931h-4.641V54.8h4.338v.9h-4.338v2.8h4.7v.932Zm-12.2,0H133v-8.1h5.443v.931h-4.352v2.529h3.84v.9h-3.84v3.745Zm-26.82,0h-1.094v-8.1h3.409c1.257,0,2.756.4,2.756,2.334,0,1.624-.951,2.447-2.825,2.447h-2.246v3.323Zm0-7.183v2.958h2.105c.872,0,1.873-.168,1.873-1.478,0-1.229-.809-1.48-2.024-1.48ZM86.781,59.272H0L38.8,0h86.781l-6.574,10.035h-2.722l5.077-7.756H40.036L4.216,56.992H85.548l5.079-7.754H93.34L86.781,59.272ZM195.1,45.227c-2.635,0-4.515-.5-5.585-1.472-1.047-1.009-1.578-2.845-1.578-5.456V23.592h-3.218V20.745h3.218V14.909h3.947v5.836H201.9v2.847H191.888v13.76c0,2.258.258,3.623.787,4.174.479.607,1.432.9,2.916.9a3.832,3.832,0,0,0,2.792-.854,3.8,3.8,0,0,0,.789-2.8V36.545h3.582v1.708c0,2.451-.592,4.254-1.76,5.36C199.785,44.7,197.859,45.227,195.1,45.227Zm-23.06,0c-3.78,0-6.361-.7-7.891-2.135-1.512-1.417-2.246-3.869-2.246-7.5l0-5.7c0-3.59.756-6.1,2.248-7.448,1.53-1.436,4.131-2.135,7.952-2.135,3.142,0,5.45.559,6.862,1.661,1.389,1.087,2.065,2.872,2.065,5.457V28.62h-3.947v-.427a4.81,4.81,0,0,0-1.215-3.7c-.8-.724-2.211-1.091-4.189-1.091-2.229,0-3.72.4-4.431,1.186-.776.745-1.154,2.483-1.154,5.312v5.743c0,2.7.42,4.549,1.214,5.36s2.27,1.186,4.553,1.186c2.157,0,3.69-.367,4.554-1.092.794-.716,1.214-2.176,1.214-4.222v-.949H181.7v1a11.06,11.06,0,0,1-.584,3.784,6.2,6.2,0,0,1-1.721,2.574C177.861,44.572,175.388,45.227,172.044,45.227Zm-25.437,0c-3.78,0-6.361-.7-7.892-2.135-1.512-1.418-2.247-3.87-2.247-7.5V29.9c0-3.59.756-6.1,2.247-7.448,1.531-1.436,4.132-2.135,7.953-2.135,3.731,0,6.367.7,7.833,2.088a6.5,6.5,0,0,1,1.692,2.947,16.215,16.215,0,0,1,.554,4.548v3.465H140.656v2.278c0,2.743.42,4.6,1.216,5.36s2.378,1.139,4.735,1.139c2.477,0,4.193-.287,5.1-.853s1.336-1.6,1.336-3.18v-.759h3.643v.806c0,2.5-.8,4.322-2.368,5.408C152.724,44.668,150.13,45.227,146.607,45.227Zm.122-22.062c-2.353,0-3.966.4-4.8,1.186-.847.8-1.277,2.318-1.277,4.506v1.518H152.8V28.858c0-2.218-.417-3.692-1.275-4.506C150.7,23.564,149.082,23.165,146.729,23.165ZM124.576,45.227c-2.637,0-4.516-.5-5.586-1.472-1.048-1.009-1.579-2.845-1.579-5.456V23.592h-3.217V20.745h3.217V14.909h3.947v5.836h10.017v2.847H121.359v13.76c0,2.257.258,3.622.787,4.174.479.607,1.433.9,2.916.9a3.83,3.83,0,0,0,2.792-.854,3.8,3.8,0,0,0,.789-2.8V36.545h3.582v1.708c0,2.452-.592,4.256-1.759,5.36C129.258,44.7,127.331,45.227,124.576,45.227Zm-24.483,0c-3.78,0-6.361-.7-7.892-2.135-1.513-1.419-2.248-3.871-2.248-7.5V29.9c0-3.589.756-6.1,2.248-7.448,1.53-1.436,4.131-2.135,7.952-2.135,3.731,0,6.367.7,7.833,2.088a6.488,6.488,0,0,1,1.693,2.947,16.227,16.227,0,0,1,.554,4.548v5.7c0,3.676-.735,6.128-2.246,7.5C106.537,44.509,103.881,45.227,100.093,45.227Zm0-21.824c-2.341,0-3.935.415-4.736,1.232s-1.214,2.6-1.214,5.266v5.743c0,2.7.42,4.55,1.214,5.36s2.329,1.186,4.736,1.186c2.28,0,3.873-.415,4.736-1.232.806-.826,1.215-2.614,1.215-5.315V29.9c0-2.664-.42-4.5-1.215-5.312S102.5,23.4,100.093,23.4ZM72.42,44.8H68.474V20.745h3.643v3.131a6.779,6.779,0,0,1,2.852-2.7,10.258,10.258,0,0,1,4.373-.856c2.241,0,3.875.511,4.856,1.52,1.022,1.031,1.519,2.676,1.519,5.028v1.85H82.075V27.577a5.512,5.512,0,0,0-.912-3.559,3.577,3.577,0,0,0-2.975-1.043c-2.109,0-3.6.495-4.433,1.471-.9.984-1.336,2.675-1.336,5.17V44.8Zm-28.15,0H39.9V10.4h11.84c4.992,0,8.362.606,10.017,1.8s2.49,3.462,2.49,6.737v3.937c0,3.276-.838,5.542-2.49,6.737s-5.025,1.8-10.017,1.8H44.27V44.8Zm0-31.172V28.243h6.8c3.537,0,5.866-.32,6.921-.95,1.022-.611,1.519-1.744,1.519-3.463V17.945a3.741,3.741,0,0,0-1.459-3.415c-.953-.607-3.237-.9-6.981-.9Z" transform="translate(0 0)" fill="#fffffe"/></g></svg>