<svg viewBox="0 0 316 72" fill="none" xmlns="http://www.w3.org/2000/svg"><path fill-rule="evenodd" clip-rule="evenodd" d="M12.41 70.85H0V.2C3.94.2 15.14 0 20.09 0c20.79 0 27.35 11.1 27.35 22.7 0 12.02-8.99 22.92-25.84 22.92-2.12 0-6.16 0-9.19-.3v25.53zm8.89-59.24c-2.53 0-5.56.1-8.89.2v21.7c2.93.3 5.96.5 8.79.5 7.36 0 13.12-3.53 13.12-11.4 0-7.37-4.55-11-13.02-11zm37.14 59.24h11.6V40.37c1.32-2.62 3.44-4.84 7.47-4.84 2.43 0 3.64.4 5.86 1.71l4.14-10.9c-1.52-1.1-3.33-1.71-7.07-1.71-5.45 0-8.28 2.32-10.4 5.25v-4.45h-11.6v45.42zm32.9-22.7c0-13.63 9.7-23.83 24.73-23.83 15.04 0 24.73 10.2 24.73 23.82 0 13.63-9.7 23.82-24.73 23.82-15.04 0-24.73-10.2-24.73-23.82zm12.42 0c0 7.56 5.24 13.01 12.3 13.01 7.17 0 12.42-5.14 12.42-13.02 0-7.67-5.35-12.92-12.41-12.92-6.86 0-12.31 5.05-12.31 12.92zm46.12 5.44c0 11.61 3.84 18.27 14.13 18.27 5.86 0 10.7-2.22 13.42-4.44l-3.53-8.98c-1.61 1.21-3.83 2.62-6.96 2.62-3.84 0-5.45-3.23-5.45-8.17V36.33h14.63v-10.9H161.5V12.82h-11.6v40.77zm72.97 4.55l3.33 8.17c-4.54 3.84-11 5.65-17.36 5.65-14.63 0-24.42-9.48-24.42-23.82 0-13.22 9.08-23.82 24.02-23.82 11.7 0 21.5 8.38 21.5 21.1 0 2.82-.2 4.54-.7 6.26H196.4c1 6.86 6.46 10.6 13.63 10.6 5.55 0 10.19-2.02 12.81-4.14zM207.91 34c-6.96 0-10.7 3.94-11.9 9.9h22.3c.1-5.56-3.73-9.9-10.4-9.9zm65.81 21.6c-2.93 3.23-6.76 5.55-11.7 5.55-6.87 0-13.13-4.94-13.13-13.02 0-7.97 6.16-12.92 12.62-12.92 4.14 0 7.87 1.11 11.3 4.45l5.45-9.19c-4.24-4.24-10.8-6.16-18.26-6.16-13.83 0-23.52 10.6-23.52 23.82 0 14.34 9.89 23.82 24.63 23.82 7.36 0 14.23-2.72 18.06-7.87l-5.45-8.48zm13.73-2.02c0 11.61 3.83 18.27 14.13 18.27 5.85 0 10.7-2.22 13.42-4.44l-3.53-8.98c-1.62 1.21-3.84 2.62-6.97 2.62-3.83 0-5.44-3.23-5.44-8.17V36.33h14.63v-10.9h-14.63V12.82h-11.61v40.77z" fill="#fff"/></svg>