<svg viewBox="0 0 341 78" fill="none" xmlns="http://www.w3.org/2000/svg"><path opacity=".03" fill-rule="evenodd" clip-rule="evenodd" d="M13.43 76.63H0V.22C4.26.22 16.37 0 21.72 0 44.21 0 51.3 12 51.3 24.56c0 12.99-9.71 24.78-27.94 24.78-2.3 0-6.66 0-9.93-.33v27.62zm9.6-64.08c-2.73 0-6 .11-9.6.22v23.47c3.16.33 6.44.55 9.5.55 7.96 0 14.18-3.83 14.18-12.34 0-7.97-4.9-11.9-14.08-11.9zM63.2 76.63h12.55V43.66c1.42-2.84 3.71-5.24 8.08-5.24 2.62 0 3.93.44 6.33 1.86l4.48-11.8c-1.64-1.2-3.6-1.85-7.64-1.85-5.9 0-8.95 2.51-11.25 5.68v-4.8H63.2v49.12zm35.58-24.56c0-14.74 10.48-25.76 26.75-25.76 16.26 0 26.74 11.02 26.74 25.76 0 14.73-10.48 25.76-26.74 25.76-16.27 0-26.75-11.03-26.75-25.76zm13.43 0c0 8.18 5.68 14.08 13.32 14.08 7.75 0 13.42-5.57 13.42-14.08 0-8.3-5.78-13.98-13.42-13.98-7.42 0-13.32 5.46-13.32 13.98zm49.89 5.9c0 12.54 4.14 19.75 15.28 19.75 6.33 0 11.57-2.4 14.51-4.8l-3.82-9.72c-1.74 1.31-4.14 2.84-7.53 2.84-4.15 0-5.9-3.5-5.9-8.84V39.3h15.84V27.5h-15.83V13.87h-12.56v44.1zm78.91 4.9l3.6 8.84c-4.9 4.15-11.9 6.12-18.77 6.12-15.83 0-26.41-10.26-26.41-25.76 0-14.3 9.82-25.76 25.97-25.76 12.67 0 23.25 9.06 23.25 22.81 0 3.06-.21 4.91-.76 6.77h-35.47c1.09 7.42 6.98 11.46 14.73 11.46 6 0 11.03-2.18 13.86-4.48zM224.86 36.8c-7.53 0-11.57 4.25-12.88 10.7h24.12c.11-6.01-4.04-10.7-11.24-10.7zm71.17 23.35c-3.17 3.5-7.32 6-12.66 6-7.43 0-14.2-5.34-14.2-14.07 0-8.63 6.66-13.98 13.65-13.98 4.48 0 8.51 1.2 12.23 4.8l5.89-9.93c-4.58-4.58-11.68-6.65-19.76-6.65-14.95 0-25.43 11.46-25.43 25.76 0 15.5 10.7 25.76 26.63 25.76 7.97 0 15.4-2.95 19.54-8.52l-5.9-9.17zm14.84-2.18c0 12.55 4.15 19.76 15.28 19.76 6.34 0 11.58-2.4 14.52-4.8l-3.82-9.72c-1.75 1.31-4.15 2.84-7.53 2.84-4.15 0-5.9-3.5-5.9-8.84V39.3h15.83V27.5h-15.82V13.87h-12.56v44.1z" fill="#fff"/></svg>