<svg viewBox="0 0 1689 543" fill="none" xmlns="http://www.w3.org/2000/svg"><path d="M1244.45 96.59l.7.1-.1.7-.7-.1.1-.7zm-365.02 6.78l.14.7-.14-.7zm365.22-8.19l.09-.7.71.1-.1.7-.7-.1zm-365.5 6.8l.14.7-.13-.7zm-130.17 53.5l-.33-.63.33.63zM647.4 211.53l.36.62-.36-.62zm-24.08 13.68l.35.61-.2.12-.22-.03.07-.7zm-11.74-1.58l-.1.7.1-.7zm-6.89-.98l.1-.7-.1.7zm-18.57-1.4l.03.7-.03-.7zm-.01 0l-.06-.7h.01l.02-.01.03.7zm-.01 0l.05.7-.05-.7zm-37.72 2.97l.05.7-.05-.7zM399.3 241.47l-.14-.7.14.7zM235 316.73l-.5-.52.5.52zm-.23.21h-.71v-.3l.22-.22.49.52zm0 5.8h.7v.16l-.07.16-.63-.33zm-15.64 98.46l.71-.03-.7.03zm.57 16.26l.7-.02v.02h-.7zm0 .45h.7-.7zm.03 1.74l.7-.05-.7.05zm.4 1.7l-.62.34.63-.33zm3.53 1.75l-.11.7.1-.7zm0 0l.1-.7h.02l-.12.7zm2.85.48l.11-.7.46.07.11.45-.68.18zm1.55 6.1l.7-.18.15.63-.62.22-.23-.68zm-6.67 2.28l-.67.23-.23-.67.67-.23.23.67zm.23.67l.67-.23-1.34.46.67-.23zm-.23-.67l-.23-.67.67-.23.23.67-.67.23zm-4.53 4.37l.67.23-.67-.23zm-.8 5.1l.7.05-.7-.05zm-.1 1.17l.71.06-.7-.06zm-.03.36l-.46.54-.28-.24.04-.36.7.06zm.28.24l.46-.54-.46.54zm3.51 3.05l.47-.54-.47.54zm.15.12l-.14.7-.18-.03-.15-.13.47-.54zm.19.04l.13-.7-.13.7zm151.36 23.16l.1-.7-.1.7zm16.38 2.21l.7.1-.09.7-.7-.1.1-.7zm.2-1.4l.09-.7.7.09-.1.7-.7-.1zm-16.39-2.22l-.1.7.1-.7zm-151.1-23.11l-.13.7-.2-.04-.14-.12.47-.54zm-3.1-2.69l-.46.54-.28-.24.03-.36.71.06zm.07-.9l.71.06-.7-.06zm.72-4.67l.68.23-.68-.23zm3.65-3.49l-.23-.67.23.67zm7.3-2.5l-.24-.67.23.68zm.61-.2l.7-.18.16.63-.63.21-.23-.67zm-.16-.64l.69-.18-.69.18zm-1.83-7.18l.69-.18-.7.18zm-.12-.45l.12-.7.46.07.11.45-.69.18zm-.45-.08l.11-.7-.11.7zm-3.32-.55l.11-.7-.1.7zm0 0l.1-.7-.1.7zm-2.5-1.02l-.62.34.63-.34zm-.24-1.12l-.7.04.7-.04zm-.02-1.63h.7-.7zm0-.49l.7-.02v.02h-.7zm0 0l-.71.01.7-.02zm-.57-16.31l.71-.03-.7.03zm15.56-97.9l.63.32-.63-.32zm.08-.16h.7v.17l-.07.15-.63-.32zm0-5.51h-.71v-.31l.22-.21.49.51zm163.38-74.7l-.14-.7.14.7zm148.86-17.21l-.05-.71.05.7zm37.76-2.97l-.06-.71h.03l.03.7zm18.3 1.38l.1-.7-.1.7zm6.83.98l-.1.7.1-.7zm12.07 1.61l-.07.7.07-.7zm.23.03l.34.61-.2.12-.22-.03.08-.7zm.2-.12l.34.62-.35-.62zm24.3-13.8l-.36-.61.35.61zm101.52-56.02l-.33-.64.33.64zm517 317.57l.02.7h-.01l-.01-.7zm0 0l.03.7-.03-.7zm-696.69 15.25l-.7.01-.02-.7.7-.02.02.7zm.03 1.42l.02.7-.7.02-.02-.7.7-.02zm696.7-15.25l.02.7-.02-.7zm.01 0l.71-.03.03.72-.72.02-.02-.71zm0 0l-.71.02-.02-.7.7-.03.03.7zm19.89-.78l.71-.02.03.7-.71.03-.03-.7zm-.06-1.41l-.02-.71.71-.03.02.7-.71.04zm77.49-350.94l.17-.7.12.04.1.06-.39.6zm-87.92-17.99l-.12.7-.7-.12.12-.7.7.12zm.24-1.4l-.7-.11.11-.7.7.11-.11.7zm88.43 18.1l-.17.7.17-.7zm.42.11l.17-.69.41.1.11.42-.69.17zm.1.41l.69-.17-.69.17zm.36 1.42l-.16.7-.42-.1-.11-.43.69-.17zm199.85 64.86l.05.7-.16.02-.15-.06.26-.66zm5.65-.45l-.06-.71.06.7zm.09-.01l-.05-.7.09-.02.1.02-.14.7zm.1.02l.13-.7-.13.7zm15.83 3.17l-.14.7.14-.7zm33.93 6.4l.11-.71-.11.7zm.01 0l.11-.7h.01l-.12.7zm19.47.36l.1.7-.1-.7zm.36-.04l-.09-.7.36-.06.25.27-.52.49zm.25.26l-.51.49.51-.5zm5.57 5.85l.51-.49-.51.5zm.14.15l.51-.49.14.15.04.2-.69.14zm.04.2l.69-.15-.69.15zm.48 2.34l.7-.14-.7.14zm.03.13l.7-.15.02.13-.02.13-.7-.11zm-.02.13l-.7-.12.7.12zM1644.6 219h-.71v-.1l.03-.1.68.2zm0 4.28l-.59.4-.12-.18v-.22h.71zm.17.25l-.58.4.58-.4zm11.21 17.68l-.62.34.62-.34zm.1.17l.62-.34.1.18-.01.2-.71-.04zm-.01.2l-.71-.03.71.03zm-.13 2.03l-.71-.05.71.05zm-.14 2.67h.71v.05l-.71-.05zm0 .02l.71.05-.71-.05zm-1.97 6.53l-.55-.46.55.46zm-6.77 3.35l-.7.1-.1-.65.64-.14.16.69zm.4 2.62l-.55.44-.12-.15-.03-.19.7-.1zm2.44 3l-.55.45.55-.44zm.02.02l.55-.44.01.02.02.02-.58.4zm.01.03l-.58.4.58-.4zm2.89 10.03l.71.04-.71-.04zm0 .01l.71.04-.71-.04zm-.3 4.51l-.69.17-.03-.1.01-.12.71.05zm6.19 29.42l.7-.11-.7.11zm0 0l.7-.1-.7.1zm.27 1.82l.7-.1-.7.1zm.03.23l.7-.1-.7.1zm.18 1.26l.71-.11-.71.1zm.51 2.23l-.66.24.66-.24zm3.22 4.22l.48-.51-.48.51zm0 0l.49-.5-.49.5zm8.15 7.02l-.45.55.45-.55zm1.66 1.34l-.45.56.45-.56zm5.9 4.89l.47-.53.54.47-.48.53-.53-.47zm0 0l-.53-.47.47-.53.53.46-.47.54zm-.47.53l.53.47-1.06-.94.53.47zm4.27 7l.71-.06-.71.05zm-.61 27.93l-.7-.05.7.05zm4 15.76l.59-.4.39.59-.58.4-.4-.6zm-.59.4l.4.59-.8-1.18.4.59zm.59-.4l.6-.39.39.59-.59.4-.4-.6zm0 0l-.59.4 1.18-.8-.59.4zm.26.37l.58-.4-.58.4zm.39.58l-.6.38.6-.38zm.44.9l.68-.2-.68.2zm1.21 5.03l-.71-.04.71.04zm-1.43 3l.52.47-.52-.47zm-4.72 3.46l-.37-.6.37.6zm-3.06 17.06l-.71-.03.71.03zm-.59 1.92l-.63-.33.63.33zm-1.35 2.1l.58.41-.58-.41zm0 0l.58.41-.58-.4zm-4.53 6.28l-.57-.42.57.42zm0 0l.57.42-.01.01-.56-.43zm-.01 0l-.56-.42.56.43zm-3.9 4.03l.35.62-.35-.62zm-4.34 1.43l-.17-.69.17.69zm-32.77 8.4l-.18-.7.18.7zm-140.63 31.63l.12.7-.7.12-.12-.7.7-.12zm-.23-1.4l-.7.12-.12-.7.7-.12.12.7zm140.48-31.6l-.18-.7.18.7zm31.81-8.16l.18.69-.18-.7zm0 0l-.18-.69h.01l.17.69zm1-.25l.17.69-.17-.69zm3.97-1.28l.36.62-.36-.62zm3.47-3.64l-.56-.43 1.14.84-.58-.41zm0 0l-.42.58-.57-.42.41-.57.58.42zm.58.42l.42-.56-.84 1.14.42-.58zm-.57-.43l-.43.57-.55-.42.4-.56.58.41zm4.52-6.26l-.58-.41.41-.58.58.42-.41.57zm.57.42l.42-.58-.83 1.15.41-.57zm-.57-.42l-.58-.41.42-.58.57.41-.41.58zm0 0l.57.42-1.15-.83.58.41zm1.24-1.93l.63.33-.63-.33zm.43-1.33l-.71-.03.71.03zm-1.63-3.04l-.53.47.53-.47zm-.27-.3l-.53.47-.27-.3.13-.39.67.22zm.13-.39l-.68-.21.68.21zm4.42-13.6l.67.21-.67-.22zm.08-.25l-.68-.22.08-.25.23-.14.37.6zm.22-.14l-.37-.6.37.6zm.85-.52l.36.61-.36-.6zm4.35-3.17l-.53-.48.53.48zm1.06-2.11l-.71-.04.71.04zm-1.2-2.42l-.5.5.5-.5zm-.3-.3l-.5.5-.31-.31.13-.41.68.21zm.13-.42l-.68-.22.68.22zm.21-1.43l.68-.2-.68.2zm-.26-.52l.59-.39-.59.39zm-.35-.5l.59-.41-.59.4zm-.28-.42l-.59.4.59-.4zm-.01 0l-.59.39.59-.4zm-4.73-7.1l-.59.4.59-.4zm-.13-.2l-.59.4-.13-.2.01-.24.71.04zm.02-.24l.7.04-.7-.04zm.61-9.2l-.7-.06.7.05zm.6-27.64l-.71.05.71-.05zm0 0l-.71.05.71-.06zm-.04-.51l-.7.05.7-.05zm-.17-2l-.71.1.71-.1zm-.35-1.3l-.63.33.63-.32zm-.85-1.05l-.49.5.49-.5zm-1.42-1.29l-.47.54.47-.54zm-.49-.43l.47-.53-.47.53zm0 0l-.46.54h-.01l.47-.54zm-5.84-4.83l-.44.55.44-.55zm-1.68-1.35l.45-.56-.45.56zm-11.8-11.87l.67-.24-.67.24zm-.58-2.5l.7-.1-.7.1zm-.18-1.28l.7-.1-.7.1zm-.04-.22l.71-.1-.71.1zm-6.46-31.21l.69-.17-.69.17zm-.02-.1l-.69.16-.03-.1.01-.11.71.04zm0-.12l-.71-.04.71.04zm.31-4.6l-.71-.05.05-.7.7.04-.04.7zm.71.03l.05-.7-.09 1.41.04-.7zm-.71-.04l-.71-.05.05-.71.71.05-.05.7zm0 0l.71.05-1.42-.09.71.04zm-5.17-12.26l.56-.45-.56.45zm-.12-.15l-.55.45-.12-.15-.03-.2.7-.1zm-.03-.19l.71-.1-.71.1zm-.53-3.47l.71-.1-.71.1zm-.1-.66l-.7.1-.1-.66.66-.14.14.7zm.66-.14l.15.7-.15-.7zm6.63-3.01l-.54-.46.54.46zm1.79-8.5l-.71-.05.71.05zm-10.94-19.1l-.59.4.59-.4zm-.29-.42l-.58.4.58-.4zm-.12-.18l-.59.4-.12-.19v-.21h.71zm0-4.92h-.71v-.1l.03-.1.68.2zm.03-.1l-.68-.2.68.2zm-56.38-26.48l-.14.7.14-.7zm-21.39-2.68l-.06-.71.06.7zm-.16 0l.06.72h-.16l-.15-.05.25-.66zm-.15-.05l.25-.66-.25.66zm-200.23-64.96l-.16.7.16-.7zm-.42-.1l-.16.7-.43-.1-.1-.42.69-.17zm-.11-.41l-.69.17.69-.17zm206.69 65.04l-.14.7-.69-.14.13-.7.7.14zm.13-.7l-.69-.13 1.4.08-.71.05zm.06.71l.71-.06.06.71-.71.06-.06-.7zm49.61 9.56l-.12.7-.7-.12.12-.7.7.12zm.12-.7l-.7-.12 1.4.23-.7-.1zm-.11.7l.7.11-.11.7-.7-.1.11-.7zm19.28.17l-.51.49-.49-.52.51-.49.49.52zm.52-.5l-.49-.5 1.01-.97.18 1.38-.7.1zm.09.71l.7-.1.09.71-.7.1-.09-.7zm4.78 5.3l-.7.14-.14-.7.69-.14.15.7zm.69-.15l-.14-.7 2.44-.5-1.81 1.72-.49-.52zm-.51.5l.49.5-.52.5-.49-.52.52-.49zm.3 1.73l-.7-.11.11-.7.7.11-.11.7zm.7.12l.11-.7.03 1.39-.14-.7zm-.7.14l.15.7-.7.14-.14-.7.69-.14zm8.63 34.86l-.71-.03.04-.71.71.03-.04.71zm.71.04l.03-.7 2.49.12-2.18 1.2-.34-.62zm-.62.34l.34.63-.62.34-.34-.62.62-.35zm-.35 4.32l-.71-.05.04-.7.71.04-.04.7zm.7.05l.05-.71-.05 1.42v-.71zm-.71 0v.7h-.71v-.7h.71zm-5.61 16.4l-.58.41-.41-.58.58-.4.41.57zm.58-.4l-.41-.59.86 1.13-.45-.55zm-.55.44l.44.55-.55.45-.44-.55.55-.45zm8.51 43.35l-.7.11-.11-.7.7-.11.11.7zm.7-.11l-.11-.7.23 1.4-.12-.7zm-.7.11l.11.7-.7.12-.11-.7.7-.12zm4.63 10.57l-.49.5-.51-.48.49-.51.51.49zm.49-.52l-.51-.49 1.03.98-.52-.49zm-.49.52l.52.49-.49.51-.51-.48.48-.52zm1.09 109.15l-.69.17 1.37-.35-.68.18zm.17.68l.69-.17.18.7-.7.16-.17-.69zm13.87-19.36l.68.22-.22.68-.68-.22.22-.68zm-.68-.22l-.21.68-1.19-.39.94-.82.46.53zm.54-.47l-.47-.53.53-.47.47.54-.53.46zm4.26-12.53l.37.6-.6.37-.38-.6.61-.37zm-.38-.6l-.6.37-1.02-1.65 1.84.6-.22.67zm.68.21l.22-.67.67.22-.22.67-.67-.22zm5.19-9.33l.68.22-.22.68-.67-.22.21-.68zm-.67-.21l-.22.67-1.11-.35.82-.82.51.5zm.5-.5l-.5-.5.5-.5.5.5-.5.5zm-5.3-10.05l.71.04-.04.71-.71-.04.04-.7zm-.71-.04l-.03.71-2.13-.12 1.77-1.18.39.6zm.6-.39l-.4-.6.59-.38.4.59-.59.39zm1.33-36.6l-.06-.72.71-.05.06.7-.71.06zm-.71.05l.05.7-.11-1.4.06.7zm.71-.05l.71-.06.05.71-.71.05-.05-.7zM1244.35 97.29c-120.91-17.04-247.19-16.7-364.78 6.77l-.28-1.39c117.78-23.51 244.21-23.84 365.26-6.78l-.2 1.4zm1-2l-.2 1.4-1.41-.2.2-1.4 1.41.2zm-366.33 5.99c117.95-23.55 244.55-23.88 365.72-6.8l-.19 1.4c-121.05-17.05-247.48-16.72-365.25 6.8l-.28-1.4zm-130.37 53.56c47.46-24.64 95.77-46.66 130.37-53.56l.27 1.4c-34.37 6.85-82.52 28.77-129.98 53.42l-.66-1.25zm-101.6 56.08c29.07-16.57 65.13-37.13 101.6-56.07l.66 1.25c-36.44 18.93-72.48 39.48-101.56 56.06l-.7-1.24zm-24.08 13.68c7.28-4.1 15.36-8.71 24.07-13.68l.7 1.24c-8.7 4.96-16.8 9.57-24.08 13.67l-.7-1.23zm-11.3-1.66c4.19.61 8.19 1.2 11.72 1.57l-.15 1.41c-3.56-.38-7.6-.96-11.77-1.58l.2-1.4zm-6.89-.99c2.32.32 4.63.66 6.9.99l-.21 1.4-6.88-.98.2-1.4zm-18.7-1.4c5.38-.23 12.06.5 18.7 1.4l-.2 1.41c-6.63-.9-13.2-1.61-18.44-1.4l-.06-1.41zm-.01 0h.01l.06 1.42h-.01l-.06-1.42zm-.05 0h.02l.12 1.42h-.01l-.13-1.42zm-37.7 2.97c12.77-.97 25.37-1.92 37.7-2.97l.12 1.42c-12.34 1.04-24.94 2-37.72 2.97l-.1-1.42zm-149.16 17.25c49-9.65 100.37-13.55 149.15-17.25l.11 1.42c-48.8 3.7-100.09 7.6-148.99 17.22l-.27-1.39zM234.5 316.21c44.6-41.88 102.82-63.26 164.66-75.44l.27 1.4c-61.7 12.15-119.63 33.46-163.95 75.08l-.97-1.04zm-.22.21l.22-.2.98 1.03-.23.2-.97-1.03zm-.22.83v-.31h1.42v.3h-1.42zm0 5.48v-5.48h1.42v5.48h-1.42zm-15.64 98.5c-1.4-36.71-2.4-63.06 15.71-98.82l1.27.64c-17.94 35.4-16.96 61.42-15.56 98.12l-1.42.05zm.57 16.25c-.16-5.66-.37-11.06-.57-16.26l1.42-.05c.2 5.2.4 10.6.57 16.27l-1.42.04zm0 .43v-.45h1.42v.45h-1.42zm.03 1.79c-.04-.53-.03-1.15-.03-1.8l1.42.01c0 .66 0 1.22.03 1.7l-1.42.09zm.49 2a4.82 4.82 0 0 1-.5-2l1.43-.1c.03.59.12 1.05.32 1.42l-1.25.67zm4.04 2.1c-1.75-.26-3.28-.7-4.04-2.1l1.25-.68c.4.74 1.24 1.11 3 1.38l-.21 1.4zm0 0l.21-1.4-.2 1.4zm2.84.48l-2.85-.48.24-1.4 2.84.48-.23 1.4zm.99 5.57l-1.56-6.1 1.38-.35 1.55 6.1-1.37.35zm-6.22 1.44l6.67-2.29.46 1.35-6.67 2.28-.46-1.34zm-.2 1.57l-.24-.67 1.34-.46.23.67-1.34.46zm1.1-1.13l.23.67-1.34.46-.23-.67 1.34-.46zm-5.87 4.37a7.4 7.4 0 0 1 4.97-4.81l.46 1.34a6 6 0 0 0-4.09 3.93l-1.34-.46zm-.84 5.27c.14-1.77.28-3.65.84-5.27l1.34.46a20.5 20.5 0 0 0-.76 4.92l-1.42-.1zm-.1 1.17l.1-1.17 1.42.11-.1 1.18-1.41-.12zm-.02.36l.03-.36 1.41.12-.03.36-1.41-.12zm.51.84l-.27-.24.93-1.07.27.23-.93 1.07zm3.52 3.04l-3.52-3.04.93-1.08 3.52 3.05-.93 1.07zm.14.13l-.14-.13.93-1.07.14.13-.93 1.07zm.52.2l-.19-.04.27-1.4.19.04-.27 1.4zm151.4 23.16c-50.97-6.87-100.67-13.57-151.4-23.16l.27-1.4c50.68 9.58 100.34 16.28 151.32 23.16l-.19 1.4zm16.39 2.22l-16.39-2.22.2-1.4 16.38 2.2-.2 1.42zm.99-2.02l-.2 1.4-1.4-.18.19-1.41 1.4.19zm-17-3.01l16.39 2.21-.2 1.4-16.37-2.2.19-1.41zm-151.06-23.1c50.58 9.55 100.14 16.23 151.07 23.1l-.2 1.4C320.6 482 271 475.32 220.39 465.76l.26-1.4zm-2.76-2.53l3.1 2.68-.94 1.08-3.1-2.69.94-1.07zm.31-.31l-.07.9-1.42-.12.08-.9 1.41.12zm.69-4.5a18.77 18.77 0 0 0-.69 4.5l-1.41-.11c.13-1.76.26-3.42.75-4.85l1.34.46zm3.2-3.05c-.98.34-1.66.77-2.15 1.27s-.81 1.09-1.06 1.78l-1.34-.46a6 6 0 0 1 1.39-2.31 6.76 6.76 0 0 1 2.7-1.62l.46 1.34zm7.3-2.5l-7.3 2.5-.46-1.34 7.3-2.5.45 1.35zm.62-.2l-.63.2-.46-1.34.63-.2.46 1.33zm.29-1.49l.16.64-1.37.35-.17-.64 1.38-.35zm-1.83-7.18l1.83 7.18-1.38.35-1.83-7.18 1.38-.35zm-.12-.45l.12.45-1.38.35-.11-.45 1.37-.35zm-1.03-.6l.46.08-.23 1.4-.46-.08.23-1.4zM224 441l3.31.55-.23 1.4-3.31-.55.23-1.4zm-.02 0h.01l-.22 1.4h-.01l.22-1.4zm-1.97-.65c.04.06.19.38 1.97.65l-.21 1.4c-1.77-.26-2.61-.64-3-1.38l1.24-.67zm-.16-.84c.04.52.1.74.16.84l-1.25.67c-.2-.37-.29-.83-.32-1.42l1.41-.09zm-.02-1.57c0 .66 0 1.15.02 1.57l-1.41.1c-.04-.48-.03-1.04-.03-1.68h1.42zm0-.49v.49h-1.42v-.49h1.42zm0 0h-1.42 1.42zm0-.04l-1.42.05 1.42-.05zm-.57-16.3c.2 5.19.4 10.6.57 16.3l-1.42.04c-.16-5.69-.37-11.1-.57-16.3l1.42-.05zm15.48-97.56c-17.84 35.13-16.88 60.8-15.48 97.55l-1.42.06c-1.4-36.76-2.39-62.77 15.64-98.26l1.26.65zm.08-.16l-.08.16-1.26-.65.07-.15 1.27.64zm.08-.49v.17h-1.42v-.17h1.42zm0-5.34v5.34h-1.42v-5.34h1.42zm162.8-74c-61.48 12.11-119 33.3-163.03 74.51l-.97-1.03c44.3-41.48 102.13-62.74 163.73-74.88l.28 1.4zm148.78-17.2c-48.78 3.7-99.97 7.58-148.77 17.2l-.28-1.4c48.9-9.63 100.17-13.52 148.95-17.22l.1 1.42zm37.77-2.98c-12.37 1.05-24.98 2-37.77 2.98l-.1-1.42c12.78-.97 25.4-1.93 37.75-2.97l.12 1.41zm18.15 1.39c-6.64-.9-13.09-1.6-18.18-1.38l-.06-1.42c5.23-.22 11.8.49 18.43 1.39l-.2 1.4zm6.82.97a746.4 746.4 0 0 0-6.82-.97l.19-1.41c2.28.31 4.58.65 6.84.98l-.21 1.4zm12.1 1.62c-3.65-.38-7.81-1-12.1-1.62l.2-1.4c4.3.63 8.43 1.23 12.05 1.6l-.15 1.42zm.22.02l-.22-.02.14-1.41.23.02-.15 1.41zm.62-.2l-.2.11-.7-1.23.2-.12.7 1.24zm24.3-13.8c-8.79 5.01-16.95 9.67-24.3 13.8l-.7-1.23c7.35-4.14 15.5-8.79 24.3-13.8l.7 1.23zm101.5-56.01c-36.41 18.91-72.42 39.44-101.5 56.01l-.7-1.23c29.08-16.58 65.1-37.12 101.55-56.05l.65 1.27zm129.61-53.3c-34.15 6.81-82.14 28.64-129.6 53.3l-.66-1.27c47.46-24.65 95.61-46.57 129.99-53.43l.27 1.4zm387.04 369.53h.01l.05 1.42h-.01l-.05-1.42zm-696.67 15.25l696.68-15.25.03 1.42-696.68 15.25-.03-1.42zm-.66 2.14l-.03-1.42 1.41-.03.04 1.42-1.42.03zm697.42-14.55L570 491.69l-.03-1.43 696.69-15.24.04 1.42zm.01 0h-.01l-.04-1.42h.02l.03 1.42zm.69-.74l-1.42.06 1.42-.06zm19.21-.04l-19.89.78-.06-1.42 19.89-.77.06 1.41zm.62-2.15l.06 1.42-1.42.05-.06-1.42 1.42-.05zm-20.61.09l19.88-.77.05 1.42-19.88.77-.05-1.42zm97.22-350.31a1255.11 1255.11 0 0 0-87.87-17.98l.24-1.4c29.75 5 59.16 11.02 87.97 18l-.34 1.38zm-88.45-18.8l.24-1.4 1.4.24-.24 1.4-1.4-.23zm1.05-1.98a1257.9 1257.9 0 0 1 88.49 18.12l-.34 1.38a1255.33 1255.33 0 0 0-88.38-18.1l.23-1.4zm88.49 18.12l.42.1-.34 1.38-.42-.1.34-1.38zm.94.62l.1.41-1.38.35-.1-.42 1.38-.34zm.1.41l.36 1.42-1.38.34-.36-1.41 1.38-.35zm-.17.9c66.87 15.64 135.66 40.36 199.94 64.88l-.51 1.33c-64.27-24.52-132.98-49.21-199.75-64.83l.32-1.38zm199.63 64.84l5.65-.45.11 1.41-5.65.45-.11-1.41zm5.65-.45h.1l.11 1.4-.1.01-.11-1.41zm.29 0l.09.02-.27 1.4-.09-.02.27-1.4zm.09.02c5.26 1.02 10.54 2.1 15.84 3.17l-.28 1.4c-5.3-1.09-10.58-2.16-15.83-3.18l.27-1.39zm15.84 3.17c11.33 2.3 22.7 4.62 33.9 6.39l-.22 1.4a792.95 792.95 0 0 1-33.96-6.4l.28-1.4zm33.9 6.39h.01l-.23 1.4h-.01l.23-1.4zm.02 0a64.44 64.44 0 0 0 19.26.37l.19 1.4c-6.55.87-13.19.74-19.69-.37l.24-1.4zm19.26.37l.36-.05.18 1.41-.35.05-.19-1.41zm.97.17l.24.26-1.02.98-.25-.26 1.03-.98zm.24.26l5.57 5.85-1.03.98-5.56-5.85 1.02-.98zm5.57 5.85l.14.15-1.03.98-.14-.15 1.03-.98zm.32.5l.04.2-1.39.28-.04-.2 1.39-.28zm.04.2l.49 2.34-1.39.28-.49-2.34 1.39-.29zm.49 2.34l.03.13-1.39.28-.03-.13 1.39-.28zm.03.38l-.02.13-1.4-.22.02-.13 1.4.22zm-.02.13a98.64 98.64 0 0 1-2.84 12.48l-1.36-.4a97.68 97.68 0 0 0 2.8-12.3l1.4.22zm-2.81 12.27v4.28h-1.42V219h1.42zm-.12 3.88l.17.25-1.17.8-.18-.25 1.18-.8zm.17.25c4.07 5.98 7.62 11.2 11.24 17.73l-1.24.69c-3.58-6.47-7.1-11.64-11.17-17.62l1.17-.8zm11.24 17.73l.1.18-1.24.69-.1-.18 1.24-.69zm.19.56l-.01.2-1.42-.07.01-.2 1.42.07zm-.01.2l-.13 2.04-1.42-.1.13-2.01 1.42.07zm-.13 2.04c-.08.97-.14 1.8-.14 2.6h-1.42c0-.85.07-1.75.14-2.7l1.42.1zm-.14 2.6v.02h-1.42v-.02h1.42zm0 .07v.02l-1.42-.1.01-.02 1.41.1zm0 .02c-.18 2.7-.57 5.08-2.14 6.94l-1.09-.92c1.26-1.48 1.64-3.44 1.81-6.11l1.42.09zm-2.14 6.94c-1.47 1.75-3.79 2.81-7.15 3.58l-.32-1.38c3.27-.75 5.21-1.72 6.38-3.12l1.09.92zm-6.61 2.78l.4 2.62-1.4.21-.4-2.62 1.4-.21zm.25 2.28l2.44 3-1.1.9-2.44-3 1.1-.9zm2.44 3l.02.03-1.11.9-.01-.03 1.1-.9zm.05.07l.01.02-1.16.81-.01-.02 1.16-.81zm.01.02a16.68 16.68 0 0 1 3.02 10.48l-1.42-.08c.18-3.41-.79-6.79-2.76-9.59l1.16-.81zm3.02 10.48v.01l-1.42-.08v-.01l1.42.08zm0 .02l-.3 4.5-1.42-.09.3-4.5 1.42.09zm-.32 4.3a390.03 390.03 0 0 1 6.2 29.47l-1.4.23a387.11 387.11 0 0 0-6.18-29.37l1.38-.34zm6.2 29.47l-1.4.23 1.4-.23zm0 0c.11.68.2 1.29.27 1.84l-1.4.2c-.08-.55-.16-1.15-.27-1.81l1.4-.22zm.27 1.84l.03.22-1.4.2-.03-.23 1.4-.2zm.03.22l.19 1.25-1.41.22-.18-1.28 1.4-.2zm.19 1.25c.13.88.27 1.53.47 2.1l-1.33.48a12.8 12.8 0 0 1-.55-2.37l1.41-.21zm.47 2.1c.39 1.1 1.09 2.13 3.03 3.95l-.97 1.03c-2-1.88-2.89-3.1-3.39-4.5l1.33-.47zm3.03 3.95h.01l-.98 1.03.97-1.03zm.01 0c2.5 2.4 5.33 4.74 8.1 6.98l-.89 1.1a132.45 132.45 0 0 1-8.19-7.05l.98-1.02zm8.1 6.98l1.66 1.34-.89 1.1-1.66-1.34.89-1.1zm1.66 1.34c2.16 1.73 4.22 3.4 5.93 4.9l-.94 1.07a166.02 166.02 0 0 0-5.88-4.86l.89-1.11zm5.93 4.9l-.93 1.07h-.01l.94-1.07zm-1.47.6l.47-.53 1.06.94-.47.53-1.06-.94zm1.53.4l-.47.54-1.06-.94.47-.53 1.06.94zm-.92.13L1363.62 123.2l.78-1.19 314.62 206.24-.78 1.18zm4.9 6.88c.75 9.34.07 18.77-.61 28.04l-1.41-.1c.67-9.29 1.35-18.62.6-27.83l1.42-.11zm-.61 28.04c-.21 2.97-.43 5.92-.59 8.86l-1.42-.08c.17-2.95.38-5.92.6-8.88l1.41.1zm-.71 8.42l4.59 6.9-1.18.78-4.59-6.89 1.18-.79zm3.01 7.1l.59-.4.8 1.17-.59.4-.8-1.17zm1.39.78l-.59.4-.79-1.18.59-.4.79 1.18zm.19-.98h.01l-1.19.79 1.18-.8zm0-.01l.25.37-1.17.8-.26-.37 1.18-.8zm.25.37c.15.2.29.41.41.6l-1.2.76-.38-.56 1.17-.8zm.41.6c.19.3.39.65.52 1.07l-1.37.4a2.43 2.43 0 0 0-.35-.7l1.2-.77zm.52 1.07c.22.77.11 1.5-.1 2.25l-1.37-.38c.19-.67.22-1.08.1-1.47l1.37-.4zm-.26 1.58a5.13 5.13 0 0 1 1.5 3.7l-1.42-.08c.04-.83-.29-1.72-1.13-2.67l1.05-.95zm1.5 3.7a5.61 5.61 0 0 1-1.62 3.43l-1.05-.95a4.18 4.18 0 0 0 1.25-2.56l1.42.07zm-1.62 3.43c-1.36 1.49-3.42 2.72-4.88 3.6l-.73-1.21c1.51-.91 3.37-2.04 4.56-3.35l1.05.96zm-4.88 3.6l-.55.34-.74-1.21.56-.34.73 1.21zm-.25-.05l-4.21 12.98-1.35-.44 4.21-12.98 1.35.44zm-4.34 12.3c1.17 1.39 1.95 2.7 1.88 4.23l-1.42-.06c.05-.97-.43-1.92-1.55-3.25l1.09-.92zm1.88 4.23c-.04.8-.31 1.53-.67 2.22l-1.26-.66c.31-.58.49-1.1.51-1.63l1.42.07zm-.67 2.22c-.36.69-.85 1.4-1.4 2.18l-1.16-.82c.56-.78 1-1.43 1.3-2.02l1.26.66zm-1.4 2.18l-1.16-.82h.01l1.15.82zm0 0l-4.53 6.28-1.15-.83 4.52-6.27 1.16.83zm-4.53 6.28h-.01l-1.15-.82h.01l1.15.82zm-.02.02l-1.13-.85 1.13.85zm0 0c-1.61 2.13-2.68 3.4-4.12 4.22l-.7-1.23c1.15-.66 2.06-1.7 3.69-3.84l1.13.86zm-4.12 4.22c-1.2.68-2.6 1.02-4.52 1.5l-.34-1.38c1.99-.5 3.17-.79 4.16-1.35l.7 1.23zm-4.52 1.5l-.99.24-.34-1.37c.35-.1.67-.17.99-.25l.34 1.38zm-.99.24c-10.85 2.75-21.4 5.48-31.78 8.15l-.35-1.37a7176.7 7176.7 0 0 1 31.79-8.15l.34 1.37zm-31.78 8.15c-46.94 12.11-90.2 23.28-140.68 31.65l-.23-1.4c50.41-8.36 93.61-19.5 140.56-31.62l.35 1.37zm-141.5 31.07l-.23-1.4 1.4-.24.23 1.4-1.4.24zm.35-2.22c50.35-8.35 93.48-19.48 140.42-31.6l.36 1.38c-46.94 12.11-90.13 23.26-140.54 31.62l-.24-1.4zm140.42-31.6c10.38-2.67 20.95-5.4 31.82-8.15l.35 1.38c-10.87 2.75-21.43 5.48-31.81 8.15l-.36-1.37zm31.81-8.15l.36 1.37-.36-1.37zm.01 0l.99-.25.35 1.38-.99.25-.35-1.38zm.99-.25c2.05-.5 3-.75 3.8-1.2l.71 1.23c-1.02.57-2.2.86-4.16 1.35l-.35-1.38zm3.8-1.2c.87-.5 1.62-1.3 3.26-3.46l1.13.86c-1.62 2.14-2.53 3.17-3.68 3.83l-.71-1.24zm3.24-3.44h.01l1.15.82-.01.01-1.15-.83zm.74 1.4l-.58-.4.83-1.16.58.42-.83 1.15zm.28-1.56l.56.43-.85 1.13-.57-.43.86-1.13zm-1.01.15l4.52-6.26 1.15.83-4.52 6.26-1.15-.83zm5.26-4.86l-.58-.41.83-1.16.58.42-.83 1.15zm.25-1.57l.58.42-.83 1.15-.58-.42.83-1.15zm-.99.17l1.16.82h-.01l-1.15-.82zm0 0c.55-.77.94-1.35 1.2-1.84l1.25.65c-.3.6-.74 1.24-1.29 2.01l-1.16-.82zm1.2-1.84c.25-.49.33-.8.34-1.04l1.42.06c-.02.52-.2 1.05-.51 1.63l-1.25-.65zm.34-1.04c.02-.44-.17-1.08-1.45-2.54l1.06-.94c1.31 1.48 1.86 2.5 1.81 3.55l-1.42-.07zm-1.45-2.54l-.27-.3 1.07-.94.26.3-1.06.94zm-.41-.99l.12-.38 1.35.43-.12.39-1.35-.44zm.12-.38l4.42-13.62 1.35.44-4.42 13.61-1.35-.44zm4.42-13.62l.08-.24 1.35.44-.08.24-1.35-.44zm.39-.63l.22-.13.74 1.2-.22.14-.74-1.2zm.22-.13l.85-.52.73 1.21-.84.51-.74-1.2zm.85-.52c1.52-.92 3.15-1.92 4.19-3.05l1.05.95c-1.2 1.32-3.04 2.42-4.51 3.31l-.73-1.21zm4.19-3.05c.61-.66.86-1.21.88-1.67l1.42.07a4.18 4.18 0 0 1-1.25 2.56l-1.05-.96zm.88-1.67c.02-.4-.13-1.02-.99-1.88l1.01-1c1.05 1.05 1.44 2.03 1.4 2.95l-1.42-.07zm-.99-1.88l-.3-.3 1-1 .31.3-1.01 1zm-.48-1.02l.13-.42 1.36.44-.14.41-1.35-.43zm.13-.42c.28-.86.22-1 .21-1l1.36-.4c.14.45.07.94-.21 1.84l-1.36-.44zm.21-1a1.3 1.3 0 0 0-.18-.35l1.19-.77c.17.26.29.48.35.71l-1.36.4zm-.18-.35l-.33-.48 1.17-.81.35.52-1.19.77zm-.33-.48l-.29-.42 1.17-.8.29.4-1.17.82zm-.29-.43h-.01l1.18-.8.01.01-1.18.8zm-.01 0l-4.73-7.1 1.18-.79 4.73 7.1-1.18.78zm-4.73-7.1l-.13-.2 1.18-.78.13.2-1.18.78zm-.25-.63l.02-.24 1.41.08-.01.24-1.42-.08zm.02-.24c.17-3.07.39-6.15.62-9.22l1.41.1c-.22 3.07-.44 6.14-.62 9.2l-1.41-.08zm.62-9.22c.67-9.26 1.33-18.43.59-27.53l1.42-.11c.75 9.22.07 18.5-.6 27.74l-1.41-.1zm.59-27.53l1.42-.11-1.42.11zm0 0l-.03-.5 1.41-.11.04.5-1.42.1zm-.03-.5c-.07-.87-.11-1.48-.18-1.97l1.41-.19c.07.54.12 1.2.18 2.05l-1.41.1zm-.18-1.97a3.12 3.12 0 0 0-.27-1.06l1.26-.64c.22.41.33.88.42 1.51l-1.41.2zm-.27-1.06c-.11-.22-.3-.47-.71-.88l.99-1.01c.46.45.77.83.98 1.25l-1.26.64zm-.71-.88c-.35-.33-.78-.72-1.4-1.25l.94-1.07c.6.53 1.07.94 1.45 1.3l-.99 1.02zm-1.4-1.25l-.49-.44.94-1.06.49.43-.94 1.07zm-.48-.43l.93-1.07-.93 1.07zm-.01 0a167.86 167.86 0 0 0-5.81-4.82l.89-1.1c2.15 1.73 4.18 3.36 5.86 4.85l-.94 1.06zm-5.81-4.82l-1.68-1.35.89-1.1 1.68 1.35-.89 1.1zm-1.68-1.35a132.43 132.43 0 0 1-8.28-7.13l.98-1.02c2.54 2.43 5.42 4.8 8.19 7.04l-.89 1.1zm-8.27-7.12c-2.06-1.94-3.15-3.34-3.76-5.06l1.34-.48c.5 1.4 1.39 2.62 3.39 4.5l-.97 1.04zm-3.76-5.06a14.3 14.3 0 0 1-.61-2.63l1.4-.21c.14.9.3 1.66.55 2.36l-1.34.47zm-.61-2.63l-.19-1.29 1.41-.2.18 1.28-1.4.21zm-.19-1.29l-.03-.22 1.41-.2.03.22-1.41.2zm-.03-.22l-.26-1.78 1.4-.22c.11.66.19 1.26.27 1.8l-1.41.2zm-.26-1.77a387.42 387.42 0 0 0-6.19-29.37l1.38-.34a390.42 390.42 0 0 1 6.21 29.48l-1.4.23zm-6.19-29.37l-.02-.11 1.38-.33.02.1-1.38.34zm-.04-.32v-.11l1.42.1-.01.1-1.41-.1zm0-.11l.31-4.61 1.42.1-.31 4.6-1.42-.1zm1.69-3.82l-.71-.04.08-1.41.71.03-.08 1.42zm-.62-1.46l.71.05-.1 1.41-.7-.05.09-1.41zm-.76.66l1.42.1-1.42-.1zm0 .01c.17-3.08-.71-6.14-2.49-8.67l1.16-.82a15.25 15.25 0 0 1 2.75 9.57l-1.42-.08zm-2.46-8.63l-2.55-3.14 1.11-.9 2.54 3.15-1.1.89zm-2.55-3.14l-.12-.15 1.1-.9.13.15-1.11.9zm-.27-.5l-.03-.18 1.41-.22.02.2-1.4.2zm-.03-.18l-.53-3.47 1.41-.22.53 3.47-1.41.22zm-.53-3.47l-.1-.66 1.4-.22.11.66-1.41.22zm.46-1.47l.66-.13.29 1.38-.66.14-.29-1.39zm.66-.13c3.57-.75 5.3-1.67 6.23-2.78l1.08.91c-1.25 1.49-3.37 2.5-7.02 3.25l-.29-1.38zm6.23-2.78c.93-1.1 1.3-2.64 1.48-5.28l1.41.1c-.17 2.66-.56 4.62-1.81 6.1l-1.08-.92zm1.47-5.23c.01-.88.08-1.86.15-2.86l1.41.1a50.37 50.37 0 0 0-.14 2.76h-1.42zm.15-2.86l.11-1.7 1.42.09c-.03.58-.07 1.16-.12 1.71l-1.41-.1zm.2-1.3c-3.52-6.34-6.98-11.42-11.02-17.36l1.17-.8c4.04 5.94 7.54 11.06 11.09 17.46l-1.24.7zM1643 224.7l-.28-.41 1.17-.8.28.41-1.17.8zm-.28-.41l-.13-.18 1.18-.8.12.18-1.17.8zm-.25-.58v-.22h1.42v.22h-1.42zm0-.22v-4.6h1.42v4.6h-1.42zm0-4.6v-.1h1.42v.1h-1.42zm.03-.3l.03-.1 1.36.4-.03.1-1.36-.4zm.03-.1c1.18-3.97 2.11-8 2.77-12.1l1.4.23a97.2 97.2 0 0 1-2.81 12.27l-1.36-.4zm2.77-11.83l-.42-2.02 1.39-.29.42 2.02-1.39.29zm-.24-1.67l-5.18-5.45 1.03-.98 5.18 5.45-1.03.97zm-4.57-5.24c-6.57.83-13.22.69-19.75-.43l.24-1.4a65.93 65.93 0 0 0 19.33.42l.18 1.41zm-19.74-.43c-11.27-1.78-22.72-4.1-34.06-6.42l.29-1.39a795.4 795.4 0 0 0 33.99 6.41l-.22 1.4zm-34.06-6.42c-5.25-1.06-10.49-2.13-15.67-3.13l.27-1.4c5.19 1 10.43 2.07 15.69 3.14l-.29 1.4zm-15.48-3.12l-5.71.45-.12-1.41 5.72-.46.11 1.42zm-5.71.45l-.16.02-.12-1.42.16-.01.12 1.41zm-.47-.03l-.15-.06.5-1.32.15.05-.5 1.33zm-.15-.06c-64.45-24.59-133.29-49.33-200.14-64.92l.32-1.39c66.95 15.63 135.87 40.4 200.32 64.99l-.5 1.32zm-200.14-64.92l-.42-.1.32-1.38.42.1-.32 1.38zm-.95-.62l-.11-.42 1.38-.35.1.42-1.37.35zm-.11-.42l-.36-1.42 1.38-.35.36 1.42-1.38.35zm.73-2.18l318.41 213.75-.79 1.18-318.41-213.75.79-1.18zm206.61 67.77l-.1-.02.27-1.4.1.02-.27 1.4zm-.66-.85l.14-.7 1.39.27-.13.7-1.4-.27zm1.54-.62l.06.7-1.42.12-.05-.7 1.41-.12zm-.59 1.47h-.1l-.11-1.4.09-.02.12 1.42zm49.43 9.55l.24-1.4-.24 1.4zm-.58-.82l.12-.7 1.4.24-.12.7-1.4-.24zm1.52-.47l-.11.7-1.4-.22.11-.7 1.4.22zm-.92 1.3h-.01l.22-1.4h.01l-.22 1.4zm19.12.2l-.24-.25 1.03-.98.24.26-1.03.98zm-.22-1.26l.52-.49.97 1.03-.51.5-.98-1.04zm1.71-.06l.09.7-1.41.18-.09-.7 1.41-.19zm-.52 1.5l-.36.04-.18-1.4.36-.05.18 1.4zm4.03 4.93l-.04-.2 1.39-.29.04.2-1.39.29zm.51-1.04l.7-.14.29 1.39-.7.14-.29-1.39zm1.33 1.07l-.51.49-.98-1.03.51-.5.98 1.04zm-1.52.46l-.14-.14 1.03-.98.14.14-1.03.98zm.1 1.27l.02-.13 1.4.22-.02.13-1.4-.22zm.83-.72l.7.11-.22 1.4-.7-.1.22-1.4zm.73 1.51l-.69.15-.29-1.4.7-.14.28 1.39zm-1.53-.4l-.03-.13 1.39-.3.03.13-1.39.3zm8.6 34.88l.01-.2 1.42.07-.01.2-1.42-.07zm.76-.88l.7.04-.07 1.42-.71-.04.08-1.41zm1.01 1.37l-.62.34-.69-1.24.63-.34.68 1.24zm-1.58.07l-.1-.18 1.24-.69.1.18-1.24.69zm-.44 3.94v-.02l1.41.1v.02l-1.41-.1zm.75-.68l.71.05-.09 1.41-.71-.04.09-1.42zm.66 1.47h-.71v-1.42h.71v1.42zm-1.42-.71v-.03h1.42v.03h-1.42zm-5.47 16.83l-.01-.02 1.16-.82.01.02-1.16.82zm.16-1l.58-.42.82 1.16-.58.41-.82-1.16zm1.44.72l-.56.44-.89-1.1.55-.45.9 1.1zm-1.55.34l-.02-.02 1.1-.9.02.02-1.1.9zm8.36 43.01l1.4-.22-1.4.22zm.59-.81l.7-.11.22 1.4-.7.11-.22-1.4zm.93 1.29l-.71.11-.22-1.4.7-.11.23 1.4zm-1.52-.47l1.4-.23-1.4.23zm4.84 10.96l.98-1.03-.98 1.03zm-.02-1l.49-.52 1.02.98-.49.52-1.02-.99zm1.52.46l-.49.52-1.03-.98.48-.51 1.04.97zm-1.49.55l.97-1.04-.97 1.04zm1.05 109.49l-.17-.7 1.38-.34.17.7-1.38.34zm1.2-1.04l.18.69-1.38.35-.17-.69 1.37-.35zm-.34 1.56h.01l.01-.01h-.01-.01l-.34-1.38h-.01l-.01.01h.02l.34 1.38zm14.5-20.22l-.12.38-1.36-.44.13-.38 1.35.44zm-1.02.84l-.67-.22.43-1.35.68.22-.44 1.35zm-.92-1.43l.53-.47.94 1.07-.54.47-.93-1.07zm1.53-.4l.28.31-1.09.92-.26-.3 1.07-.94zm4.32-11.6l-.22.13-.75-1.2.23-.15.74 1.22zm-1.2-.1l-.37-.6 1.21-.75.37.6-1.21.75zm.45-1.65l.68.22-.44 1.35-.68-.22.44-1.35zm1.13 1.11l-.08.25-1.35-.44.08-.25 1.35.44zm5.33-9.76l-.13.43-1.35-.43.11-.38 1.37.38zm-1.02.9l-.68-.23.43-1.35.68.22-.43 1.35zm-.97-1.4l.51-.5 1 1-.5.5-1.01-1zm1.51-.5l.32.33-1.05.95-.27-.28 1-1zm-5.07-9.74l-.02.23-1.42-.08.02-.23 1.42.08zm-.77.9l-.7-.04.07-1.42.71.05-.08 1.41zm-1.06-1.34l.59-.4.79 1.2-.59.38-.79-1.18zm1.58-.2l.13.2-1.18.8-.14-.2 1.19-.8zm1.45-36.27l-1.42.12 1.42-.12zm-1.48-.59l.71-.06.12 1.42-.71.06-.12-1.42zm.82 1.36l-.71.06-.1-1.42.7-.05.11 1.41zm.66-.76l-1.42.11 1.42-.11z" fill="#1A1A1A"/><path d="M235.48 324.45l-8.58 4.14c-4.04 9.1-5.12 16.41-7.18 26l1.06 3.67 2.46.18M221.95 364.14l-4.41 2.06-1.53 3.82c-.93 16.72-.93 33.94 3.84 51.33M802.11 234.99c179.53-8.84 359.24-19.16 538.69-26.94 17.06-.73 39.48-1.63 54.38-10.58l22.09-14.98c8.31-5.64 3.56-9.93-3.71-12.8-39.02-15.46-121.79-33.32-168.77-40.28-100.12-14.85-197.98-22.6-298.99-10.6a347.03 347.03 0 0 0-87.2 21c-61.88 23.3-118.05 59.23-172.78 95.8l49.98 2.03M846.55 115.2c7.18 1.9 14.03 3.85 21.08 6.19-74.6 27.58-144.29 67.08-210.27 111.19l-25.92-2.21-7.98-1.33" stroke="#1A1A1A" stroke-width=".71"/><path clip-rule="evenodd" d="M1279.68 84.84l-9.17.22-7.43 7.87c-3.77.75-5.72.84-8.83 3.05-6.26 0-5.35-.6-9.9 3.16l15.46 3.34 6.28 2.52 9.99 2.58c.18-3.57 0-7.16-.53-10.7l4.95-12.04h-.82z" stroke="#1A1A1A" stroke-width="1.42"/><path d="M1365.06 123.82c-2.41 4.97-3.71 5.81-8.6 8.27 56.13 14.45 112.98 33.78 167.93 52.6a241.04 241.04 0 0 0 39.47 5.82l1.57-1.7M1356.46 132.1c-150.89-33.5-338.27-53.47-488.83-10.71" stroke="#1A1A1A" stroke-width=".71"/><path d="M807.09 229.62c119.31-5.42 238.63-11.1 357.95-17.04 62.93-3.1 127.15-4.93 189.92-10.87a37.76 37.76 0 0 0 16.13-4.97 157.56 157.56 0 0 0 24.2-14.67c7.4-5.84 5.81-8.97 1.34-11.32-9.47-4.92-25.54-9.94-43.22-14.56a1136.1 1136.1 0 0 0-151.18-27.84c-98-11.75-198.07-14.76-293.75 2.7-64.08 11.69-151.47 63.17-206.26 101.48l25.38.62 8.84-.4M1281.93 140.41l33.43 64.55M1257.91 136.22l37.52 70.04M1034.92 118.92l-30.21 101.46M1065.85 118.85l-15.04 99.32" stroke="#1A1A1A" stroke-width=".71"/><path d="M1051.23 118.78l-22.63 100.45-1.39 4.16c-9.9 34-12.27 53.03-16.71 88.87-.95 39-1.83 74.86-.88 113.95l2.96 17.48M1640.67 198.3l.44 3.17-1.57 3.33-15.6 10.26-45.14 26.69a522.4 522.4 0 0 1 29.6 78.9l36.24 14.52c4.39 1.9 9.23 2.5 13.95 1.72 7.71-.64 16.35-1.4 22.95-4.2" stroke="#1A1A1A" stroke-width=".71"/><path d="M1655.43 241.55l-5.93-2.54c-16.5-.74-33.04-.35-49.49 1.15l-7.96-.62-4.95 3.3c-2.82 1.87-1.94 4.17-.59 7.06l13.56 30.23c17.68-.7 34.47-1.44 52.02-3.43" stroke="#1A1A1A" stroke-width=".71"/><path clip-rule="evenodd" d="M1651.23 243.67a412.03 412.03 0 0 0-47.49 3.12l7.58 26.51 8.49-1 1.26-15.73c.31-3.77.57-6.05 4.88-6.62 9.35-1.42 17.68-2.01 27.13-2.66l-1.85-3.62z" stroke="#1A1A1A" stroke-width=".71"/><path d="M1523.78 184.5l33.56 13.43c23.67 4.13 46.69 9.35 70.38 14.74l4.7 4.7c-.42 10.41-.31 11.67 3.3 21.22" stroke="#1A1A1A" stroke-width=".71"/><path d="M1646.7 206.53l-3.65 4.02-18.34 10.4-18.98 10.55-13.79 8.04M1600.07 280.13l6.77 19.07c8.83 25.06 5.03 27.75-21.88 32.15l-102.7 16.8" stroke="#1A1A1A" stroke-width=".71"/><path clip-rule="evenodd" d="M1671.78 371.48c-7.8 2.9-15.77 5.32-23.87 7.26l-8.48 8.42.68 1.84c12.09-1.4 27.07-3.34 38.07-8.84l-6.4-8.68z" stroke="#1A1A1A" stroke-width=".71"/><path d="M1610.66 435.27l-97.84 19.64c1.08-39.35-3.19-76.1-30.54-106.77-27.93-31.26-65.58-45.2-101.64-43.1-93.16 5.4-124.41 91.27-112.58 169.87" stroke="#1A1A1A" stroke-width="1.42"/><path clip-rule="evenodd" d="M763.27 197.56c-5.26 2.7-13.52 7-19.07 10.16-9.53 5.46-7.45 14.96-7.74 27.2 0 2.87-7.49 20.33-7.49 20.33l30.28-1.83c1.1-2.66 1.9-5.13 2.96-7.23a9.99 9.99 0 0 1 9.5-6.03l17.68-1.02c7.64-.44 20.26-6.05 17.94-14.52-3.32-12.06-8.27-26.25-22.1-30.29-6.76-1.99-16.2.26-21.96 3.23z" stroke="#1A1A1A" stroke-width=".71"/><path d="M1578.76 242.1l.36.03-.03.36-.36-.03.03-.36zm-141.08-7.84v.35h-.36l.01-.36h.35zm141.15 7.14l.03-.36.35.03-.03.36-.35-.03zm-141.13-7.85h-.36l.01-.36h.35v.36zm-73.67.7h.35l.01.36h-.35l-.01-.35zm-86.03 4.27l-.02-.35.02.35zm86.01-4.97l-.01-.36h.36l.01.35-.36.01zm-86.06 4.26l.03.36-.03-.35zm0 0l-.03-.35.03.35zm-36.11 2.9l.03.36-.03-.35zm-107.63 7.31l.01.36-.01-.36zm-395.53 18.03l.02.36-.02-.36zm-180.13 2.8v-.35.36zm-193.03 24.02l-.34.1-.1-.33.33-.1.1.33zm.2.68l.11.34-.33.1-.11-.34.34-.1zm192.83-23.98v-.36.36zm180.16-2.8l.02.35-.02-.36zm395.52-18.04l.36-.01.01.35-.35.02-.02-.36zm-.01-.35l-.36.01.71-.03-.35.02zm.01.35l.02.36-.36.01-.01-.35.35-.02zm107.68-7.3l-.03-.36.03.35zm336.82 1.03c-46.89-4.2-93.96-6.94-141.05-7.85l.01-.7c47.11.9 94.2 3.64 141.11 7.84l-.07.7zm.45-1.03l-.06.7-.71-.06.06-.7.71.06zm-141.48-8.24c47.13.91 94.23 3.65 141.16 7.85l-.06.7c-46.91-4.19-94-6.93-141.11-7.84l.01-.7zm-.37 1.06l.01-.7h.71l-.01.72-.71-.02zm-73.29.36c-28.7.67-57.37 2.09-86.01 4.27l-.05-.71c28.65-2.18 57.33-3.6 86.04-4.26l.02.7zm.33-1.07l.01.71-.71.02-.01-.71.71-.02zm-86.45 3.92c28.67-2.18 57.36-3.6 86.08-4.27l.02.72c-28.71.66-57.39 2.08-86.04 4.26l-.06-.7zm0 0l.06.7-.06-.7zm-36.11 2.9c12.02-.98 24.05-1.97 36.11-2.9l.06.7a7697 7697 0 0 0-36.11 2.91l-.06-.7zm-107.62 7.3c35.99-1.43 71.73-4.36 107.62-7.3l.06.71c-35.89 2.94-71.64 5.87-107.65 7.3l-.03-.7zM738.66 265.7c131.5-6.5 262.38-12.73 395.53-18.03l.03.7c-133.15 5.31-264.03 11.54-395.52 18.04l-.04-.71zm-180.11 2.8c59.7.07 121 .12 180.11-2.8l.04.7c-59.13 2.93-120.45 2.88-180.15 2.81v-.7zM365.4 292.53c64.87-20.11 125.96-24.03 193.14-24.03v.71c-67.15 0-128.16 3.92-192.93 24l-.2-.68zm-.02 1.13l-.21-.68.68-.21.2.68-.67.2zm193.16-23.74c-67.13 0-128.05 3.91-192.72 23.97l-.2-.68c64.76-20.08 125.77-24 192.92-24v.71zm180.18-2.8c-59.15 2.92-120.48 2.87-180.19 2.8v-.7c59.71.06 121.03.1 180.16-2.81l.03.7zm395.52-18.03c-133.15 5.3-264.02 11.53-395.52 18.03l-.03-.71c131.5-6.5 262.37-12.73 395.52-18.03l.03.7zm.32-.73l.02.36-.71.03-.02-.36.71-.03zm-.69.39l-.02-.36.71-.03.02.36-.71.03zm108.06-6.97c-35.89 2.94-71.67 5.87-107.69 7.3l-.03-.7c36-1.44 71.77-4.37 107.66-7.31l.06.7zm36.09-2.9a7798.3 7798.3 0 0 0-36.09 2.9l-.06-.71c12.01-.98 24.04-1.97 36.1-2.9l.05.7z" fill="#1A1A1A"/><path d="M234.68 327.6l10.25-3.48a87.83 87.83 0 0 0 6.52 20.73c27-2.21 52.81-4.29 80-5.2 10.84-16.32 22.09-30.93 34.33-46.26-46.4-2.03-82.29 6.4-120.96 29.28l-9.32 3.38M1686.32 384.12c-5.57 4.41-15.89 7.55-22.72 10.31-19.47 14.03-36.97 27.82-55.66 43.05l22.96-3.36" stroke="#1A1A1A" stroke-width=".71"/><path d="M1681.1 393.44l-19.89 7.87c-14.25 11.2-27.48 22.6-41.14 34.44" stroke="#1A1A1A" stroke-width=".71"/><path d="M1677.01 407.18l.13-.33.33.12-.12.33-.34-.12zm-6.1 5.63l-.17-.32.17.32zm5.44-5.89l-.33-.12.13-.34.33.13-.13.33zm-5.77 5.26l-.16-.32.16.32zm-10.44 3.74l-.1-.34.1.34zm-15.22 3.18l-.06-.35.06.35zm-5.17.97l-.35.07-.07-.34.35-.08.07.35zm.15.7l.07.34-.34.08-.08-.35.35-.07zm5.09-.96l.06.35-.06-.35zm15.33-3.2l.09.34-.09-.34zm-20.53 3.46l-.36.03-.03-.35.35-.04.04.36zm20.68-2.87l-.07-.35.07.35zm-20.61 3.57l.04.36-.35.03-.04-.35.35-.04zm20.74-2.88l.07.35-.07-.35zm17.69-5.84l.3-.2.2.3-.3.2-.2-.3zm-.39-.59l-.2-.3.29-.19.2.3-.29.2zm-.55-4.16c-.92 2.4-3.3 4.3-6.28 5.82l-.33-.63c2.95-1.51 5.12-3.3 5.94-5.44l.67.25zm-.87-.7l.66.25-.25.66-.67-.25.26-.67zm-6.06 5.26c2.9-1.5 4.88-3.18 5.6-5.06l.66.25c-.82 2.14-2.99 3.93-5.94 5.44l-.32-.63zm-10.38 3.72a53.31 53.31 0 0 0 10.38-3.72l.32.63a53.63 53.63 0 0 1-10.51 3.77l-.19-.68zm-15.18 3.17c4.37-.79 9.92-1.78 15.18-3.17l.19.68c-5.3 1.4-10.88 2.4-15.25 3.19l-.12-.7zm-5.18.97c1.37-.29 3.15-.6 5.18-.97l.12.7c-2.03.36-3.8.68-5.15.97l-.15-.7zm-.13 1.12l-.15-.7.7-.14.15.7-.7.14zm5.5-.68c-2.01.36-3.75.67-5.08.95l-.14-.7c1.33-.28 3.09-.59 5.1-.95l.12.7zm15.36-3.21c-5.33 1.4-10.98 2.42-15.36 3.2l-.12-.7c4.38-.78 10.01-1.79 15.3-3.19l.18.69zm10.66-3.83a54.53 54.53 0 0 1-10.66 3.83l-.18-.69a53.63 53.63 0 0 0 10.51-3.77l.33.63zm-31.32 6.6a264.3 264.3 0 0 0 20.65-2.87l.14.7a265.62 265.62 0 0 1-20.71 2.87l-.08-.7zm-.24 1.09l-.08-.7.71-.08.08.7-.71.08zm21.16-2.57a264.93 264.93 0 0 1-20.77 2.88l-.07-.7c5.94-.64 13.58-1.52 20.71-2.87l.13.7zm17.82-5.9c-3.98 2.68-10.7 4.55-17.82 5.9l-.13-.7c7.12-1.35 13.71-3.2 17.56-5.78l.39.59zm-.3-1.08l.4.6-.59.39-.4-.59.59-.4zm-17.79 5.59c7.12-1.36 13.59-3.19 17.3-5.68l.4.59c-3.85 2.58-10.44 4.43-17.56 5.79l-.14-.7z" fill="#1A1A1A"/><path clip-rule="evenodd" d="M1363.25 228.8l2.49 15.27c1.53 9.41 8.44 9.85 16.31 9.85h42.51c8.02 0 12.53-1.59 13.26-9.72.55-4.83.34-9.7-.62-14.47-1.61-9.48-9.5-11.05-17.83-11.05-14.67-.11-29.39-.3-44.04.49-7.44.42-13.5.84-12.08 9.63z" stroke="#1A1A1A" stroke-width=".71"/><path d="M1274.04 138.98l34.39 66.46 3.49 3.9 15.84 16.9c7.12 7.6 7.03 12.44 4.42 19-18.91 46.6-70.07 114.68-105.62 163.33-19.89 27.1-40.17 29.7-77.87 30.8-181.76 5.27-363.48 13.02-545.24 19.32M807.46 228.34c-19.71.13-46.75.57-70.97 2.8M680.76 239.87c-125.95 0-354.42 2.21-445.28 83.28" stroke="#1A1A1A" stroke-width=".71"/><path clip-rule="evenodd" d="M704.78 270.01l-86.57.75 15.64 11.87 84.08-3.14-13.15-9.48z" stroke="#1A1A1A" stroke-width=".71"/><path clip-rule="evenodd" d="M713.9 278.38l-9.7-6.12-38.93.42-9.39 5.2-19.42.68-10.7-6.98-4.77.04 12.48 8.93 80.43-2.17z" stroke="#1A1A1A" stroke-width=".71"/><path d="M1529.9 451.46c-1-28.28-2.21-45.27-7.29-61.67-20.31-64.8-78.98-99.96-136.54-100.27-101.51-.55-144.86 98.95-135.76 181.88l-631.6 12.99c-.75-45.96 0-68.66-15.46-105.42-21.88-52.02-76.15-80.28-129.44-79.7-60.21.66-100.36 32.5-121.16 76.93-15.29 32.7-19.66 72.26-15.97 111.06" stroke="#1A1A1A" stroke-width=".71"/><path d="M603.42 489.5c1.53-32.84-1.37-80.44-16.1-110.36-19.58-39.77-59.66-66.49-111.24-65.12a131.72 131.72 0 0 0-83.06 33.15c-38.82 34.65-46.4 94.55-38.42 143.51" stroke="#1A1A1A" stroke-width="1.42"/><path d="M1254.8 369.8c-197.06 11.38-451.1 28.1-585.24 46.62l-53.03 12.75" stroke="#1A1A1A" stroke-width=".71"/><path d="M1578.78 242.1l.35.02-.01.35-.36-.01.02-.36zM1438 237.68v.36h-.36v-.36h.36zm140.81 3.71l.02-.35.36.02-.02.35-.36-.02zM1438 236.97h-.36l.01-.35h.35v.35zm-73.24 2.04l.36-.01.01.35-.35.02-.02-.36zm-50.3 2.94l.03.35-.03-.35zm50.27-3.65l-.01-.35.35-.02.02.36-.36.01zm-50.32 2.94l.03.35h-.01l-.02-.35zm-115.14 8.5l.03.36-.03-.35zm-46.36 3.59l.03.35h-.01l-.02-.35zM726.46 272.9l.02.36-.02-.36zm-17.07.2l-.36-.01.01-.35h.36l-.01.36zm-.03.71v.36l-.36-.02v-.35l.36.01zm17.14-.2l.35-.02.02.36-.35.02-.02-.36zm-.02-.35l-.36.02.71-.04-.35.02zm.02.35l.02.36-.36.02-.02-.36.36-.02zm426.45-19.58l-.02-.35.02.35zm.01 0l.36-.02.02.37-.36.01-.02-.35zm0 0l-.35.03-.02-.35.34-.03.03.35zm46.37-3.57l-.03-.36.03.36zm115.13-8.51l.02.35-.02-.35zm-695.75 29.5h.35v.36h-.36v-.36zm-254.4 24.13l.12.34-.34.1-.1-.33.33-.1zm254.41-24.84v-.36h.36v.36h-.36zM364.1 294.9l-.34.1-.1-.33.33-.11.11.34zm1214.66-52.45c-48.94-2.41-94.71-4.29-140.76-4.42v-.71c46.07.13 91.85 2.01 140.8 4.42l-.04.7zm.41-1.05l-.04.71-.71-.03.04-.71.71.03zm-141.17-4.8c46.09.14 91.89 2.02 140.83 4.43l-.03.7c-48.95-2.4-94.73-4.28-140.8-4.41v-.71zm-.36 1.07v-.7h.71v.7h-.71zm-72.86 1.69c-16.46.68-33.13 1.63-50.29 2.93l-.05-.7a1468.3 1468.3 0 0 1 50.31-2.94l.03.7zm.31-1.08l.03.7-.71.03-.03-.7.71-.03zm-50.71 2.6c17.18-1.3 33.87-2.26 50.34-2.94l.03.7a1468.3 1468.3 0 0 0-50.31 2.94l-.06-.7zm-115.14 8.5c38.37-2.98 76.74-5.97 115.15-8.5l.04.7c-38.4 2.54-76.76 5.53-115.13 8.51l-.06-.7zm-46.35 3.58c15.45-1.17 30.9-2.37 46.35-3.58l.06.71c-15.45 1.2-30.9 2.4-46.36 3.58l-.05-.7zm-426.45 19.58c142.54-7.82 283.9-14.12 426.46-19.58l.03.71c-142.56 5.46-283.91 11.76-426.45 19.58l-.04-.71zm-17.04.2c6.03.2 10.94.13 17.04-.2l.04.7c-6.12.34-11.05.4-17.1.2l.02-.7zm-.4 1.05l.03-.71.71.02-.02.71-.71-.02zm17.52.17c-6.14.33-11.1.4-17.17.2l.02-.71c6.06.2 10.99.13 17.1-.2l.05.7zm.31-.73l.02.35-.7.04-.03-.35.71-.04zm-.69.4l-.02-.36.71-.04.02.35-.7.04zm426.82-19.25c-142.56 5.46-283.9 11.75-426.44 19.58l-.04-.71c142.54-7.82 283.89-14.12 426.45-19.58l.03.71zm.02 0h-.02l-.03-.7.02-.01.03.71zm.34-.38l-.71.05.71-.05zm46.04-3.2c-15.45 1.2-30.91 2.4-46.37 3.58l-.06-.7c15.47-1.18 30.92-2.39 46.37-3.59l.06.7zm115.12-8.5c-38.4 2.53-76.75 5.51-115.12 8.5l-.06-.7c38.37-3 76.73-5.98 115.14-8.52l.04.71zm.01 0h-.01l-.05-.72h.01l.05.71zM618.7 271.8c-93.11-1.49-184.24 1.46-254.27 24.1l-.22-.67c70.16-22.69 161.4-25.63 254.5-24.15v.71zm.38-1.07l-.02.71h-.7v-.72l.72.01zm-255.09 23.83c70.28-22.74 161.63-25.67 254.74-24.19l-.02.71c-93.1-1.48-184.35 1.46-254.5 24.15l-.22-.67zm0 1.12l-.23-.68.68-.21.22.67-.68.22z" fill="#1A1A1A"/><path clip-rule="evenodd" d="M360.28 297.23c-36.62-.22-83.15 3.45-112.14 27.45 1.08 8.22 1.59 11.22 5.54 18.22 25.06-2.87 52.02-6.51 77.16-6.18 9.68-17.44 15.98-24.97 29.44-39.49z" stroke="#1A1A1A" stroke-width=".71"/><path d="M360.28 297.23a429.15 429.15 0 0 0-100.94 21.37l-.46 4.29a673.17 673.17 0 0 1 68.8-13.26L317 326.75l8.42-1.52 14.07-18.78 16.93-4.97M322.74 344.23c-33.83 1.68-66.82 4-100.1 10.4 8.9-4.99 18.11-9.41 27.58-13.25" stroke="#1A1A1A" stroke-width=".71"/><path clip-rule="evenodd" d="M256.91 354.48a49.8 49.8 0 0 0-4.22 11.4c-.66 2.46.2 3.06 2.67 2.83l8.69-.8c2.34-.21 2.98-1.38 3.93-3.42 1.4-2.98 2.21-6.05 3.36-9.14 1.15-3.1.38-4.14-2.34-4.05-2.72.09-5.04.16-7.58.33a4.42 4.42 0 0 0-4.51 2.85z" stroke="#1A1A1A" stroke-width=".71"/><path d="M330.51 339.63l-8.55 17.15-1.06 4.89 1.22 2.76 5.5 1.52 16.37.16 32.13.42" stroke="#1A1A1A" stroke-width=".71"/><path clip-rule="evenodd" d="M298.87 371.6c-25.43 2.4-38.89 4.96-60.08 12.65-12.33 4.42-13.9 8.26-14.91 17.34a205.25 205.25 0 0 0-.18 41.99c26.52-.69 53.03-2.21 79.55-3.76l-7.5-25.34c-4.9-16.6-7.2-27.82-25.5-24.31-14.95 2.83-26.7 4.42-41.98 10.12.58-7.25 8.05-10.3 14.28-12.55a420.84 420.84 0 0 1 56.32-16.13z" stroke="#1A1A1A" stroke-width=".71"/><path d="M278.96 389.62c-11.05 3.6-30.82 8.83-38.93 14.34-8.11 5.5-5.99 21.83-5.53 30.05-6.25 3.56-9.72 4.93-10.78 9.57" stroke="#1A1A1A" stroke-width=".71"/><path d="M256.31 420.96l-.35-.03.35.03zm1.42-14.67l-.36-.04.04-.35.35.03-.03.36zm-1.42 14.67l-.35-.03.35.03zm0 .02l.36.03-.36-.03zm-1.32 8.1l.33.12-.33-.12zm-4.15 4.42l.07.35h-.06v-.35zm-16.34.15h-.35v-.35h.35v.35zm0 .71l.01.36h-.35v-.35h.35zm16.38-.15v.35-.35zm.03 0l.07.35h-.06v-.35zm.03 0l.07.34-.07-.35zm4.72-4.9l.34.11-.34-.11zm1.35-8.22l.36.04-.36-.04zm.01-.06l-.35-.04.35.04zm0 0l-.35-.04.35.04zm1.42-14.67l.03-.36.35.04-.03.35-.36-.03zm18.61-13.62l.1.35-.1-.34zm.4-.11l-.1-.34.4-.12.05.41-.35.05zM257 398.67l-.1-.34.1.34zm0 0l-.1-.34.1.34zm-13.82 5.68l-.17-.31.17.3zm-8.48 7.5l-.18.3-.3-.17.17-.31.3.18zm.61.35l.3.18-.17.3-.3-.17.17-.31zm8.22-7.24l.18.31-.18-.3zm13.67-5.61l-.1-.34.1.34zm19.65-5.8l-.1-.35.4-.11.05.4-.35.05zm.76 5.64l.35-.05.04.29-.27.1-.12-.34zm-43.23 15.04l-.34.12-.11-.34.33-.12.12.34zm.23.67l.12.33-.34.12-.11-.34.33-.11zm43.5-15.14l.13.34-.12-.34zm.28-.1l.36-.04.03.29-.27.1-.12-.34zm-.04-.28l-.35.05.35-.05zm-.86-6.34l.35-.05-.35.05zm-21.54 27.88l1.41-14.67.71.07-1.41 14.67-.7-.06zm0 0l.7.07-.7-.06zm0 .02v-.01l.7.06v.02l-.7-.07zm-1.31 8.03c.76-2.3 1.04-5.22 1.3-8.03l.72.07c-.27 2.79-.55 5.78-1.35 8.19l-.67-.23zm-3.87 4.18c1.93-.37 3.1-1.88 3.87-4.18l.67.23c-.8 2.4-2.1 4.2-4.41 4.65l-.13-.7zm-16.28.15l16.34-.16v.71l-16.34.16v-.71zm-.35 1.07v-.71l.7-.01.01.71h-.7zm16.73.2l-16.37.15V434l16.37-.16v.71zm.04 0h-.03l-.01-.72h.03v.71zm.09-.02h-.03l-.13-.7h.03l.13.7zm4.99-5.13c-.84 2.5-2.28 4.63-5 5.13l-.12-.7c2.33-.43 3.64-2.25 4.44-4.65l.68.22zm1.37-8.3c-.26 2.76-.55 5.82-1.37 8.3l-.68-.22c.8-2.4 1.08-5.36 1.34-8.14l.7.07zm0-.06v.07l-.7-.07v-.07l.7.07zm0 0l-.7-.07.7.07zm1.42-14.67l-1.42 14.67-.7-.07 1.41-14.67.7.07zm-1.03-.46l.7.07-.06.7-.7-.06.06-.7zm19.19-13.53l.4-.11.2.68-.4.12-.2-.69zm-20.04 5.93l20.04-5.93.2.69-20.04 5.92-.2-.68zm0 0l.2.68-.2-.68zm-13.9 5.7a67.06 67.06 0 0 1 13.9-5.7l.2.68a66.31 66.31 0 0 0-13.74 5.64l-.35-.61zm-8.61 7.64c1.63-2.84 4.71-5.4 8.62-7.63l.35.61c-3.86 2.2-6.82 4.7-8.36 7.37l-.61-.35zm.74.84l-.61-.36.35-.61.62.35-.36.62zm8.58-7.24c-3.81 2.18-6.65 4.6-8.1 7.1l-.6-.35c1.53-2.67 4.49-5.16 8.35-7.37l.35.62zm13.6-5.58a65.64 65.64 0 0 0-13.6 5.58l-.35-.62a66.31 66.31 0 0 1 13.74-5.64l.2.68zm19.63-5.8l-19.64 5.8-.2-.68 19.64-5.8.2.67zm.32 5.35l-.77-5.65.7-.1.77 5.65-.7.1zm-43 14.65l43.23-15.04.24.67-43.24 15.04-.23-.67zm.02 1.13l-.24-.67.67-.24.24.67-.67.24zm43.96-14.92l-43.51 15.13-.24-.67 43.51-15.13.24.67zm.27-.1l-.27.1-.24-.67.28-.1.23.67zm.2-.67l.03.29-.7.1-.04-.3.7-.09zm-.87-6.34l.87 6.34-.7.1-.87-6.34.7-.1zm-.05-.41l.05.41-.7.1-.05-.41.7-.1z" fill="#1A1A1A"/><path d="M303.22 439.82l5.04 22.74-19.88.37c-18.79.36-37.37.4-56.13 0L229 453.3" stroke="#1A1A1A" stroke-width=".71"/><path d="M227.08 446.03l58.62-1.99c6.03 6.45 6.28 6.25 9.64 14.98-5.93 5.02-43.71 3.8-52.28 4.05" stroke="#1A1A1A" stroke-width=".71"/><path d="M231.06 459.57l33.05.25 27.07-.62 16.09-.75M306.45 454.65l-21.68.26-31.04 1.08-23.75.42M351.86 462.12l-43.69.44M351.92 463.95l-94.48 1.59h-22.56c-6.3 0-11.98-.55-18.2-1.13" stroke="#1A1A1A" stroke-width=".71"/><path d="M1250.34 279.31v.36h-.01l.01-.36zm17.77-.42l.02.36h-.02v-.36zm-23.39-.62l-.15.32.15-.32zm-2.89-3.15l-.13-.33.33-.13.13.33-.33.13zm-.66.26l-.33.13-.13-.33.33-.13.13.33zm3.24 3.53l.16-.32-.16.32zm5.92 1.11l.01-.35-.01.35zm0 0l.01.36h-.02l.01-.36zm.01 0v-.35.35zm17.79-.42l.01.36-.01-.36zm.01 0l.03.35h-.02l-.01-.35zm.01 0l.03.35-.03-.35zm9.13-6.35l.15-.32.32.15-.14.32-.33-.15zm-.64-.3l-.32-.14.14-.32.33.14-.15.32zm3.04-14.7l.05.36-.36.04-.04-.35.35-.05zm-4.18-5.39l.16-.32-.16.32zm4.88 5.3l.36-.04.04.35-.35.05-.05-.35zm-4.55-5.93l-.17.31.17-.31zm-7.79-1.44l.04.35-.04-.35zm-14.96 1.45l.03.36h-.03v-.36zm-10.35 6.45l.32.16h-.01l-.31-.16zm-1.03 2.07l-.14.32-.33-.14.15-.32.32.14zm.65.3l.32.14-.14.32-.32-.14.14-.33zm1.01-2.04l.31.17-.31-.17zm0 0l.16-.33.33.17-.18.32-.31-.17zm0 0l-.16.3-.32-.15.16-.32.32.16zm9.74-6.07v-.35.35zm.02 0l.03.36h-.03v-.36zm.01 0l.04.36-.04-.36zm14.98-1.46l.04.36-.04-.36zm0 0l.04.36-.04-.36zm-17.78 27.47l17.77-.42.01.7-17.77.43-.01-.71zm-5.46-1c1.32.62 3.1.93 5.48 1l-.02.7c-2.42-.06-4.32-.38-5.76-1.07l.3-.64zm-2.71-2.97a5.18 5.18 0 0 0 2.71 2.96l-.3.64a5.9 5.9 0 0 1-3.07-3.34l.66-.26zm-1.12.06l.66-.26.26.66-.66.26-.26-.66zm3.22 4.18a6.57 6.57 0 0 1-3.42-3.73l.66-.25a5.9 5.9 0 0 0 3.07 3.34l-.31.64zm6.06 1.15c-2.46-.07-4.48-.4-6.06-1.15l.31-.64c1.45.7 3.35 1.01 5.77 1.08l-.02.7zm0 0l.02-.71-.02.7zm.03 0h-.01l-.01-.71h.01l.01.7zm17.79-.42l-17.79.42-.01-.71 17.78-.42.02.7zm.01 0h-.01l-.02-.71h.01l.02.7zm.03 0h-.01l-.06-.71h.01l.06.7zm9.43-6.56a11.3 11.3 0 0 1-9.43 6.55l-.06-.7a10.58 10.58 0 0 0 8.84-6.15l.65.3zm-.82-.77l.64.3-.29.64-.65-.3.3-.64zm-8.71 5.9a9.88 9.88 0 0 0 8.24-5.72l.64.3a10.58 10.58 0 0 1-8.83 6.13l-.05-.7zm11.25-20.23c-.29-2.3-1.84-4.02-3.99-5.12l.32-.64c2.29 1.19 4.04 3.07 4.37 5.67l-.7.09zm1.1.22l-.7.09-.09-.7.7-.1.09.7zm-4.44-6.6c2.42 1.24 4.38 3.3 4.75 6.2l-.71.09c-.33-2.6-2.08-4.48-4.37-5.66l.33-.64zm-7.98-1.49c2.6-.25 5.56.24 7.98 1.48l-.33.63a14.1 14.1 0 0 0-7.58-1.4l-.07-.7zm-14.97 1.46l14.97-1.46.07.71-14.97 1.46-.07-.71zm-10.63 6.64a12.07 12.07 0 0 1 10.67-6.64v.7a11.35 11.35 0 0 0-10.03 6.26l-.64-.32zm-1.03 2.09c.29-.66.63-1.36 1.04-2.1l.62.34c-.4.72-.73 1.4-1.01 2.05l-.65-.3zm.83.75l-.65-.29.29-.64.65.29-.29.64zm1.46-2.18c-.39.71-.71 1.38-1 2l-.64-.28c.28-.65.62-1.33 1.01-2.06l.63.34zm0 0l-.63-.34h.01l.62.33zm-.15-.5l-.32.64.32-.64zm9.58-5.38c-3.99.03-7.63 2.3-9.42 5.86l-.64-.32c1.92-3.8 5.8-6.22 10.06-6.25v.7zm.02 0h-.02v-.71h.01l.01.7zm.05 0h-.02l-.07-.71h.02l.07.7zm14.98-1.46l-14.98 1.46-.07-.71 14.98-1.46.07.7zm0 0l-.07-.71.07.7zm7.19 1.33a13.41 13.41 0 0 0-7.19-1.33l-.07-.71c2.47-.24 5.3.23 7.58 1.4l-.32.64z" fill="#1A1A1A"/><path clip-rule="evenodd" d="M1228.35 273.85c4.3.86 8.67 1.34 13.06 1.44l3.05-2.6c9.85-1.29 18.09-1.9 28.13-2.22l4.42 2.68c8.37-.51 12.15-.29 19.62-2.74 2.21-.75 2.98-1.8 3.22-3.12.4-2.2.33-4.46-.2-6.63-2.69-3.69-16.37-2.56-19.35-2.72l-3.21 2.61a231.07 231.07 0 0 0-37.36.49c-5.66.53-10.03.86-13.5 4.42-2.9 3-2.03 7.6 2.12 8.4z" stroke="#1A1A1A" stroke-width=".71"/><path d="M685.82 235.63c-11.05 9.8-12.64 18.56-17.24 32.48-8.99 65.43-3.77 123.74 6.88 188.04" stroke="#1A1A1A" stroke-width=".71"/><path clip-rule="evenodd" d="M1248.21 410.92c-7.99-17.35-98.39-18.8-111.78-19.27-145.22 8.04-289.7 20.42-434.33 36.15-30.07 3.27-45.12 8.09-72.78 19.89 205.03-11.4 424.49-22.54 618.89-36.77z" stroke="#1A1A1A" stroke-width=".71"/><path d="M1267.9 413.28l-48.23 3.65M1625.2 423.56c-28.73 3.49-57.81 6.63-86.51 10.16l-9.32.33M1626.21 422.58c-19.88-10.91-76.14 2.08-96.91 11.52" stroke="#1A1A1A" stroke-width=".71"/><path clip-rule="evenodd" d="M1387.13 540.56c-59.98 0-108.6-48.08-108.6-107.4 0-59.3 48.62-107.38 108.6-107.38s108.61 48.08 108.61 107.39c0 59.3-48.63 107.39-108.61 107.39z" stroke="#1A1A1A" stroke-width="1.42"/><path clip-rule="evenodd" d="M1387.13 518.61c-47.03 0-85.16-38.25-85.16-85.44 0-47.2 38.13-85.45 85.16-85.45 47.03 0 85.16 38.26 85.16 85.45 0 47.19-38.13 85.44-85.16 85.44z" stroke="#1A1A1A" stroke-width=".71"/><path clip-rule="evenodd" d="M1320.51 482.29a95.48 95.48 0 0 0 19.27 18.05c10.45-16.4 22.1-33.14 31.82-49.91 1.37-2.4 1.59-3.8 1.13-4.27-.47-.46-2.04.22-4.42 1.88l-47.8 34.25zM1345.04 504.16a75.55 75.55 0 0 0 25.74 10l7.69-50.26c1.3-8.15-2.58-9.6-6.87-2.6l-26.56 42.86zM1437.07 498.86a95.42 95.42 0 0 1-23.22 12.57c-5.95-18.51-13.02-37.7-18.08-56.36-.7-2.66-.57-4.1 0-4.42.58-.33 1.93.75 3.71 2.91l37.59 45.3zM1406 513.47a75.54 75.54 0 0 1-27.53 2.2l7.16-50.3c1.11-8.18 5.24-8.47 7.31-.52l13.06 48.62zM1442 494.42a75.62 75.62 0 0 0 17.12-21.68l-45.78-22.1c-7.43-3.62-9.94-.35-4.42 5.8l33.08 37.98zM1462.68 466.82c3.8-8.47 6-17.57 6.5-26.85l-50.82-.88c-8.27-.2-9.17 3.85-1.66 7.16l45.98 20.57zM1469.4 432.6a95.59 95.59 0 0 0-4.29-26.06c-18.27 6.63-37.78 12.8-55.64 20.24-2.54 1.06-3.58 2.06-3.49 2.7.09.64 1.77 1.06 4.58 1.15l58.84 1.96zM1461.69 399.07a75.73 75.73 0 0 0-15.18-23.09l-35.36 36.5c-5.79 5.9-3.47 9.33 4.09 6.1l46.45-19.5zM1441.8 372.03a75.55 75.55 0 0 0-22.78-15.62l-18.89 47.26c-3.12 7.64.33 9.94 6.09 4.11l35.58-35.75zM1412.34 354.35a95.3 95.3 0 0 0-26.09-4.06c.62 19.44.35 39.77 1.83 59.17.22 2.74.84 4.04 1.46 4.15.62.11 1.55-1.35 2.52-3.97l20.28-55.29zM1352.57 358.22a75.58 75.58 0 0 1 26.52-7.89l3.56 50.71c.64 8.24-3.36 9.37-7.05 2.03l-23.03-44.85zM1324.69 379.17a75.54 75.54 0 0 1 21.03-17.9l23.74 44.94c3.91 7.27.7 9.92-5.64 4.7l-39.13-31.75zM1319.63 384.84a95.16 95.16 0 0 0-11.56 23.76c18.76 5.12 38.23 11.35 57.1 15.62 2.67.6 4.11.38 4.42-.18.31-.55-.82-1.88-3.07-3.58l-46.89-35.62zM1306.77 415.98a75.6 75.6 0 0 0-1.17 27.6l50.02-8.97c8.14-1.4 8.27-5.55.25-7.34l-49.1-11.3zM1307.01 450.31a75.57 75.57 0 0 0 9.68 25.88l42.69-27.73c6.96-4.42 5.46-8.33-2.63-6.85l-49.74 8.7z" stroke="#1A1A1A" stroke-width=".71"/><path d="M250.81 433.85l15.71.73c5.7.27 11.82-1.68 11.47-8.35l-.82-14.83c-.22-4.13-2.03-5.74-5.96-6.03l-8.47-.64" stroke="#1A1A1A" stroke-width=".71"/><path d="M318.74 462.45l-23.27-63.75c-3.85-10.56-10.65-13.13-18.92-12.97a137.2 137.2 0 0 0-44.19 10.14l-4 3.12" stroke="#1A1A1A" stroke-width=".71"/><path d="M952.5 292.83v.36-.36zm17.77-.42l.03.36h-.02l-.01-.36zm-23.49-.62l.16-.32-.16.32zm-2.9-3.15l-.13-.33.33-.13.13.33-.33.13zm-.66.26l-.33.13-.13-.33.33-.13.13.33zm3.26 3.54l.15-.33-.15.32zm6.01 1.1v.36-.36zm0 0l.02.36h-.02v-.36zm.02 0v.36-.36zm17.79-.42v.36-.36zm0 0l.03.36h-.02v-.36zm.01 0l.03.36-.03-.36zm9.14-6.35l.15-.32.32.15-.15.32-.32-.15zm-.65-.3l-.32-.14.15-.32.32.14-.15.33zm3.05-14.82l.04.35-.35.05-.05-.35.36-.05zm-4.2-5.35l-.17.32.16-.32zm4.9 5.25l.35-.05.05.36-.35.04-.05-.35zm-4.58-5.88l-.16.31.16-.31zm-7.74-1.43l.04.36-.04-.36zm0 0l.03.36-.03-.36zm-14.97 1.46l.04.35h-.03v-.35zm-10.34 6.44l.31.16v.01l-.31-.17zm-1 2.06l-.15.32-.33-.15.15-.32.32.14zm.64.29l.32.14-.14.32-.33-.14.15-.32zm.98-2l.3.17-.3-.18zm0-.01l.32.15v.01l-.32-.16zm0-.01l-.31-.16.32.16zm9.75-6.06v.35-.35zm.01 0l.04.35h-.03v-.35zm.02 0l.03.35-.03-.35zm14.98-1.46l.03.35-.03-.35zm0 0l.04.35-.04-.35zm-17.8 27.53l17.76-.42.02.7-17.77.43-.02-.71zm-5.56-1c1.33.62 3.13.93 5.57 1l-.02.7c-2.47-.06-4.4-.37-5.86-1.07l.3-.64zm-2.73-2.97a5.16 5.16 0 0 0 2.73 2.96l-.3.64a5.87 5.87 0 0 1-3.09-3.34l.66-.26zm-1.12.06l.66-.26.26.66-.66.26-.26-.66zm3.24 4.19a6.58 6.58 0 0 1-3.44-3.73l.66-.26a5.87 5.87 0 0 0 3.08 3.34l-.3.65zm6.15 1.14c-2.5-.07-4.55-.39-6.15-1.14l.3-.65c1.47.7 3.4 1.01 5.87 1.08l-.02.7zm.01 0l.01-.71-.01.7zm.03 0h-.01l-.02-.71h.01l.02.7zm17.78-.42l-17.78.42-.02-.71 17.79-.42.01.7zm.01 0l-.02-.71.02.7zm.03 0l-.06-.71.06.7zm9.43-6.56a11.3 11.3 0 0 1-9.43 6.56l-.05-.71a10.58 10.58 0 0 0 8.84-6.14l.64.3zm-.82-.77l.65.3-.3.65-.64-.3.3-.65zm-8.7 5.91a9.87 9.87 0 0 0 8.23-5.73l.65.3a10.58 10.58 0 0 1-8.83 6.14l-.06-.71zm11.24-20.36c-.3-2.28-1.86-3.98-4-5.08l.32-.63c2.28 1.16 4.03 3.04 4.39 5.61l-.7.1zm1.1.2l-.7.1-.1-.7.71-.1.1.7zm-4.46-6.55c2.42 1.24 4.38 3.28 4.77 6.15l-.7.1c-.36-2.57-2.11-4.45-4.4-5.62l.33-.63zm-7.93-1.46c2.57-.26 5.52.23 7.93 1.46l-.32.63a14.08 14.08 0 0 0-7.54-1.38l-.07-.71zm0 0l.07.7-.07-.7zm-14.97 1.46l14.97-1.46.06.7-14.96 1.46-.07-.7zm-10.63 6.63a12.09 12.09 0 0 1 10.66-6.63v.7a11.38 11.38 0 0 0-10.03 6.25l-.63-.32zm-1.01 2.07c.28-.64.6-1.35 1.02-2.08l.62.34c-.4.7-.7 1.4-1 2.03l-.64-.29zm.82.76l-.64-.3.29-.64.65.3-.3.64zm1.44-2.15c-.38.67-.68 1.33-.97 1.97l-.64-.29c.28-.64.6-1.32.99-2.03l.62.35zm0-.01l-.62-.34.62.34zm.01-.02l-.63-.31v-.01l.63.32zm9.43-5.87c-4 .04-7.63 2.3-9.43 5.87l-.63-.32c1.92-3.8 5.8-6.22 10.05-6.26l.01.71zm.02 0h-.02v-.7h.01v.7zm.04 0h-.01l-.07-.7h.01l.07.7zm14.98-1.46l-14.98 1.46-.07-.7 14.99-1.46.06.7zm0 0l-.07-.7.08.7zm7.15 1.32a13.37 13.37 0 0 0-7.14-1.32l-.08-.7c2.46-.25 5.26.22 7.55 1.38l-.33.64z" fill="#1A1A1A"/><path clip-rule="evenodd" d="M930.4 287.33c4.3.86 8.68 1.34 13.06 1.44l3.05-2.6c9.84-1.29 18.12-1.9 28.13-2.22l4.42 2.68c8.37-.51 12.15-.3 19.62-2.74 2.21-.75 2.98-1.8 3.23-3.12.39-2.2.32-4.46-.2-6.63-2.7-3.69-16.38-2.56-19.36-2.72l-3.2 2.61a231.47 231.47 0 0 0-37.37.49c-5.65.53-10.03.86-13.5 4.42-2.91 3-2.05 7.62 2.12 8.4z" stroke="#1A1A1A" stroke-width=".71"/><path clip-rule="evenodd" d="M477.6 541.02c-59.97 0-108.6-48.08-108.6-107.39 0-59.3 48.63-107.38 108.6-107.38 59.99 0 108.61 48.07 108.61 107.38 0 59.31-48.62 107.39-108.6 107.39z" stroke="#1A1A1A" stroke-width="1.42"/><path clip-rule="evenodd" d="M477.6 519.08c-47.02 0-85.15-38.26-85.15-85.45 0-47.19 38.13-85.44 85.16-85.44 47.03 0 85.16 38.25 85.16 85.44 0 47.2-38.13 85.45-85.16 85.45z" stroke="#1A1A1A" stroke-width=".71"/><path clip-rule="evenodd" d="M410.99 482.75a95.34 95.34 0 0 0 19.26 18.06c10.46-16.4 22.1-33.15 31.82-49.92 1.37-2.39 1.6-3.8 1.13-4.26-.46-.47-2.03.22-4.42 1.87l-47.8 34.25zM435.54 504.63a75.55 75.55 0 0 0 25.74 10l7.69-50.24c1.3-8.15-2.59-9.61-6.87-2.6l-26.56 42.84zM527.54 499.32a95.34 95.34 0 0 1-23.22 12.62c-5.94-18.51-13.01-37.7-18.07-56.37-.71-2.65-.56-4.08 0-4.42.55-.33 1.92.76 3.7 2.92l37.6 45.25zM496.48 513.93a75.57 75.57 0 0 1-27.53 2.21l7.24-50.38c1.1-8.18 5.24-8.46 7.34-.5l12.95 48.67zM532.47 494.88c7-6.1 12.8-13.46 17.13-21.67l-45.79-22.1c-7.42-3.62-9.94-.35-4.42 5.79l33.08 37.98zM553.15 467.29c3.8-8.48 6-17.58 6.5-26.85l-50.82-.89c-8.26-.2-9.17 3.85-1.66 7.16l45.98 20.58zM559.9 433.06a95.36 95.36 0 0 0-4.3-26.05c-18.27 6.63-37.78 12.79-55.63 20.24-2.54 1.06-3.58 2.05-3.5 2.7.1.63 1.78 1.05 4.58 1.14l58.84 1.97zM552.18 399.54a75.54 75.54 0 0 0-15.18-23.1l-35.35 36.51c-5.8 5.9-3.47 9.32 4.09 6.1l46.44-19.51zM532.3 372.5a75.58 75.58 0 0 0-22.78-15.63l-18.92 47.18c-3.12 7.64.33 9.94 6.1 4.1l35.6-35.66zM502.7 354.84a95.36 95.36 0 0 0-26.09-4.07c.62 19.45.36 39.78 1.86 59.18.22 2.74.84 4.04 1.46 4.15.62.11 1.54-1.35 2.52-3.98l20.26-55.28zM443.05 358.68a75.55 75.55 0 0 1 26.51-7.89l3.52 50.67c.64 8.24-3.36 9.37-7.05 2.03l-22.98-44.8zM415.19 379.63a75.58 75.58 0 0 1 21.03-17.9l23.73 44.94c3.91 7.27.71 9.93-5.63 4.71l-39.13-31.75zM410.1 385.3a95.36 95.36 0 0 0-11.55 23.76c18.76 5.13 38.22 11.36 57.1 15.62 2.67.6 4.1.38 4.41-.17.31-.56-.81-1.88-3.07-3.58L410.1 385.3zM397.24 416.44a75.57 75.57 0 0 0-1.17 27.6l50.03-8.95c8.13-1.4 8.26-5.54.24-7.33l-49.1-11.32z" stroke="#1A1A1A" stroke-width=".71"/><path d="M615.84 222.33c-11.05-1.15-26.85-4.42-37.32-3.98-119 10.06-262.02 12.05-350.67 95.28v5.66c-20.57 40.5-16.38 68.67-15.07 114.55 0 3.44-.18 4.42 3.36 4.95l3.31.55 1.84 7.18-7.3 2.5c-4.7 1.61-4.55 5.52-4.95 10.03l3.52 3.05c56.1 10.6 110.94 17.67 167.7 25.36M1234.92 89.27C1113.87 72.22 953 71.5 844 109.5" stroke="#516EE4" stroke-width="16.42"/><g opacity=".19" fill="#363745"><path d="M309.92 153.38c-2.12 1.94-10.68 3.19-13.06 1.77a3 3 0 0 1-1.35-2.07c.08-.88.54-1.67 1.24-2.18 2-1.34 11.02-.18 13.18 1.55l-.01.93z"/><path fill-rule="evenodd" clip-rule="evenodd" d="M126.6 120.5c-.5-.67-.94-1.38-1.4-2.1-.98-1.55-1.96-3.1-3.36-4.14-4.16-3.16-8.4-6.2-12.66-9.24-3.79-2.72-7.58-5.43-11.31-8.23a8.92 8.92 0 0 1-3.2-5.02c-2.45-13.6-4.84-27.2-7.23-40.8v-.01c-1.94-11.08-3.88-22.15-5.86-33.22-.64-3.57.44-5.02 3.9-5.63 22.05-3.88 44.07-7.86 66.08-11.93 3.39-.63 5.03.38 5.62 3.92 1.58 9.25 3.18 18.5 4.79 27.74 2.65 15.3 5.3 30.6 7.84 45.9.28 2.21-.2 4.45-1.35 6.34a472.04 472.04 0 0 1-15.44 22.79c-2.66 3.7-3.28 7.1-2.37 11.54l.12.56c1.05 5.08 1.57 7.6 3.13 8.89 1.54 1.27 4.12 1.3 9.26 1.38h.2c2.99.05 5.93.63 8.72 1.7 4.63 1.82 9.23 3.73 13.83 5.63 4.78 1.99 9.56 3.97 14.38 5.84 3.29 1.29 4.91 2.98 4.54 6.75-.15 1.65-.05 3.45.05 5.23.2 3.3.38 6.54-1.09 8.63-1.48 2.12-4.62 3.01-7.8 3.92-1.63.46-3.28.93-4.72 1.57a96.7 96.7 0 0 1-47.72 8.1c-3.76-.3-7.56-.23-11.56-.15-1.89.04-3.81.08-5.8.08l2.75 11.27v.06h.01l2.36 9.66c.31 1.29.65 2.58.98 3.86.51 1.99 1.03 3.98 1.49 5.97 1.5 6.58-.91 10.73-7.46 12.35l-1.27.32c-8.38 2.1-16.77 4.2-25.22 6-3.2.67-4.9 2.06-6 5.22-2.24 6.4-4.55 12.76-6.86 19.13-4.18 11.54-8.36 23.08-12.16 34.73-1.4 4.28-1.4 9.1-1.42 13.83 0 1.16 0 2.31-.03 3.45-.2 10-3.28 12.77-12.81 11.17-12.1-2.03-24.2-4-36.27-5.91-12.31-1.95-17.04-8.32-14.94-20.87 5.89-35.03 11.8-70.05 17.98-105.01.91-5.15-.06-7.72-4.73-9.9-3.85-1.82-7.54-3.98-11.23-6.14-2.34-1.38-4.69-2.75-7.07-4.03-2.47-1.34-3.5-3.01-3.38-5.85.08-1.94.05-3.87.02-5.8-.03-2.7-.07-5.38.18-8.06a6.6 6.6 0 0 1 3.15-4.62c2.76-1.26 5.6-2.32 8.45-3.38 2.69-1 5.38-2 8-3.18a5.95 5.95 0 0 0 2.9-4.22c.6-9.24 2.29-11.34 11.18-12.2 4.37-.4 8.74-.85 13.11-1.29 13.1-1.31 26.18-2.63 39.31-3.32 5.8-.33 11.94 1.47 17.58 3.37 4.94 1.67 9.7 3.9 14.46 6.12 1.97.92 3.94 1.84 5.92 2.72l1.43-1.5zM75.94 264.64c-2.51-.37-5-.72-7.48-1.07h-.01c-7.1-1.01-14.07-2-21.02-3.14-.51-.08-1.11-.1-1.73-.11-2.27-.07-4.82-.14-4.3-3.38.5-3.12 3.04-2.46 5.25-1.9.58.16 1.14.3 1.63.37 7.97 1 15.92 2.19 23.98 3.4l5.8.87.77-1.9v-.02c.47-1.18.92-2.28 1.32-3.4l24.6-68.47c3.63-10.07 10.25-14.65 20.66-14.6 7.66.05 15.33.04 23 .02l11.5-.01c1.01 0 2.02-.1 3.05-.2l1.36-.13v-36.7l-4.3-.02c-2.75-.03-5.42-.06-8.1.02-7.31.27-14.26-.48-21.05-3.91-5.92-2.98-12-5.6-18.1-8.22-3.38-1.46-6.77-2.92-10.12-4.43a34.47 34.47 0 0 0-18.16-2.77 3689.3 3689.3 0 0 1-46.54 4.25l-.28.03c-8.8.77-8.94.78-8.9 9.82 0 3.3-1 5.11-4.17 6.04-2.34.68-4.62 1.6-6.89 2.53-.96.4-1.92.79-2.9 1.16-8.65 3.32-8.65 3.38-8.93 12.56l-.02.58c-.12 3.7 1.2 5.55 4.26 7.13 4 2.1 7.91 4.36 11.82 6.6 2.94 1.69 5.87 3.38 8.83 5 2.37 1.3 3.1 2.83 2.61 5.55-2.49 14.17-4.9 28.36-7.3 42.55l-3.6 21.1-2.38 13.92v.01a6130.08 6130.08 0 0 0-6.03 35.66c-1.2 7.19 2.05 11.57 9.08 12.71l3.58.58c12.11 1.97 24.2 3.96 36.28 5.95 2.66.44 5.13.37 5.21-3.16.1-4.06.07-8.11.03-12.22-.01-2.07-.03-4.16-.03-6.26l-3.08-.47-.11-.01H65l-.05-.01-.03-.01-6.59-.98-5.79-.82a409.6 409.6 0 0 1-15.75-2.42c-.8-.13-1.46-1.03-2.12-1.93-.3-.41-.61-.82-.93-1.16 1.16-.7 2.34-1.33 3.56-1.9.6-.11 1.23-.06 1.82.13l7.79 1.13h.02c6.23.92 12.45 1.82 18.68 2.75 5.14.78 5.58.43 6-5.54l-7.75-1.1a912.1 912.1 0 0 1-22.26-3.33c-1.04-.18-1.96-1.06-2.89-1.94-.42-.4-.85-.8-1.28-1.14.49-.2.99-.48 1.49-.76 1.11-.62 2.22-1.23 3.25-1.09l.44.05c9.01 1.06 18.06 2.11 26.95 3.9 4.75.86 5.87-1.19 6.37-5.71v-.03zm88.9-186.11l-65.37 11.8-12.7-73.08 65.38-11.79 1.82 10.46c-2.68.5-5.32.97-7.94 1.44a785.42 785.42 0 0 0-20.97 3.97c-1.12.23-2.07 1.17-3.02 2.1-.44.44-.88.88-1.34 1.24.52.17 1.06.4 1.6.61 1.29.54 2.59 1.08 3.77.9 8.03-1.25 16.02-2.73 24.44-4.28l4.35-.8 9.99 57.43zM109.5 98.69c3.78 2.6 7.23 4.97 10.35 7.73 5.28 4.61 10.72 6.26 17.37 3.9 1.05-.38 2.3-.55 3.52-.72 2.03-.27 4-.54 4.94-1.72 4.07-5.07 7.7-10.49 11.64-16.34 1.56-2.33 3.17-4.73 4.87-7.2l-58.24 10.48c1.92 1.38 3.77 2.65 5.55 3.87zm.7 87.33c1.74-4.74 4.72-8.14 10.65-9.07l.01.01 1.95 7.66a779.1 779.1 0 0 1 6.04 24.84c.3 1.37-1.42 4.39-2.72 4.75-6.93 1.95-13.93 3.61-21.31 5.37l-7.16 1.71 1.05-3.14c.86-2.55 1.6-4.8 2.4-7.02l2.01-5.59.01-.03c2.34-6.52 4.68-13.04 7.06-19.5zm59.83-15.78a19229.11 19229.11 0 0 1 22.7-7.72l.05-.02c7.04-2.4 7.14-2.44 6.91-10.1-.05-1.76-.63-4.55-1.76-5.06-6.9-3.11-13.88-5.96-21.03-8.88l-6.83-2.8-.04 34.58zm-22.84-41.95c-8.77 2.48-15.97-2.42-16.42-11.5l13.94-2.56 2.48 14.06zM38.01 335.02l3.85.54c2.87.83 4.11-.92 4.49-4.08.49-4.1 1.12-8.19 1.77-12.26.42-2.66-.61-4.08-3.22-4.45-5.21-.73-10.42-1.51-15.62-2.32-2.75-.43-3.86 1.01-4.23 3.5l-1.94 13.16c-.4 2.72.95 3.97 3.45 4.31 3.74.51 7.48 1.04 11.45 1.6zM30 317.87l12.72 1.99-1.46 10.26-2.89-.34c-2.7-.32-5.32-.62-7.9-1.13-.68-.13-1.52-1.69-1.52-2.61.1-1.87.39-3.73.7-5.77.11-.77.24-1.57.35-2.4z"/><path d="M44.07 109.9l-2.84-2.46c1.15-.92 2.18-2.48 3.46-2.77 3.38-.67 6.81-1 10.26-.98 1.3 0 2.58 1.34 3.87 2.07-1.2 1.03-2.28 2.69-3.63 2.98-3.21.72-6.55.75-11.12 1.16zM270.6 130.8c-.65-.44-2.5-1.2-2.46-1.8a4.42 4.42 0 0 1 1.99-3.28 31.1 31.1 0 0 1 7.8-2.12c1-.15 2.2.93 3.3 1.48-.71 1.14-1.17 2.86-2.17 3.29-2.41 1.05-5.12 1.52-8.46 2.43zM231.72 170.26a81.8 81.8 0 0 1-8.83-2.57c-.9-.37-1.24-2.04-1.81-3.1 1.08-.57 2.25-1.77 3.2-1.6 2.81.43 5.55 1.2 8.18 2.27a3.6 3.6 0 0 1 1.72 3.03c-.2.87-1.78 1.47-2.46 1.97zM270.66 175.25c3 .68 5.95 1.53 8.85 2.55.9.35 1.2 2.05 1.81 3.14-1.1.56-2.27 1.7-3.27 1.57a30.91 30.91 0 0 1-7.79-2.15 4.44 4.44 0 0 1-2.04-3.25c-.1-.63 1.75-1.38 2.44-1.86zM247.14 168.98c3.33.92 6.04 1.34 8.49 2.4 1 .43 1.47 2.15 2.19 3.3-1.11.54-2.3 1.66-3.3 1.52a30.16 30.16 0 0 1-7.77-2.1 4.5 4.5 0 0 1-2-3.33c-.05-.62 1.8-1.38 2.39-1.8zM223.38 143.47c-.67-.65-2-1.36-2.25-2.35-.2-.74.82-2.38 1.63-2.69a43.72 43.72 0 0 1 8.64-2.34c.9-.13 2.36 1.07 2.85 2.04.26.5-.82 2.37-1.63 2.68-2.8 1.05-5.73 1.69-9.24 2.66zM293.7 124.66c-.55-.48-2-1.14-2.05-1.9-.07-1.06.67-2.85 1.49-3.17a44.4 44.4 0 0 1 8.66-2.25c.86-.14 1.9.92 2.87 1.47-.56 1.08-.9 2.77-1.74 3.12a91.83 91.83 0 0 1-9.24 2.72zM289.89 223.36c-1.45.33-3.1 1.29-4.07.8a39.2 39.2 0 0 1-7.13-4.84 3.06 3.06 0 0 1-.73-2.78c.3-.75 1.96-1.8 2.34-1.57 3.07 1.85 6 4 8.92 6.1.29.22.27.86.67 2.3zM233.46 121.97c-.9 1.61-1.13 2.45-1.67 2.85a64.36 64.36 0 0 1-7.13 4.88c-.76.43-2.9 0-3.07-.54-.33-1.05-.22-2.92.5-3.53a32.93 32.93 0 0 1 7.13-4.82c.9-.44 2.52.64 4.24 1.16zM271.45 95.86c-1.01 1.67-1.3 2.62-1.95 3.12a48.3 48.3 0 0 1-6.68 4.56c-.91.46-2.33-.21-3.52-.37.21-1.22 0-2.95.7-3.57a31.67 31.67 0 0 1 7.04-4.8c.95-.46 2.65.58 4.41 1.06zM294.1 181.53c3.29.93 5.84 1.35 8.16 2.36 1.08.46 1.68 2.03 2.5 3.1-1.17.59-2.41 1.78-3.51 1.66-2.53-.3-5.01-.95-7.36-1.96-1.07-.46-1.7-2.02-2.52-3.08l2.72-2.08zM242.76 188.44c2.94 2.23 5.87 4.36 8.63 6.69.32.8.23 1.71-.26 2.43-.9.57-2.4 1.09-3.15.67a42.56 42.56 0 0 1-7.1-4.9c-.66-.56-.75-2.2-.54-3.24.12-.59 1.34-.95 2.42-1.65zM242.09 118.27c-.91-1.85-2.2-3.89-2.02-4.04 2.99-2.4 6.17-4.62 9.3-6.8.73 1.1 2.2 3.06 2.08 3.17-2.78 2.47-5.73 4.75-9.36 7.67zM229.81 186.13c-2.92-2.25-5.84-4.37-8.58-6.71-.37-.32-.22-2.02.25-2.47.64-.6 2.12-1.13 2.73-.77a64.41 64.41 0 0 1 7.83 5.43c.53.42.54 2.02.22 2.87-.22.64-1.34.95-2.45 1.65zM246.86 137.18c-.69-.59-2.03-1.19-2.19-2.02-.15-.83.57-2.61 1.3-2.9a52.2 52.2 0 0 1 9.08-2.51c1.13.07 2.13.72 2.66 1.73.1 1.12-.4 2.2-1.3 2.86-2.94 1.12-6 1.83-9.55 2.84zM289.99 84.56c-1.71 1.34-3.28 2.96-5.17 3.96-2.06 1.09-4.34 5.08-6.66 1.27-1.94-3.2 2.12-3.94 3.83-5.54 1.1-1 2.4-2.15 3.76-2.4 1.36-.25 2.72.62 4.11 1l.13 1.71zM261.45 201.26c3.05 2.35 6.07 4.58 8.93 7 .33.27.07 1.97-.42 2.38-.69.57-2.14 1.07-2.76.71a57.78 57.78 0 0 1-7.5-5.13c-.59-.48-.75-1.98-.53-2.88.15-.7 1.2-1.16 2.28-2.08zM253.35 149.53c2.13 1.14 6.13 2.4 6.07 3.4-.23 4.16-4.02 2.22-6.42 2.62-1.33.3-2.72.27-4.04-.08-1.22-.42-2.2-1.56-3.3-2.38 1.05-.86 1.98-2.06 3.16-2.49 1.2-.42 2.73-.1 4.06-.1l.47-.97zM277.53 156.7c-2.58-1.3-6.64-2.46-6.6-3.46.18-4.62 4.24-2.61 6.64-2.61 2.41 0 6.48-2.03 6.62 2.64.03 1.04-4.05 2.14-6.66 3.43zM228.03 155.55c-1.35 0-2.82.34-4.02-.1-1.2-.44-2.04-1.66-3.05-2.54 1.08-.8 2.08-2.13 3.27-2.31 2.37-.39 4.8-.39 7.17 0 1.26.22 2.32 1.65 3.48 2.53-1.08.8-2.06 1.85-3.27 2.34-1.06.4-2.38.1-3.58.08zM93.31 176.31c-5.94-2.58-10.1 1.29-14.34 6.29-6.69 7.93-14.03 15.27-20.8 23.1-2.02 2.42-3.48 5.26-4.29 8.31-2.67 9.93-4.8 20-7.43 29.93-.43 1.62-2.37 2.77-3.64 4.2-.4-1.84-1.45-3.88-1.08-5.54 2.44-11.09 5.12-22.17 7.88-33.14.5-1.91 1.43-3.68 2.72-5.15 9.42-10.42 18.8-20.84 28.49-31.03 1.41-1.5 4.03-2.3 6.17-2.48 3.32-.26 6.65-.08 9.93.53 1.56.28 2.9 1.85 4.34 2.82-1.54.78-3.03 1.65-4.62 2.28-.68.25-1.52-.03-3.33-.12zM105.94 23.33l3.25 3.95c-2.4 1.08-4.72 2.5-7.26 3.08-.98.23-2.38-1.38-3.63-2.16l7.64-4.87z"/></g></svg>