<svg viewBox="0 0 33 33" xmlns="http://www.w3.org/2000/svg"><path d="M.028 14.984l.002 1.289H0l.012 1.463c.009 1.163.017 2.326.035 3.49.012.94.047 1.883.146 2.823.094.967.315 1.918.656 2.829.67 1.756 1.818 3.12 3.406 4.109 1.125.701 2.372 1.072 3.676 1.268.737.103 1.48.162 2.224.177l.367.011a84.08 84.08 0 0 0 2.47.049c2.732.002 5.465-.007 8.198-.027a28.686 28.686 0 0 0 2.814-.144 10.96 10.96 0 0 0 2.16-.433c2.641-.834 4.483-2.528 5.484-5.117.428-1.106.619-2.263.683-3.442.048-.893.088-1.789.098-2.684.032-3.109.046-6.219-.013-9.328-.017-.936-.047-1.872-.145-2.805a11.05 11.05 0 0 0-.66-2.828c-.713-1.854-1.942-3.269-3.655-4.255C26.785.76 25.505.421 24.174.26 23.4.166 22.62.136 21.84.115a112.188 112.188 0 0 0-3.057-.049c-.653 0-1.307-.002-1.96-.005-2.168-.008-4.335-.016-6.502.064l-.038.002C9.587.155 8.89.183 8.194.272 7.497.357 6.81.508 6.14.72c-.883.288-1.714.681-2.458 1.24C2.274 3.02 1.278 4.374.718 6.05a11.97 11.97 0 0 0-.585 3.171 63.89 63.89 0 0 0-.099 2.734c-.01 1.01-.008 2.019-.006 3.029zM15.471 2.998l.766.003c.42 0 .842 0 1.264-.002.99-.002 1.981-.005 2.973.006.889.01 1.78.048 2.667.097.98.053 1.943.217 2.85.614 1.385.608 2.35 1.62 2.895 3.034a8.1 8.1 0 0 1 .495 2.276c.1 1.246.132 2.495.132 3.745l.001.409c.004 2.314.008 4.627-.006 6.942a68.428 68.428 0 0 1-.1 3.055c-.047.955-.204 1.89-.579 2.777-.617 1.447-1.66 2.45-3.131 3.009-.71.26-1.452.42-2.206.473-1.348.109-2.7.131-4.05.136-1.693.006-3.387.012-5.082.006a159.015 159.015 0 0 1-3.575-.048 31.05 31.05 0 0 1-1.99-.114c-.9-.08-1.775-.28-2.587-.688-1.25-.627-2.131-1.596-2.633-2.907a8.193 8.193 0 0 1-.494-2.28 45.06 45.06 0 0 1-.133-3.671c-.004-2.546-.008-5.093.006-7.639.004-.949.048-1.899.094-2.848a8.981 8.981 0 0 1 .438-2.406 5.382 5.382 0 0 1 2.28-2.9c.588-.372 1.24-.59 1.914-.75.782-.182 1.579-.23 2.378-.267 1.803-.08 3.608-.071 5.413-.062z"/><path d="M24.558 16.285c.006-4.595-3.716-8.327-8.325-8.331-4.596-.005-8.325 3.725-8.331 8.32-.007 4.597 3.716 8.327 8.325 8.332 4.597.005 8.324-3.726 8.33-8.321zm-8.327 5.399a5.406 5.406 0 1 1 0-10.812 5.406 5.406 0 0 1 0 10.812z"/><path d="M26.833 7.626a1.946 1.946 0 1 1-3.891-.008 1.946 1.946 0 0 1 3.89.008z"/></svg>