<svg xmlns="http://www.w3.org/2000/svg" viewBox="0 0 58 58"><path d="M50.95 12.19l-.77-.77-10.1-10.1-.77-.77A1.9 1.9 0 0 0 37.98 0H8.96C7.78 0 6.5.92 6.5 2.93V56c0 .84.84 1.65 1.84 1.91l.15.04c.15.03.31.05.47.05h40.08c.16 0 .32-.02.47-.05.05 0 .1-.03.15-.04 1-.26 1.84-1.07 1.84-1.91V13.98c0-.77-.1-1.34-.55-1.8zM47.93 12H39.5V3.56L47.94 12zM8.97 56c-.07 0-.13-.03-.2-.05a.46.46 0 0 1-.26-.41V41h41v14.54c0 .18-.1.34-.27.41-.06.02-.12.05-.2.05H8.97zM8.5 39V2.93c0-.22.03-.93.46-.93h28.6c-.04.13-.06.26-.06.4V14h11.6c.14 0 .27-.03.4-.06V39h-41z"/><path d="M22.04 44.74c-.33-.27-.7-.48-1.13-.61-.41-.14-.84-.2-1.27-.2h-2.9V54h1.65v-3.64h1.21c.53 0 1.02-.07 1.45-.23s.81-.37 1.12-.66c.31-.28.55-.63.73-1.04.17-.42.26-.88.26-1.39 0-.48-.1-.92-.31-1.3s-.48-.72-.8-1zm-.62 3.33a1.5 1.5 0 0 1-.94.98c-.2.08-.4.11-.6.11h-1.5v-4h1.24c.41 0 .75.07 1 .2a1.66 1.66 0 0 1 .88 1.11 3.08 3.08 0 0 1-.08 1.6zM31.95 45.4c-.42-.45-.95-.8-1.6-1.07s-1.38-.4-2.23-.4h-3.04V54h3.82a5.44 5.44 0 0 0 1.46-.27c.32-.11.65-.28 1-.51s.64-.54.92-.94.5-.89.67-1.47.27-1.3.27-2.13c0-.6-.1-1.19-.31-1.76a4.44 4.44 0 0 0-.96-1.52zm-1.2 6.33c-.48.71-1.29 1.07-2.4 1.07h-1.63v-7.63h.96c.79 0 1.42.1 1.92.3s.88.48 1.17.81.48.7.58 1.12c.1.4.15.82.15 1.24 0 1.35-.25 2.38-.74 3.09zM35.6 54h1.67v-4.54h4.2v-1.12h-4.2v-3.17h4.63v-1.25h-6.3zM38.43 22.96c-.92 0-2.05.12-3.36.36a31.95 31.95 0 0 1-5.09-7.56c1.34-5.63.67-6.43.37-6.8-.3-.4-.75-1.05-1.26-1.05-.2 0-.78.1-1.01.17-.58.19-.89.63-1.14 1.21-.7 1.66.27 4.47 1.27 6.65a67.13 67.13 0 0 1-3.8 10.75c-3.78 1.73-5.8 3.44-5.98 5.06-.06.6.08 1.46 1.12 2.25.28.2.62.32.96.32.88 0 1.76-.67 2.79-2.1a28.37 28.37 0 0 0 2.38-4.26c2.68-1.17 5.99-2.23 8.83-2.82 1.58 1.52 3 2.29 4.2 2.29.9 0 1.67-.42 2.23-1.2.58-.8.7-1.53.39-2.15-.39-.75-1.34-1.12-2.9-1.12zm-17.9 9.67c-.46-.36-.43-.6-.42-.69.06-.55.93-1.54 3.07-2.74-1.63 2.99-2.5 3.39-2.64 3.43zm8.2-22.92c.05-.01 1.05 1.1.1 3.22-1.42-1.46-.2-3.19-.1-3.22zm-2.06 16.03a71.3 71.3 0 0 0 2.67-7.57 34.23 34.23 0 0 0 3.83 5.55c-2.14.5-4.41 1.2-6.5 2.02zm12.9-.48c-.3.43-.98.44-1.21.44-.53 0-.73-.32-1.55-.94.68-.09 1.3-.11 1.81-.11.9 0 1.06.13 1.18.2-.02.07-.08.2-.23.4z"/></svg>