<svg viewBox="0 0 32 32" xmlns="http://www.w3.org/2000/svg">
<path d="M5.19972 14.5698L13.5129 26.4422C14.8906 28.4105 16.9939 29.7508 19.36 30.168C21.7261 30.5852 24.161 30.0452 26.1288 28.6667L26.8708 28.1472C27.2648 27.8719 27.5332 27.4512 27.6166 26.9778C27.7001 26.5045 27.5918 26.0174 27.3158 25.624L24.7179 21.9138C24.4426 21.5198 24.0219 21.2515 23.5486 21.1681C23.0752 21.0846 22.5881 21.1929 22.1947 21.4689L20.0204 22.9914C19.627 23.2675 19.1399 23.3757 18.6665 23.2923C18.1932 23.2088 17.7725 22.9405 17.4972 22.5465L10.7428 12.9002C10.4667 12.5067 10.3585 12.0196 10.4419 11.5463C10.5254 11.073 10.7937 10.6523 11.1877 10.377L13.3473 8.85192C13.7413 8.57664 14.0096 8.15594 14.0931 7.6826C14.1766 7.20926 14.0683 6.72217 13.7922 6.32873L10.6748 1.87658C10.3995 1.48259 9.97882 1.21427 9.50548 1.13081C9.03214 1.04735 8.54505 1.15559 8.15161 1.43167L7.40958 1.95124C5.44285 3.33124 4.10503 5.43615 3.69058 7.80272C3.27613 10.1693 3.819 12.6036 5.19972 14.5698Z"/>
</svg>
