<svg width="21" height="29" viewBox="0 0 21 29" fill="none" xmlns="http://www.w3.org/2000/svg">
<path fill-rule="evenodd" clip-rule="evenodd" d="M20.4133 10.7352C20.4256 6.43864 17.6118 2.64519 13.4965 1.41031C9.38116 0.175442 4.94365 1.793 2.58838 5.38653C0.233115 8.98006 0.520549 13.6944 3.29494 16.9752L7.32321 22.4734L10.7067 27.3752L18.1461 16.9752C19.6176 15.2297 20.4211 13.0182 20.4133 10.7352Z" stroke="#516EE4"/>
<path fill-rule="evenodd" clip-rule="evenodd" d="M10.7206 13.668C12.5931 13.668 14.111 12.1501 14.111 10.2776C14.111 8.40514 12.5931 6.88721 10.7206 6.88721C8.84813 6.88721 7.3302 8.40514 7.3302 10.2776C7.3302 12.1501 8.84813 13.668 10.7206 13.668Z" stroke="#516EE4"/>
</svg>
