<svg viewBox="0 0 22 22" xmlns="http://www.w3.org/2000/svg"><path d="M16.74 7.12l-2.19 2.19a.62.62 0 0 1-.88 0l-1.22-1.23a.62.62 0 0 0-.74-.1 9.98 9.98 0 0 0-3.73 3.73c-.14.24-.1.55.1.75l1.22 1.22a.62.62 0 0 1 0 .88l-2.18 2.18a.62.62 0 0 1-.88 0l-1-1a1.85 1.85 0 0 1-.47-1.85c.7-2.31 2.93-7.59 9.16-9.16.63-.15 1.3.03 1.76.49l1.04 1.03c.25.24.25.63 0 .87z"/><path d="M2.22 15.54a9.8 9.8 0 1 1 18.37-4.9 9.96 9.96 0 0 1-9.8 9.95c-1.7 0-3.36-.43-4.83-1.27-.41-.22-.76-.54-1-.93-.36-.59-.58-1.47.53-2.29"/></svg>