<svg viewBox="0 0 18 22" fill="none" xmlns="http://www.w3.org/2000/svg"><path fill-rule="evenodd" clip-rule="evenodd" d="M9.88 0H.042L0 21.665h9.38c3.896 0 7.941-2.102 7.941-6.284 0-1.803-.21-2.853-1.34-4.002-.405-.41-.766-.717-1.38-1.02-.171-.084-.495-.199-.816-.313-.395-.14-.784-.278-.878-.356 1.992-1.178 2.961-2.22 2.964-4.897C15.874 1.586 13.118 0 9.88 0zM5.388 5.692v2.813c.25 0 .5.004.747.007 2.235.03 4.168.055 4.168-2.42 0-2.23-2.07-2.184-4.079-2.138a37.33 37.33 0 0 1-.839.013l.003 1.725zm-.002 11.985c.31 0 .628.006.949.012 2.552.045 5.266.094 5.32-2.707.054-2.857-2.647-2.784-5.155-2.715-.379.01-.753.02-1.112.02l-.002 5.39z"/></svg>