<svg viewBox="0 0 34 36" xmlns="http://www.w3.org/2000/svg"><path d="M7.976 3.668c2.351-1.598 5.327-2.62 8.16-2.805.62-.042 2.582.021 3.15.095 3.872.522 7.272 2.24 9.943 5.018 2.755 2.868 4.34 6.516 4.623 10.633.11 1.55-.089 3.558-.503 5.176-.436 1.687-1.25 3.627-2.105 5.019-2.623 4.264-6.884 7.042-11.89 7.738-.846.121-2.598.158-3.459.084a16.94 16.94 0 0 1-6.145-1.75c-.226-.116-.451-.205-.498-.205-.053 0-.945.274-1.984.606-1.984.643-6.68 2.145-6.895 2.214-.121.037-.126.026-.095-.142.026-.164.01-.185-.126-.238-.084-.031-.152-.1-.152-.147 0-.053.357-1.16.798-2.472l.304-.914c.395-1.185.853-2.562 1.133-3.398l.646-1.935-.278-.543c-.971-1.93-1.69-4.291-1.9-6.263-.157-1.465-.11-3.373.116-4.638.299-1.687.734-3.058 1.432-4.513a16.793 16.793 0 0 1 5.725-6.62zm15.245 2.166c-1.622-.796-3.16-1.212-5.033-1.365-2.896-.232-5.998.59-8.48 2.256A13.814 13.814 0 0 0 5.09 11.9a10.875 10.875 0 0 0-.813 2.056c-1.065 3.695-.352 8.055 1.842 11.212.136.195.23.39.23.475 0 .084-.34 1.165-.755 2.414-.415 1.244-.75 2.272-.74 2.283.005.01 1.086-.332 2.398-.754s2.43-.764 2.477-.764c.053 0 .168.058.257.126.289.21 1.218.717 1.78.965 2.035.896 4.119 1.265 6.36 1.128 6.354-.4 11.591-5.314 12.447-11.687.12-.907.12-2.699 0-3.584a12.16 12.16 0 0 0-1.947-5.161 13.713 13.713 0 0 0-5.405-4.776z"/><path d="M11.284 9.344a2.24 2.24 0 0 0-.394.18c-.267.168-1.044 1.001-1.285 1.38-.772 1.208-.945 2.816-.483 4.386.352 1.187.782 2.093 1.57 3.316.996 1.54 1.642 2.372 2.675 3.442 1.554 1.608 2.86 2.51 4.865 3.348 1.48.622 2.571.975 3.185 1.038.425.042 1.354-.105 1.9-.306.756-.274 1.622-.885 1.957-1.38.336-.507.682-1.65.724-2.41l.032-.5-.163-.19c-.115-.127-.587-.411-1.543-.928-2.267-1.223-2.555-1.339-2.912-1.15-.09.043-.425.386-.74.755-.934 1.09-1.128 1.28-1.285 1.28-.2 0-1.507-.669-2.115-1.08a10.123 10.123 0 0 1-1.753-1.481c-.693-.723-1.443-1.756-1.863-2.562l-.094-.19.377-.416c.499-.533.704-.854.903-1.413.205-.57.194-.743-.105-1.529-.268-.7-.483-1.28-.855-2.288-.305-.827-.53-1.165-.845-1.265-.3-.09-1.506-.116-1.753-.037z"/></svg>